<?xml version="1.0" standalone="no"?>
<!DOCTYPE svg PUBLIC "-//W3C//DTD SVG 1.1//EN" "http://www.w3.org/Graphics/SVG/1.1/DTD/svg11.dtd" >
<svg xmlns="http://www.w3.org/2000/svg">
<metadata>
This is a custom SVG webfont generated by Font Squirrel.
Copyright   : Copyright c 1981 1982 1983 1989 and 1993 Linotype Library GmbH or its affiliated LinotypeHell companies All rights reservedThe digitally encoded machine readable software for producing the Typefaces licensed to you is now the property of Heidelberger Druckmaschinen AG and its licensors and may not be reproduced used displayed modified disclosed or transferred without the express written approval of Heidelberger Druckmaschinen AGCopyright c 1988 1990 1993 Adobe Systems Incorporated All Rights Reserved
Foundry URL : httpwwwLinotypeLibrarycom
</metadata>
<defs>
<font id="HelveticaNeueLightItalic" horiz-adv-x="1138" >
<font-face units-per-em="2048" ascent="1638" descent="-410" />
<missing-glyph horiz-adv-x="569" />
<glyph unicode=" "  horiz-adv-x="569" />
<glyph unicode="&#x09;" horiz-adv-x="569" />
<glyph unicode="&#xa0;" horiz-adv-x="569" />
<glyph unicode="!" horiz-adv-x="569" d="M47 0h172l49 217h-174zM172 365h78l168 641l98 456h-137l-98 -454z" />
<glyph unicode="&#x22;" horiz-adv-x="757" d="M281 965h118v497h-118v-497zM537 965h118v497h-118v-497z" />
<glyph unicode="#" d="M72 457h225l-64 -457h103l63 457h289l-63 -457h102l64 457h206l21 92h-215l45 319h207l20 93h-215l64 454h-103l-63 -454h-289l63 454h-102l-63 -454h-217l-21 -93h225l-45 -319h-217zM412 549l45 319h288l-45 -319h-288z" />
<glyph unicode="$" d="M-45 481q-1 -21 -1 -41q0 -90 22 -160q28 -87 83.5 -147.5t134 -97.5t175.5 -51l-41 -187h92l37 176q6 -2 22 -2h25q178 0 288.5 49.5t172 120t83 147.5t21.5 132q0 92 -32.5 153.5t-88 102.5t-126 67.5t-146.5 49.5l-41 12l119 561q137 -16 207.5 -91t72.5 -239h139 l2 39q0 84 -23 149q-28 79 -81 133t-128 85t-165 43l25 114h-92l-23 -106q-102 0 -201.5 -21.5t-177.5 -70.5t-126 -129t-48 -197q0 -141 80 -222t209 -118l98 -28l-129 -607q-147 20 -228 112q-73 83 -74 237q0 16 1 32h-137zM274 1081q0 82 34 137.5t89.5 90t125 50 t141.5 15.5l-115 -543l-29 9q-45 14 -90 31.5t-79 45t-55.5 67.5t-21.5 97zM483 90l125 590q57 -16 114.5 -34.5t103.5 -49.5t75 -77t29 -118q0 -82 -38 -141t-98.5 -97t-134 -56.5t-145.5 -18.5q-25 0 -31 2z" />
<glyph unicode="%" horiz-adv-x="1705" d="M137 958q0 -129 71 -208.5t206 -79.5q98 0 168.5 45t118 115.5t70 157.5t22.5 173q0 125 -73 205t-202 80q-96 0 -167.5 -44t-119 -114.5t-71 -157t-23.5 -172.5zM213 -63h111l1169 1544h-113zM246 954q0 57 15 127t48 130.5t83 101.5t120 41q94 0 133 -56.5t39 -142.5 q0 -59 -15.5 -129t-47 -128t-83 -97t-122.5 -39q-86 0 -128 58t-42 134zM913 258q0 -129 71 -208t206 -79q98 0 169 44t118 115t69.5 158t22.5 173q0 125 -73 204.5t-202 79.5q-96 0 -167.5 -44t-118.5 -114.5t-71 -156.5t-24 -172zM1020 254q0 57 15.5 127t48 130t83 101 t119.5 41q94 0 133 -56t39 -142q0 -59 -15.5 -129t-47 -128.5t-82.5 -97.5t-123 -39q-86 0 -128 58.5t-42 134.5z" />
<glyph unicode="&#x26;" horiz-adv-x="1251" d="M35 344q0 -92 30.5 -161.5t85 -117t130 -71t165.5 -23.5q129 0 238 51.5t186 149.5l111 -172h145l-170 262q70 92 111 185.5t63 197.5h-129q-16 -74 -42.5 -149.5t-69.5 -128.5l-262 407l128 75q67 40 121 90t88.5 113.5t34.5 143.5q0 66 -27.5 115t-71.5 82.5t-102.5 51 t-119.5 17.5q-74 0 -138.5 -22.5t-111.5 -63.5t-74.5 -98t-27.5 -129q0 -51 11 -95t30.5 -85t45.5 -80l52 -80q-78 -37 -155 -79t-138 -95t-99 -124t-38 -167zM164 336q0 78 33.5 136t86 103.5t116 80t122.5 63.5l289 -453q-78 -98 -167 -143t-208 -45q-55 0 -105 20.5 t-87 55t-58.5 82t-21.5 100.5zM455 1145q0 47 17 85t48 65.5t71 43t83 15.5q82 0 139 -45t57 -138q0 -57 -30.5 -104t-76.5 -85t-98 -68l-96 -54l-39 65q-20 34 -36.5 70.5t-27.5 74.5t-11 75z" />
<glyph unicode="'" horiz-adv-x="569" d="M313 965h119v497h-119v-497z" />
<glyph unicode="(" horiz-adv-x="530" d="M100 385q-2 -45 -2 -88q0 -157 29 -305q37 -188 104 -381h88q-43 147 -71.5 294.5t-28.5 301.5q0 197 32 367.5t93.5 326.5t152.5 301.5t210 290.5h-107q-104 -113 -192.5 -239t-154 -265t-105.5 -290.5t-48 -313.5z" />
<glyph unicode=")" horiz-adv-x="530" d="M-207 -389h107q102 113 190 238.5t153.5 264t105.5 289t48 314.5q2 45 3 88q0 158 -29 306q-37 189 -105 382h-88q43 -147 72 -295.5t29 -302.5q0 -197 -32 -368t-93.5 -327.5t-151.5 -301t-209 -287.5z" />
<glyph unicode="*" horiz-adv-x="720" d="M147 1262l207 -113l-170 -184l58 -56l176 189l121 -217l77 39l-122 208l235 52l-10 77l-238 -49l51 254h-79l-54 -245l-209 116z" />
<glyph unicode="+" horiz-adv-x="1228" d="M100 461h461v-461h109v461h460v108h-460v461h-109v-461h-461v-108z" />
<glyph unicode="," horiz-adv-x="569" d="M-23 -279q49 12 86 29t63 41.5t44 58t31 82.5l67 285h-172l-49 -217h86q-8 -31 -18.5 -62.5t-25.5 -57t-37.5 -46t-57.5 -31.5z" />
<glyph unicode="-" horiz-adv-x="757" d="M78 504h514l24 119h-514z" />
<glyph unicode="." horiz-adv-x="569" d="M47 0h172l49 217h-174z" />
<glyph unicode="/" horiz-adv-x="681" d="M-160 -29h121l840 1522h-121z" />
<glyph unicode="0" d="M51 500q0 -98 18.5 -193.5t62.5 -170.5t120 -120t190 -45q119 0 212.5 45t165 121t122.5 175.5t83 208t47 218t15 205.5q0 102 -20 192.5t-67.5 160t-125 109.5t-192.5 40q-111 0 -201 -45t-160.5 -120t-121 -173t-84 -202.5t-49 -210t-15.5 -195.5zM180 459 q0 68 12.5 159t37 189t63.5 192.5t93 170t124 121.5t158 46t144 -31.5t89 -85t45 -121t12 -141.5q0 -68 -11 -159.5t-35.5 -190t-62.5 -194t-92.5 -170t-125 -120.5t-158.5 -46q-86 0 -142.5 31.5t-90 85t-47 122t-13.5 142.5z" />
<glyph unicode="1" d="M274 1075q104 16 204 41t194 74l-254 -1190h129l307 1434h-98q-37 -57 -87.5 -101.5t-110.5 -75t-125.5 -50t-131.5 -29.5z" />
<glyph unicode="2" d="M-20 0h925l23 119h-801q29 80 85 141.5t129 113.5t155 97l161 92q82 45 157 95.5t132.5 111.5t91 136t33.5 171q0 90 -32.5 159t-89 116t-131.5 70.5t-159 23.5q-106 0 -195 -37t-154.5 -102.5t-103.5 -155.5t-42 -197h129q4 78 28.5 147.5t69.5 122t109.5 83t146.5 30.5 q59 0 112.5 -15t93.5 -47t64.5 -80t24.5 -114q0 -94 -40 -164.5t-105.5 -128t-150.5 -106.5l-173 -98q-88 -49 -174 -103.5t-154.5 -123t-113.5 -155.5t-51 -202z" />
<glyph unicode="3" d="M18 455q-1 -16 0 -32q0 -89 20 -164q24 -89 78 -153.5t143 -99.5t214 -35q98 0 189.5 31t162 91.5t112.5 148.5t42 200q0 111 -53.5 193t-159.5 108v5q66 12 121 41.5t95 73.5t62.5 102.5t22.5 126.5q0 88 -33 154.5t-89 110.5t-129 66.5t-152 22.5q-215 0 -335 -122 t-157 -327h129q25 156 112 248t246 92q55 0 105.5 -16t88.5 -47t61.5 -78t23.5 -109q0 -88 -33 -143t-86 -86t-119.5 -41t-132.5 -10h-84l-22 -109h69q66 0 123.5 -13t101.5 -45t69.5 -82t25.5 -124q0 -80 -31 -145.5t-84 -112.5t-122.5 -72.5t-149.5 -25.5q-168 0 -246 104 q-70 94 -70 241v32h-129z" />
<glyph unicode="4" d="M0 356h653l-78 -356h130l77 356h215l25 109h-217l209 969h-115l-879 -957zM147 465l687 747l4 -4l-162 -743h-529z" />
<glyph unicode="5" d="M31 406q-1 -18 -1 -36q0 -79 22 -146q28 -81 83 -137t135 -86t181 -30q123 0 223 41t173 115t111.5 176.5t38.5 224.5q0 90 -27.5 167t-78.5 133.5t-125 89t-166 32.5q-88 0 -172 -26.5t-143 -85.5h-4l153 458h627l29 119h-732l-235 -729l115 -10q51 92 135 129t182 37 q160 0 236.5 -93.5t76.5 -242.5q0 -86 -28.5 -163t-81.5 -136.5t-127 -94t-166 -34.5q-154 0 -237 86q-71 73 -70 197q0 21 2 45h-129z" />
<glyph unicode="6" d="M74 453q0 -104 25.5 -192.5t77.5 -153t133 -100.5t190 -36q117 0 213 39t164.5 108.5t106.5 167t38 214.5q0 90 -28.5 170t-82 138t-129 92t-170.5 34q-117 0 -217 -52.5t-159 -150.5h-5q23 88 58 193.5t90 197.5t136 153.5t198 61.5q268 0 276 -266h129 q0 190 -106.5 282.5t-290.5 92.5q-90 0 -166 -26.5t-137.5 -74t-111.5 -112t-89 -139.5q-76 -154 -109.5 -324t-33.5 -317zM203 416q0 78 25.5 151.5t73.5 131t115.5 92t149.5 34.5q70 0 129.5 -21.5t103.5 -61.5t68.5 -97t24.5 -129q0 -84 -23.5 -163t-71.5 -140t-119 -98 t-163 -37q-74 0 -132 26.5t-98 72.5t-61.5 107.5t-21.5 131.5z" />
<glyph unicode="7" d="M207 0h143q45 147 116 311t169 336q100 172 226 338t282 320l26 110h-915l-29 -119h781q-268 -270 -476 -602q-102 -164 -183 -329.5t-140 -364.5z" />
<glyph unicode="8" d="M37 377q0 -104 37 -181t99.5 -126.5t144 -74t174.5 -24.5q96 0 188 29t163.5 85t116 139t44.5 190q0 119 -59.5 212t-178.5 128v2q66 10 121 39.5t96 74.5t63.5 103.5t22.5 126.5q0 94 -36 159.5t-96 107.5t-137 60.5t-159 18.5q-84 0 -162 -25.5t-137 -74t-95 -118 t-36 -159.5q0 -98 53 -177t152 -110v-4q-80 -8 -149.5 -39.5t-120 -83t-80 -122t-29.5 -156.5zM166 375q0 76 27.5 137t75.5 104t114 67t139.5 24t138 -15.5t111.5 -49.5t74.5 -88t27.5 -134t-28.5 -143.5t-78.5 -107.5t-117.5 -67.5t-145.5 -23.5q-70 0 -132.5 17.5 t-107.5 54t-71.5 93t-26.5 132.5zM340 1063q0 66 25.5 117t68.5 85.5t98.5 53t116.5 18.5q59 0 112.5 -14t93.5 -44t62.5 -76t22.5 -111q0 -68 -24.5 -119t-66.5 -87t-98.5 -53.5t-119.5 -17.5q-57 0 -110.5 14.5t-93.5 45t-63.5 78t-23.5 110.5z" />
<glyph unicode="9" d="M16 344q0 -190 106.5 -281.5t291.5 -91.5q92 0 166.5 27t137 73t112 110.5t87.5 140.5q76 154 110 323.5t34 317.5q0 102 -25.5 191t-78 153.5t-133.5 101.5t-189 37q-117 0 -213 -39t-165 -109.5t-106.5 -168t-37.5 -214.5q0 -90 28.5 -169.5t81.5 -138t129 -92.5 t170 -34q117 0 217.5 52.5t159.5 150.5h4q-23 -88 -57.5 -193.5t-90 -197.5t-136 -153.5t-197.5 -61.5q-268 0 -277 266h-129zM242 899q0 84 23.5 163t71.5 140.5t118.5 98t162.5 36.5q74 0 132.5 -26.5t98.5 -72.5t61.5 -107.5t21.5 -131.5q0 -78 -25.5 -151.5t-74 -131 t-115 -92t-150.5 -34.5q-70 0 -129 21.5t-103 61.5t-68.5 97t-24.5 129z" />
<glyph unicode=":" horiz-adv-x="569" d="M47 0h172l49 217h-174zM231 807h172l50 217h-174z" />
<glyph unicode=";" horiz-adv-x="569" d="M-23 -279q49 12 86 29t63 41.5t44 58t31 82.5l67 285h-172l-49 -217h86q-8 -31 -18.5 -62.5t-25.5 -57t-37.5 -46t-57.5 -31.5zM231 807h172l50 217h-174z" />
<glyph unicode="&#x3c;" horiz-adv-x="1228" d="M94 463l1041 -477v110l-914 422l914 422v113l-1041 -480v-110z" />
<glyph unicode="=" horiz-adv-x="1228" d="M100 262h1030v109h-1030v-109zM100 666h1030v108h-1030v-108z" />
<glyph unicode="&#x3e;" horiz-adv-x="1228" d="M94 -14l1041 477v110l-1041 480v-113l914 -422l-914 -422v-110z" />
<glyph unicode="?" horiz-adv-x="1099" d="M178 1010h129q6 80 32 147.5t71 118.5t108.5 79.5t143.5 28.5q123 0 198.5 -64.5t75.5 -189.5q0 -53 -20.5 -100t-53.5 -88t-75 -74.5t-85 -62.5l-118 -89q-51 -40 -88 -86t-60.5 -106.5t-36.5 -150.5h129q12 59 26.5 104t37 82t57.5 70t88 65q63 43 122 88t105 98.5 t73.5 119t27.5 149.5q0 86 -33 150.5t-88 107.5t-127 64.5t-149 21.5q-111 0 -200 -34t-151.5 -97.5t-98.5 -152t-40 -199.5zM301 0h172l49 217h-174z" />
<glyph unicode="@" horiz-adv-x="1638" d="M96 737q0 -162 56.5 -302t158 -243.5t240.5 -162t305 -58.5q96 0 189.5 24.5t176.5 72t151.5 115t115.5 151.5h-105q-45 -63 -104 -113.5t-129 -85.5t-144.5 -54.5t-150.5 -19.5q-139 0 -259 51.5t-207 140.5t-136 210t-49 260q0 141 47 265t133 215t205 144.5t262 53.5 q119 0 224.5 -37t185 -105.5t126 -169t46.5 -227.5q0 -86 -29 -176t-76 -163.5t-110.5 -121t-131.5 -47.5q-25 0 -36 14.5t-12 38t5.5 54.5t16.5 63l196 590h-108l-51 -133q-35 92 -92.5 132t-124.5 40q-109 0 -199 -52t-153.5 -137t-98.5 -190.5t-35 -212.5 q0 -61 18.5 -114.5t53.5 -94.5t85 -64.5t114 -23.5q78 0 145.5 43t114.5 92h4q6 -68 45 -102.5t92 -34.5q86 0 171 46t152.5 127t109.5 189.5t42 231.5q0 141 -53 258t-146.5 202t-220.5 131t-274 46q-156 0 -293 -58.5t-239.5 -159.5t-161 -239.5t-58.5 -298.5zM524 571 q0 72 24.5 155t71 153.5t111 117.5t141.5 47q31 0 60 -16t51.5 -43t36.5 -60.5t14 -70.5q0 -68 -26.5 -152t-72.5 -156.5t-107.5 -122.5t-133.5 -50q-74 0 -122 53t-48 145z" />
<glyph unicode="A" horiz-adv-x="1290" d="M-152 0h154l270 455h668l74 -455h145l-266 1462h-152zM342 573l449 770h4l125 -770h-578z" />
<glyph unicode="B" horiz-adv-x="1366" d="M10 0h631q115 0 221.5 23.5t187 77t130 141.5t49.5 217q0 117 -66.5 201.5t-183.5 99.5v4q143 25 230 122t87 242q0 92 -31.5 156t-87 103.5t-128 57t-154.5 17.5h-567zM176 119l127 583h440q68 0 130.5 -10t110.5 -39.5t77 -80t29 -130.5q0 -86 -37 -147.5t-96.5 -100 t-134 -57t-150.5 -18.5h-496zM330 821l112 522h451q55 0 103 -12t84 -39.5t56.5 -71.5t20.5 -106q0 -76 -30.5 -130t-82 -89t-117 -53.5t-136.5 -20.5h-461z" />
<glyph unicode="C" horiz-adv-x="1441" d="M70 592q0 -139 40 -254t116.5 -196t188 -126t255.5 -45q141 0 251.5 40t192.5 111t135.5 168t77.5 210h-139q-27 -94 -75 -171t-112.5 -130.5t-143.5 -82t-165 -28.5q-113 0 -203 35t-152.5 99.5t-95 154.5t-32.5 203q0 150 40 292t122 253.5t203.5 180t287.5 68.5 q184 0 294 -94t114 -281h139q-2 123 -44 215.5t-114.5 154t-172 93t-214.5 31.5q-188 0 -335.5 -75t-250 -200.5t-155.5 -287.5t-53 -338z" />
<glyph unicode="D" horiz-adv-x="1402" d="M10 0h545q197 0 346.5 71.5t250.5 193.5t152.5 281t51.5 331q0 133 -28 240.5t-93.5 184t-172 118.5t-263.5 42h-471zM176 119l266 1224h334q440 0 441 -440q0 -152 -39 -294t-123 -251.5t-214 -175.5q-126 -64 -302 -63h-11h-352z" />
<glyph unicode="E" horiz-adv-x="1175" d="M10 0h1000l26 119h-860l123 577h782l27 119h-784l112 528h840l27 119h-981z" />
<glyph unicode="F" horiz-adv-x="1099" d="M10 0h140l149 696h711l22 119h-706l112 528h797l25 119h-936z" />
<glyph unicode="G" horiz-adv-x="1517" d="M70 582q0 -141 38.5 -254t113.5 -193t184.5 -122t250.5 -42q174 0 306.5 63.5t224.5 211.5h4l-25 -246h95l153 743h-624l-29 -118h504q-18 -115 -66.5 -213.5t-123.5 -170t-174 -112.5t-220 -41q-117 0 -206 36t-148.5 102.5t-89 158.5t-29.5 205q0 147 47 288.5t131 251 t204 177t263 67.5q203 0 323.5 -89t129.5 -273h139q-8 229 -154.5 355t-425.5 126q-197 0 -345 -76t-248.5 -203t-151.5 -291.5t-51 -340.5z" />
<glyph unicode="H" horiz-adv-x="1441" d="M10 0h140l151 709h846l-152 -709h140l311 1462h-139l-136 -635h-845l135 635h-139z" />
<glyph unicode="I" horiz-adv-x="454" d="M10 0h140l309 1462h-140z" />
<glyph unicode="J" horiz-adv-x="1024" d="M-39 303q0 -90 28.5 -153.5t80 -103.5t121 -57.5t151.5 -17.5q104 0 180 26t130.5 77t88 124.5t54.5 170.5l233 1093h-139l-223 -1042q-14 -63 -35 -123.5t-55.5 -107t-89 -74t-134.5 -27.5q-51 0 -97 10.5t-81 34t-55.5 62t-20.5 94.5q0 45 5.5 90t13.5 90h-137 q-19 -80 -19 -166z" />
<glyph unicode="K" horiz-adv-x="1327" d="M10 0h140l108 506l326 260l465 -766h159l-522 852l750 610h-195l-944 -784l-4 4l168 780h-139z" />
<glyph unicode="L" horiz-adv-x="1099" d="M10 0h946l29 119h-809l289 1343h-139z" />
<glyph unicode="M" horiz-adv-x="1744" d="M4 0h135l277 1343h4l235 -1343h140l809 1323h4l-301 -1323h137l313 1462h-203l-802 -1312l-228 1312h-202z" />
<glyph unicode="N" horiz-adv-x="1441" d="M0 0h133l273 1307h4l583 -1307h154l319 1462h-135l-270 -1306h-4l-584 1306h-158z" />
<glyph unicode="O" horiz-adv-x="1517" d="M70 592q0 -139 40 -254t116.5 -196t188 -126t255.5 -45q195 0 343 75t250.5 201t154.5 290.5t52 343.5q0 139 -42 251.5t-120.5 192.5t-191 124t-252.5 44q-188 0 -335.5 -75t-250 -200.5t-155.5 -287.5t-53 -338zM209 580q0 150 40 292t122 253.5t203.5 180t287.5 68.5 q121 0 209 -40t146.5 -110.5t86 -166.5t27.5 -211q0 -135 -44 -271.5t-127 -244t-200.5 -175t-267.5 -67.5q-113 0 -203 35t-152.5 99.5t-95 154.5t-32.5 203z" />
<glyph unicode="P" horiz-adv-x="1290" d="M10 0h140l135 627h516q111 0 203 31.5t158.5 92t104.5 149.5t38 202q0 84 -30 151.5t-82 113.5t-123 70.5t-155 24.5h-589zM311 745l129 598h428q68 0 122 -13t93 -44t60.5 -81t21.5 -124q0 -80 -27.5 -142t-76.5 -105t-114.5 -66t-141.5 -23h-494z" />
<glyph unicode="Q" horiz-adv-x="1517" d="M70 592q0 -139 40 -254t116.5 -196t188 -126t255.5 -45q215 0 372 90l205 -190l82 84l-186 172q160 129 243.5 326.5t83.5 427.5q0 139 -42 251.5t-120.5 192.5t-191 124t-252.5 44q-188 0 -335.5 -75t-250 -200.5t-155.5 -287.5t-53 -338zM209 580q0 150 40 292 t122 253.5t203.5 180t287.5 68.5q121 0 209 -40t146.5 -110.5t86 -166.5t27.5 -211q0 -90 -18.5 -179t-55 -171t-90 -154t-120.5 -125l-185 172l-80 -84l164 -151q-55 -31 -118.5 -48.5t-135.5 -17.5q-113 0 -203 35t-152.5 99.5t-95 154.5t-32.5 203z" />
<glyph unicode="R" horiz-adv-x="1327" d="M10 0h140l137 649h516q113 0 157 -66.5t44 -170.5q0 -66 -10.5 -131.5t-10.5 -131.5q0 -6 1 -28.5t3 -48t6 -47t11 -25.5h143q-16 23 -20.5 61.5t-4.5 65.5q0 76 10.5 151.5t10.5 153.5q0 100 -41 170t-146 92v4q80 6 149 39t118 86.5t76.5 124t27.5 150.5 q0 180 -98.5 272t-284.5 92h-622zM313 768l123 575h502q135 0 192.5 -63t57.5 -193q0 -82 -30 -141t-82 -99t-120.5 -59.5t-148.5 -19.5h-494z" />
<glyph unicode="S" horiz-adv-x="1290" d="M23 481q-1 -18 -1 -35q0 -111 33 -194q39 -96 114 -158.5t178.5 -92.5t225.5 -30q178 0 289 49.5t172.5 120t83 147.5t21.5 132q0 92 -33 153.5t-88 102.5t-126 67.5t-147 49.5l-155 47q-45 14 -90 31.5t-79 45t-55.5 67.5t-21.5 97q0 78 33 133.5t86 91t119.5 52 t134.5 16.5q94 0 165.5 -16.5t121 -56t75 -104t25.5 -161.5h139q1 17 1 34q0 105 -34 180q-39 87 -109.5 141.5t-168.5 78t-209 23.5q-98 0 -191.5 -24.5t-166 -75t-116.5 -129t-44 -189.5q0 -141 80 -222t209 -118l143 -43l125 -37q63 -18 116.5 -49t87 -79t33.5 -126 q0 -82 -37.5 -141t-98 -97t-134.5 -56.5t-145 -18.5q-98 0 -179 21.5t-137.5 68.5t-84.5 122q-23 61 -22 144q0 18 1 37h-139z" />
<glyph unicode="T" d="M141 1343h502l-293 -1343h139l293 1343h502l25 119h-1143z" />
<glyph unicode="U" horiz-adv-x="1441" d="M98 389q0 -115 45 -194.5t119 -129t167 -72t189 -22.5q250 0 413 117t216 375l209 999h-139l-207 -989q-39 -186 -156.5 -285.5t-316.5 -99.5q-88 0 -164 19.5t-129 59.5t-82 99q-25 52 -25 120q0 10 1 20q0 72 14 126l194 930h-139l-196 -954q-13 -70 -13 -119z" />
<glyph unicode="V" horiz-adv-x="1214" d="M131 1462l229 -1462h162l844 1462h-152l-749 -1343h-4l-187 1343h-143z" />
<glyph unicode="W" horiz-adv-x="1857" d="M145 1462l109 -1462h154l639 1329h4l96 -1329h151l705 1462h-145l-598 -1288h-5l-100 1288h-168l-622 -1300h-5l-75 1300h-140z" />
<glyph unicode="X" horiz-adv-x="1175" d="M-137 0h162l573 651l326 -651h147l-381 739l635 723h-166l-530 -614l-303 614h-154l360 -700z" />
<glyph unicode="Y" horiz-adv-x="1175" d="M135 1462l389 -858l-133 -604h141l130 590l733 872h-170l-613 -741l-329 741h-148z" />
<glyph unicode="Z" horiz-adv-x="1175" d="M-100 0h1136l27 119h-975l1169 1227l25 116h-1055l-26 -119h889l-1164 -1220z" />
<glyph unicode="[" horiz-adv-x="493" d="M-55 -389h327l21 108h-199l359 1665h200l23 109h-334z" />
<glyph unicode="\" horiz-adv-x="681" d="M-117 1493l840 -1522h121l-842 1522h-119z" />
<glyph unicode="]" horiz-adv-x="493" d="M-150 -389h332l400 1882h-330l-21 -109h199l-358 -1665h-199z" />
<glyph unicode="^" horiz-adv-x="1228" d="M90 487h119l403 799l410 -799h117l-471 928h-107z" />
<glyph unicode="_" horiz-adv-x="1024" d="M0 -152v-102h1024v102h-1024z" />
<glyph unicode="`" horiz-adv-x="378" d="M137 1493l217 -295h103l-168 295h-152z" />
<glyph unicode="a" horiz-adv-x="1062" d="M-16 262q0 -78 25.5 -133t69.5 -90t105.5 -51.5t134.5 -16.5q111 0 211.5 50.5t155.5 142.5l4 -4q-2 -14 -3 -28.5t-1 -29.5q4 -113 113 -112q55 0 106 10l19 100q-14 -2 -25.5 -3t-26.5 -1q-23 0 -45 7.5t-22 35.5q0 25 4 49.5t12 63.5l22 97l31 147l20 81l21.5 94 t17.5 95t7 86q0 72 -37 117t-92 71.5t-119.5 36.5t-118.5 10q-84 0 -159.5 -20t-135 -62t-99.5 -108t-52 -156h129q10 66 40 112t75 73.5t100 40t117 12.5q37 0 77 -6t71.5 -22.5t53 -46.5t21.5 -77q0 -104 -31.5 -147t-95.5 -59q-58 -15 -136 -16h-10h-10q-81 0 -180 -15 q-72 -12 -137.5 -33.5t-116.5 -58.5t-80.5 -94.5t-29.5 -141.5zM111 268q0 84 43 130t106.5 70t136 31t131.5 11q25 2 59 4t66.5 8t62 17.5t46.5 29.5l4 -4l-41 -178q-31 -141 -127 -225t-252 -84q-45 0 -88 10t-75.5 33.5t-52 59.5t-19.5 87z" />
<glyph unicode="b" horiz-adv-x="1175" d="M-20 0h114l51 242h5q27 -131 123 -201t231 -70t239.5 60.5t175 157t107.5 217t37 241.5q0 94 -24.5 175t-75 139.5t-125 92t-176.5 33.5q-123 0 -216.5 -59t-148.5 -158h-4l125 592h-129zM199 399q0 90 27.5 191.5t81.5 187.5t135 143.5t188 57.5q160 0 231.5 -90 t71.5 -238q0 -96 -28.5 -198.5t-85 -185.5t-139.5 -136t-194 -53q-74 0 -128 25.5t-90 68.5t-53 101t-17 126z" />
<glyph unicode="c" horiz-adv-x="1062" d="M29 405q0 -197 105.5 -315.5t301.5 -118.5q193 0 313.5 93.5t180.5 277.5h-129q-41 -117 -130 -190.5t-218 -73.5q-76 0 -131.5 24.5t-92 68.5t-54 104.5t-17.5 130.5q0 102 27.5 204.5t85 184.5t142.5 133t201 51q57 0 105.5 -17.5t82.5 -49t52 -78.5q15 -39 15 -86 q0 -10 -1 -21h129q0 6 1 12q0 84 -27 148q-29 68 -82 112.5t-127 66t-160 21.5q-135 0 -241.5 -60t-180.5 -156.5t-112.5 -219.5t-38.5 -246z" />
<glyph unicode="d" horiz-adv-x="1175" d="M29 401q0 -195 99 -312.5t302 -117.5q139 0 228.5 57.5t156.5 161.5h4l-47 -190h125l313 1462h-129l-127 -604h-4q-35 125 -127 177t-217 52q-133 0 -239.5 -61t-182 -159.5t-115.5 -221.5t-40 -244zM158 393q0 96 28.5 199.5t85 189.5t141.5 141.5t195 55.5 q141 0 218 -82t77 -223q0 -98 -30.5 -203.5t-89 -193t-144.5 -143.5t-197 -56q-145 0 -214.5 90t-69.5 225z" />
<glyph unicode="e" horiz-adv-x="1062" d="M29 418q0 -209 109.5 -328t320.5 -119q190 0 309 94.5t172 274.5h-129q-37 -117 -127 -189.5t-219 -72.5q-78 0 -136.5 25.5t-96 69.5t-56 105.5t-18.5 133.5q0 45 6 82h827q6 47 8 92t2 90q0 92 -26.5 168t-78.5 130t-126 83.5t-170 29.5q-135 0 -241.5 -57 t-180.5 -151.5t-111.5 -214t-37.5 -246.5zM180 602q16 74 51 141.5t87.5 119.5t119 84t146.5 32q135 0 211.5 -80t76.5 -215q0 -20 -1 -39.5t-1 -42.5h-690z" />
<glyph unicode="f" horiz-adv-x="530" d="M37 0h129l209 948h207l24 109h-209l31 147q18 78 57 114t129 36q20 0 40 -4l40 -9l23 107q-33 10 -66 12t-67 2q-131 0 -194.5 -67.5t-88.5 -184.5l-33 -153h-182l-25 -109h185z" />
<glyph unicode="g" d="M-39 -78q2 -94 35 -159.5t88 -105.5t128 -58.5t155 -18.5q123 0 210 32t148 96.5t102 164.5t70 238l201 946h-119l-45 -217h-4q-10 61 -43 108t-81 78t-105.5 46t-116.5 15q-127 0 -227.5 -55t-170 -145t-106.5 -204t-37 -230q0 -92 25.5 -170t75 -136.5t123 -91 t167.5 -32.5q106 0 206.5 50t154.5 144l4 -4q-12 -45 -24.5 -101.5t-31 -113.5t-46 -113.5t-69.5 -99.5t-101.5 -69.5t-141.5 -26.5q-57 0 -110.5 11t-94.5 37.5t-66.5 72t-25.5 112.5h-127zM172 463q0 90 27.5 181t82 166t132.5 122t176 47q78 0 133 -24.5t90 -67.5 t50.5 -102.5t15.5 -129.5q0 -88 -29 -181t-84 -170t-133 -125t-176 -48q-74 0 -127.5 26.5t-89 72.5t-52 105.5t-16.5 127.5z" />
<glyph unicode="h" horiz-adv-x="1099" d="M-20 0h126l117 543q20 100 61.5 181t96.5 137t120.5 87t135.5 31q43 0 83 -10.5t70.5 -33t49 -58t18.5 -89.5q0 -27 -4 -54t-10 -52l-148 -682h129l146 678q16 82 16 125q0 76 -23.5 130t-66.5 88t-101.5 50t-127.5 16q-119 0 -217.5 -64.5t-153.5 -158.5h-4l129 598 h-129z" />
<glyph unicode="i" horiz-adv-x="378" d="M-20 0h126l228 1057h-129zM248 1255h129l45 207h-129z" />
<glyph unicode="j" horiz-adv-x="378" d="M-279 -379q23 -2 45.5 -6t45.5 -4q121 0 177 53t81 158l264 1235h-129l-260 -1231q-12 -43 -39 -75t-86 -32q-18 0 -37 3.5t-37 5.5zM248 1255h129l45 207h-131z" />
<glyph unicode="k" horiz-adv-x="948" d="M-20 0h126l82 383l226 188l280 -571h142l-320 649l500 408h-172l-619 -516l-4 4l197 917h-129z" />
<glyph unicode="l" horiz-adv-x="378" d="M-20 0h126l316 1462h-129z" />
<glyph unicode="m" horiz-adv-x="1705" d="M-20 0h126l115 537q20 92 58 173t89.5 140t115 94t132.5 35q94 0 136.5 -55.5t42.5 -132.5q0 -49 -13 -103l-147 -688h129l104 487q23 102 53.5 191.5t76.5 156t108.5 105.5t146.5 39q104 0 152.5 -51t48.5 -129q0 -51 -12 -107l-150 -692h129l148 688q6 33 10 62.5 t4 58.5q0 123 -69.5 200.5t-223.5 77.5q-119 0 -214 -63t-156 -162h-5q-10 113 -77.5 169t-178.5 56q-119 0 -217 -63t-155 -156l-4 4l41 185h-119z" />
<glyph unicode="n" horiz-adv-x="1099" d="M-20 0h126l117 543q20 100 61.5 181t96.5 137t120.5 87t135.5 31q43 0 83 -10.5t70.5 -33t49 -58t18.5 -89.5q0 -27 -4 -54t-10 -52l-148 -682h129l146 678q16 82 16 125q0 76 -23.5 130t-66.5 88t-101.5 50t-127.5 16q-119 0 -218.5 -64.5t-158.5 -158.5h-4l37 193h-119 z" />
<glyph unicode="o" d="M29 410q0 -201 108.5 -320t313.5 -119q147 0 256.5 59.5t182.5 158t109.5 225.5t36.5 260q0 98 -30.5 175t-86 130t-132 80.5t-169.5 27.5q-141 0 -250.5 -57t-185.5 -151.5t-114.5 -217t-38.5 -251.5zM158 422q0 92 28.5 191.5t84 180t137 133t188.5 52.5 q156 0 233.5 -92t77.5 -240q0 -92 -27.5 -192.5t-82 -184.5t-135 -138t-187.5 -54q-162 0 -239.5 95t-77.5 249z" />
<glyph unicode="p" horiz-adv-x="1175" d="M-92 -389h127l129 600h4q10 -63 41 -109.5t76 -75t102 -42t119 -13.5q133 0 239.5 61.5t182.5 159t115.5 219t39.5 244.5q0 96 -24.5 176t-74.5 136.5t-125 88t-177 31.5q-139 0 -228 -58t-157 -163h-4l41 191h-117zM209 383q0 98 30.5 203.5t89 192.5t144.5 143.5 t197 56.5q145 0 214.5 -90t69.5 -225q0 -96 -28.5 -200t-85 -190t-141.5 -141t-195 -55q-141 0 -218 82t-77 223z" />
<glyph unicode="q" horiz-adv-x="1175" d="M45 410q0 -94 24.5 -175t75 -139.5t126 -91.5t175.5 -33q123 0 216.5 58.5t152.5 156.5h4l-125 -575h129l312 1446h-119l-45 -211h-4q-33 111 -130.5 176t-232.5 65t-239.5 -60t-175 -157.5t-107.5 -218t-37 -241.5zM174 406q0 96 28.5 198.5t85 185t139.5 136t194 53.5 q74 0 128 -25.5t89.5 -68.5t53 -101.5t17.5 -126.5q0 -88 -27.5 -190t-82 -188t-135 -143.5t-187.5 -57.5q-160 0 -231.5 90.5t-71.5 237.5z" />
<glyph unicode="r" horiz-adv-x="645" d="M-20 0h126l119 553q16 74 48 143.5t81 123.5t116 87t153 35q18 0 36.5 -1t36.5 -1l29 129q-8 2 -16 2h-19h-35q-141 0 -231 -71.5t-152 -186.5h-4l54 244h-117z" />
<glyph unicode="s" horiz-adv-x="985" d="M0 344v-22q0 -86 29 -149q33 -71 88 -116t127.5 -65.5t150.5 -20.5q76 0 152 16.5t137 54.5t99 99.5t38 151.5q0 74 -33.5 123t-84 84t-110.5 58l-116 46q-45 18 -85 36.5t-70.5 41.5t-49 51.5t-18.5 65.5q0 55 25.5 90t63.5 54.5t84 27.5t89 8q53 0 100.5 -13.5t81 -42 t52.5 -71.5q15 -35 15 -83q0 -11 -1 -21h129v12q0 84 -26 144q-28 65 -78 106t-119.5 59t-153.5 18q-63 0 -133 -16t-127 -51t-94 -89t-37 -132q0 -66 24.5 -112t64.5 -80t91 -57.5t103 -43.5l102 -40q51 -19 91 -45t65.5 -60.5t25.5 -88.5q0 -51 -25.5 -88t-64.5 -60.5 t-86 -34.5t-90 -11q-55 0 -109.5 12t-96.5 43t-67.5 82t-25.5 129h-127z" />
<glyph unicode="t" horiz-adv-x="606" d="M63 948h191l-145 -700q-8 -35 -11.5 -63.5t-3.5 -45.5q0 -47 16.5 -76.5t44 -46t62.5 -21.5t72 -5q33 0 65.5 2t65.5 6l22 111q-76 -12 -151 -13q-37 0 -52.5 22.5t-15.5 51.5q0 25 3 44t12 56l145 678h215l20 109h-210l67 319h-129l-67 -319h-191z" />
<glyph unicode="u" horiz-adv-x="1099" d="M41 254q0 -76 23.5 -130t66.5 -88t101.5 -49.5t127.5 -15.5q119 0 218.5 63.5t158.5 158.5h4l-36 -193h118l228 1057h-129l-117 -543q-23 -100 -64 -181t-95 -137.5t-118.5 -87t-136.5 -30.5q-43 0 -83 10t-70.5 32.5t-49 59.5t-18.5 88q0 27 4 54.5t10 52.5l148 682 h-129l-146 -678q-16 -82 -16 -125z" />
<glyph unicode="v" horiz-adv-x="948" d="M72 1057l166 -1057h139l596 1057h-142l-495 -912h-4l-125 912h-135z" />
<glyph unicode="w" horiz-adv-x="1517" d="M61 1057l123 -1057h142l434 887h4l76 -887h139l555 1057h-137l-449 -893h-4l-72 893h-151l-436 -901h-4l-84 901h-136z" />
<glyph unicode="x" horiz-adv-x="948" d="M-117 0h152l405 461l226 -461h147l-281 545l465 512h-155l-365 -416l-192 416h-148l248 -500z" />
<glyph unicode="y" horiz-adv-x="948" d="M-111 -379q29 -2 56.5 -6t54.5 -4q174 0 256 141l752 1305h-140l-487 -897h-4l-152 897h-135l195 -1057l-97 -166q-25 -41 -65.5 -78t-99.5 -37q-53 0 -109 7z" />
<glyph unicode="z" horiz-adv-x="872" d="M-117 0h836l22 109h-678l822 845l22 103h-794l-23 -109h631l-815 -844z" />
<glyph unicode="{" horiz-adv-x="681" d="M119 496q57 0 79.5 -44t22.5 -112q0 -72 -22 -172l-64 -301q-10 -51 -10 -82q0 -86 49 -130t109 -44h82l22 108h-53q-27 0 -43.5 9.5t-24.5 22.5t-10 29.5t-2 29.5q0 16 8 54l19 91l55 262q6 33 10 61.5t4 55.5q0 51 -11 90t-25.5 65.5t-29 41t-20.5 18.5v4q12 6 41 26.5 t62.5 60.5t65.5 100.5t48 144.5l60 289q14 72 30.5 113.5t35 63t39 27.5t42.5 6h47l23 109h-103q-86 0 -148.5 -69.5t-84.5 -186.5l-64 -305q-12 -61 -30.5 -120.5t-45 -106t-61.5 -74t-80 -27.5z" />
<glyph unicode="|" horiz-adv-x="454" d="M174 -436h109v2046h-109v-2046z" />
<glyph unicode="}" horiz-adv-x="681" d="M-123 -389h103q86 0 147 69.5t84 186.5l63 303q12 61 31 120.5t45.5 105.5t61 74t80.5 28l22 108q-57 0 -79.5 44t-22.5 112q0 72 22 172l64 303q10 51 10 82q0 86 -49 130t-109 44h-82l-22 -109h53q29 0 44 -9t23.5 -22.5t10.5 -29.5t2 -29q0 -16 -8.5 -54t-18.5 -91 l-55 -264q-6 -33 -10 -61.5t-4 -55.5q0 -51 11 -90t25.5 -65.5t28.5 -41t21 -18.5v-4q-12 -6 -41 -26.5t-63 -60.5t-65.5 -100.5t-47.5 -144.5l-60 -287q-14 -72 -30.5 -113.5t-35 -63t-39 -28t-40.5 -6.5h-47z" />
<glyph unicode="~" horiz-adv-x="1228" d="M141 461l74 -74q25 53 64.5 97t107.5 44q59 0 112.5 -20.5t106.5 -44.5q53 -27 108.5 -47.5t116.5 -20.5q47 0 85 15.5t69 40t55.5 56.5t46.5 64l-73 74q-35 -53 -77 -97t-103 -44q-39 0 -90.5 20.5t-110.5 46.5q-57 25 -117.5 45.5t-118.5 20.5q-51 0 -91 -15.5 t-71.5 -40t-54.5 -56t-39 -64.5z" />
<glyph unicode="&#xa1;" horiz-adv-x="569" d="M-2 -389h135l94 455l111 641h-76l-172 -637zM244 840h172l49 217h-174z" />
<glyph unicode="&#xa2;" d="M74 406q0 -174 83 -290t242 -136l-47 -218h80l45 209h4q193 0 313.5 93.5t180.5 277.5h-129q-41 -117 -128 -189.5t-216 -74.5l192 901q100 -10 164 -76q56 -58 56 -151q0 -12 -1 -25h129q0 7 1 14q0 156 -88 239q-91 87 -238 103l39 183h-78l-39 -179 q-135 -2 -239.5 -62t-177 -157.5t-110.5 -218t-38 -243.5zM203 406q0 98 25.5 195t75.5 178t128 135.5t182 64.5l-192 -893q-111 23 -165 110t-54 210z" />
<glyph unicode="&#xa3;" d="M-6 86l47 -111q61 33 119.5 55.5t132.5 22.5q49 0 97 -12t95 -28.5t91.5 -29t87.5 -12.5q104 0 180 27t151 98l-49 103q-59 -57 -115.5 -89t-134.5 -32q-41 0 -85 13t-89 30q-43 16 -85 28.5t-79 12.5q-115 0 -215 -47l-4 4l92 81q47 42 85 90t62.5 103.5t24.5 118.5 q0 41 -7 81t-17 79h293l12 69h-324q-53 135 -53 277q0 96 30 164.5t80 113.5t117.5 66.5t141.5 21.5q78 0 137 -27.5t98 -76.5t56 -116q12 -48 12 -102q0 -20 -2 -42h129q2 24 2 47q0 78 -22 144q-28 87 -86 149.5t-143 97.5t-189 35q-100 0 -189.5 -32t-156 -94 t-105.5 -152.5t-39 -206.5q0 -70 15.5 -135.5t37.5 -131.5h-143l-14 -69h178q8 -37 15 -76t7 -78q0 -70 -25.5 -131t-65.5 -114.5t-90 -99.5z" />
<glyph unicode="&#xa4;" d="M61 279l78 -78l113 112q63 -53 144 -82.5t173.5 -29.5t171 29.5t144.5 84.5l114 -114l78 78l-112 112q53 66 82.5 145.5t29.5 172t-29.5 172.5t-82.5 145l112 113l-78 78l-112 -113q-66 53 -145.5 83t-172 30t-172.5 -30t-145 -83l-113 113l-78 -78l113 -113 q-53 -66 -83 -145.5t-30 -171.5q0 -182 115 -316zM190 708.5q0 77.5 30 147.5t81 121t121 80.5t147.5 29.5t147 -29.5t121 -80.5t81 -121t29.5 -147.5t-29.5 -147t-81 -121t-121 -81t-147 -29.5t-147.5 29.5t-121 81t-81 121t-30 147z" />
<glyph unicode="&#xa5;" d="M172 1462l285 -747h-205l-21 -92h263l6 -19l-33 -151h-270l-21 -93h270l-79 -360h129l77 360h299l21 93h-299l31 137l24 33h279l20 92h-227l575 747h-153l-561 -747l-279 747h-131z" />
<glyph unicode="&#xa6;" horiz-adv-x="454" d="M174 -180h109v510h-109v-510zM174 842h109v512h-109v-512z" />
<glyph unicode="&#xa7;" d="M20 27q-1 -16 -1 -32q0 -62 20 -117q25 -69 73 -119t117.5 -77.5t151.5 -27.5q70 0 136.5 18.5t119.5 55t86 94t33 135.5q0 47 -18.5 91t-47.5 83q131 16 212 100t81 220q0 74 -39 141t-96 130.5t-125 123t-125 116t-96 112.5t-39 114q0 55 21.5 93t54 61.5t73.5 32.5 t78 9q59 0 102.5 -18t70 -52t38.5 -80t12 -99h129q0 8 1 15q0 177 -95 258q-98 85 -262 85q-72 0 -136.5 -20.5t-112.5 -59.5t-75.5 -94t-27.5 -125q0 -41 15.5 -82t37.5 -76q-61 -8 -114.5 -33.5t-93.5 -65.5t-63.5 -92t-23.5 -116q0 -59 23.5 -113.5t61.5 -105.5t86 -100 l97 -97l102 -97q48 -46 85 -91t58.5 -90t21.5 -94q0 -43 -20.5 -76t-53.5 -56.5t-73 -35t-81 -11.5q-59 0 -108 19.5t-83 54.5t-49 83q-11 34 -11 75q0 16 2 33h-130zM221 729q0 49 20.5 90t52.5 71t69.5 46t72.5 16q18 -20 46 -47l63 -58l71 -67l74 -71q70 -70 117 -142.5 t47 -138.5q0 -94 -65.5 -150.5t-153.5 -68.5q-27 29 -90 92l-137 137q-37 37 -71 76t-59.5 77t-41 72.5t-15.5 65.5z" />
<glyph unicode="&#xa8;" horiz-adv-x="378" d="M76 1231h129l41 209h-131zM401 1231h129l41 209h-131z" />
<glyph unicode="&#xa9;" horiz-adv-x="1638" d="M57 731q0 -162 58.5 -300t161 -240.5t241.5 -161t301 -58.5t301.5 58.5t241.5 161t160.5 240.5t58.5 300q0 160 -58.5 299t-160.5 242.5t-241.5 162t-301.5 58.5t-301 -58.5t-241.5 -162t-161 -242.5t-58.5 -299zM176 731q0 137 48 256t134 207t204 139t257 51 q137 0 255 -51t204 -139t135 -207t49 -256t-49 -256t-135 -207t-204 -139t-255 -51q-139 0 -257 51t-204 139t-134 207t-48 256zM393 731q0 -100 31 -186t87 -149.5t139 -98.5t188 -35q72 0 136 20.5t115.5 59.5t84 97.5t43.5 131.5h-105q-18 -92 -89 -154.5t-183 -62.5 q-82 0 -145.5 29t-106.5 80t-64.5 119.5t-21.5 148.5t21.5 148.5t64.5 120t106.5 80t145.5 28.5q113 -2 183.5 -63.5t88.5 -153.5h105q-10 74 -43 132t-84.5 97t-116 59.5t-135.5 20.5q-104 0 -187.5 -35t-139.5 -98t-87 -148.5t-31 -187.5z" />
<glyph unicode="&#xaa;" horiz-adv-x="636" d="M49 940q0 -104 63.5 -145t168.5 -41q72 0 137 31.5t100 93.5h6q-6 -20 -6 -35q0 -33 19.5 -52.5t56.5 -19.5t68 6l12 76q-6 -2 -17 -2h-16q-16 0 -29.5 3t-13.5 24q0 8 6 33l14 61l18 74l17 71q2 6 7.5 26.5t10.5 46.5t9 53.5t4 49.5q0 45 -23.5 75t-59.5 46.5t-78 23.5 t-77 7q-121 0 -203.5 -52.5t-99.5 -166.5h88q14 78 75 108.5t147 30.5q20 0 43.5 -4t44 -13.5t34 -27t13.5 -51.5q0 -45 -21 -68q-23 -25 -62.5 -34t-95 -11t-120.5 -8q-45 -8 -89 -21.5t-77 -37t-53.5 -59.5t-20.5 -91zM145 940q0 49 28 75.5t69 41t87 18.5t85 8l37.5 4.5 t43 5.5t40 9t26.5 18l4 -4l2 2l-26 -100q-20 -86 -81 -135t-165 -49q-57 0 -103.5 25.5t-46.5 80.5z" />
<glyph unicode="&#xab;" horiz-adv-x="872" d="M102 526l217 -286l25 129l-154 209l238 172l31 139l-326 -232zM430 526l217 -286l25 129l-154 209l238 172l30 139l-325 -232z" />
<glyph unicode="&#xac;" horiz-adv-x="1228" d="M100 666h922v-439h108v547h-1030v-108z" />
<glyph unicode="&#xad;" horiz-adv-x="757" d="M78 504l24 119h514l-24 -119h-514z" />
<glyph unicode="&#xae;" horiz-adv-x="1638" d="M57 731q0 -162 58.5 -300t161 -240.5t241.5 -161t301 -58.5t301.5 58.5t241.5 161t160.5 240.5t58.5 300q0 160 -58.5 299t-160.5 242.5t-241.5 162t-301.5 58.5t-301 -58.5t-241.5 -162t-161 -242.5t-58.5 -299zM176 731q0 137 48 256t134 207t204 139t257 51 q137 0 255 -51t204 -139t135 -207t49 -256t-49 -256t-135 -207t-204 -139t-255 -51q-139 0 -257 51t-204 139t-134 207t-48 256zM543 291h108v391h183l247 -391h127l-262 391q45 8 85 25.5t71 47t48 72.5t17 101q0 119 -68.5 181t-217.5 62h-338v-880zM651 774v305h199 q41 0 78 -6t66.5 -23.5t47 -46t17.5 -75.5q0 -55 -22.5 -87t-59.5 -46.5t-85 -17.5t-97 -3h-144z" />
<glyph unicode="&#xaf;" horiz-adv-x="378" d="M57 1284h525l16 92h-524z" />
<glyph unicode="&#xb0;" horiz-adv-x="819" d="M240 1151q0 -61 22.5 -115.5t62.5 -94.5t94 -62.5t115.5 -22.5t114.5 22.5t93 62.5t63.5 94.5t23.5 115.5t-23.5 114.5t-63.5 93.5t-93 63.5t-114.5 23.5t-115.5 -23.5t-94 -63.5t-62.5 -93.5t-22.5 -114.5zM319 1151q0 45 16.5 84t46.5 68.5t68.5 46t84 16.5t84 -16.5 t68.5 -46t46.5 -68.5t16.5 -84t-16.5 -84t-46.5 -68.5t-68.5 -46t-83.5 -16.5q-92 0 -154 61.5t-62 153.5z" />
<glyph unicode="&#xb1;" horiz-adv-x="1228" d="M100 0h1030v109h-1030v-109zM102 553h459v-369h109v369h460v109h-460v368h-109v-368h-459v-109z" />
<glyph unicode="&#xb2;" horiz-adv-x="681" d="M23 561h602l14 80h-504q6 41 40 75t82 64.5t105.5 58t108.5 56.5q53 27 102.5 57.5t86 68.5t59 85t22.5 108q-8 117 -88 174.5t-190 57.5q-70 0 -129.5 -22.5t-102.5 -62.5t-68.5 -96.5t-27.5 -123.5h96q2 45 18.5 86t45.5 71.5t69.5 49t92.5 18.5q74 0 131 -37t57 -112 q0 -57 -25.5 -99.5t-68.5 -76t-97 -63.5l-112 -60q-57 -29 -113.5 -62t-100.5 -75t-72.5 -95t-32.5 -125z" />
<glyph unicode="&#xb3;" horiz-adv-x="681" d="M49 846v-19q0 -59 11 -107q13 -56 46 -95t87.5 -60.5t136.5 -21.5q72 0 136 19.5t112.5 56t76 91t27.5 124.5q0 66 -35 113.5t-102 64.5v4q86 12 140 68.5t54 138.5q0 57 -21.5 99t-58 69.5t-87 41t-105.5 13.5q-141 0 -217 -74t-100 -205h83q16 92 72.5 145.5 t157.5 53.5q72 0 126 -37t54 -108q0 -51 -21.5 -83t-56.5 -50.5t-78 -24.5t-86 -6h-53l-14 -80h45q41 0 79 -8t66.5 -25.5t45 -45.5t16.5 -69q0 -45 -20.5 -82.5t-54.5 -65.5t-80 -43t-97 -15q-117 0 -162 59q-40 52 -40 139q0 12 1 25h-84z" />
<glyph unicode="&#xb4;" horiz-adv-x="378" d="M172 1198h109l294 295h-165z" />
<glyph unicode="&#xb5;" horiz-adv-x="1099" d="M-102 -389h122l93 442q41 -43 105.5 -62.5t141.5 -19.5q119 0 218.5 63.5t158.5 158.5h4l-36 -193h118l228 1057h-129l-117 -543q-23 -100 -64 -181t-95 -137.5t-118.5 -87t-136.5 -30.5q-43 0 -83 10t-70.5 32.5t-49 59.5t-18.5 88q0 27 4 54.5t10 52.5l148 682h-129z " />
<glyph unicode="&#xb6;" horiz-adv-x="1228" d="M152 1061q-8 -39 -8 -75q0 -39 9 -76q17 -71 63 -124t116.5 -83.5t161.5 -30.5l-215 -1032h108l361 1732h260l-361 -1732h109l379 1822h-445q-217 0 -357 -102t-181 -299z" />
<glyph unicode="&#xb7;" horiz-adv-x="569" d="M145 639q0 -47 35 -81t82 -34q45 0 79 36t34 79q0 47 -34 81t-81 34t-81 -34t-34 -81z" />
<glyph unicode="&#xb8;" horiz-adv-x="378" d="M-172 -371q47 -23 91 -34t104 -11q37 0 75.5 10.5t70.5 30t52.5 51t20.5 74.5q0 74 -45 107.5t-107 33.5q-29 0 -44 -2t-30 -6l-4 4l119 125h-76l-147 -172l33 -37q37 18 77 19q43 0 77 -19.5t34 -64.5q0 -49 -37 -66.5t-78 -17.5q-47 0 -78.5 8t-78.5 27z" />
<glyph unicode="&#xb9;" horiz-adv-x="681" d="M221 1194q47 4 120 18.5t134 51.5l-162 -703h99l198 866h-78q-53 -78 -131.5 -110.5t-160.5 -42.5z" />
<glyph unicode="&#xba;" horiz-adv-x="684" d="M74 1028q0 -129 70.5 -201.5t211.5 -72.5q98 0 171 35.5t122 96t72.5 139.5t23.5 163q0 125 -74.5 191.5t-203.5 66.5q-94 0 -168 -35t-124 -92t-75.5 -133t-25.5 -158zM170 1036q0 53 18.5 111.5t54.5 107t88 80t120 31.5q98 0 148 -54.5t50 -140.5q0 -53 -17.5 -112.5 t-53 -109.5t-87 -82.5t-118.5 -32.5q-104 0 -153.5 55t-49.5 147z" />
<glyph unicode="&#xbb;" horiz-adv-x="872" d="M31 240l325 231l31 131l-217 287l-25 -129l154 -209l-238 -172zM358 240l326 231l31 131l-217 287l-25 -129l154 -209l-238 -172z" />
<glyph unicode="&#xbc;" horiz-adv-x="1708" d="M221 1194q47 4 120 18.5t134 51.5l-162 -703h99l198 866h-78q-53 -78 -131.5 -110.5t-160.5 -42.5zM315 -68h109l909 1553h-108zM911 203h422l-47 -203h96l48 203h133l14 80h-129l133 577h-92l-563 -569zM1028 283l418 434l4 -4l-100 -430h-322z" />
<glyph unicode="&#xbd;" horiz-adv-x="1708" d="M170 1194q47 4 119.5 18.5t134.5 51.5l-162 -703h98l199 866h-78q-53 -78 -132 -110.5t-161 -42.5zM266 -68h109l909 1553h-108zM918 0h602l14 80h-504q6 41 40 74.5t82 64.5t105.5 58.5t108.5 56.5q53 27 102.5 57.5t86 68.5t59 85t22.5 108q-8 117 -88 174.5t-190 57.5 q-70 0 -129.5 -22.5t-102.5 -62.5t-68.5 -96.5t-27.5 -123.5h96q2 45 18.5 86t45.5 71.5t69.5 49t92.5 18.5q74 0 131 -37t57 -113q0 -57 -25.5 -99t-68.5 -76t-97 -63l-112 -61q-57 -29 -113.5 -61.5t-100.5 -74.5t-72.5 -95t-32.5 -125z" />
<glyph unicode="&#xbe;" horiz-adv-x="1708" d="M49 846v-19q0 -59 11 -107q13 -56 46 -95t87.5 -60.5t136.5 -21.5q72 0 136 19.5t112.5 56t76 91t27.5 124.5q0 66 -35 113.5t-102 64.5v4q86 12 140 68.5t54 138.5q0 57 -21.5 99t-58 69.5t-87 41t-105.5 13.5q-141 0 -217 -74t-100 -205h83q16 92 72.5 145.5 t157.5 53.5q72 0 126 -37t54 -108q0 -51 -21.5 -83t-56.5 -50.5t-78 -24.5t-86 -6h-53l-14 -80h45q41 0 79 -8t66.5 -25.5t45 -45.5t16.5 -69q0 -45 -20.5 -82.5t-54.5 -65.5t-80 -43t-97 -15q-117 0 -162 59q-40 52 -40 139q0 12 1 25h-84zM387 -68h109l909 1553h-109z M911 203h422l-47 -203h96l48 203h133l14 80h-129l133 577h-92l-563 -569zM1028 283l418 434l4 -4l-100 -430h-322z" />
<glyph unicode="&#xbf;" horiz-adv-x="1099" d="M-37 -76q0 -86 33 -150.5t87 -107.5t126 -64.5t149 -21.5q111 0 199 34t151.5 97.5t99.5 152.5t40 197h-129q-6 -78 -31.5 -145.5t-71 -118.5t-109 -79.5t-142.5 -28.5q-123 0 -199 64.5t-76 189.5q0 53 20.5 99t53.5 87t75 75t85 62l118 89q51 40 88 86t60.5 106.5 t36.5 150.5h-129q-12 -59 -26.5 -104t-37 -82t-57.5 -69.5t-88 -65.5l-123 -88t-105 -98.5t-71.5 -118t-26.5 -148.5zM504 840h172l49 217h-174z" />
<glyph unicode="&#xc0;" horiz-adv-x="1290" d="M-152 0h154l270 455h668l74 -455h145l-266 1462h-152zM342 573l449 770h4l125 -770h-578zM594 1858l217 -295h102l-168 295h-151z" />
<glyph unicode="&#xc1;" horiz-adv-x="1290" d="M-152 0h154l270 455h668l74 -455h145l-266 1462h-152zM342 573l449 770h4l125 -770h-578zM666 1563h108l295 295h-166z" />
<glyph unicode="&#xc2;" horiz-adv-x="1290" d="M-152 0h154l270 455h668l74 -455h145l-266 1462h-152zM342 573l449 770h4l125 -770h-578zM487 1563h125l207 217l135 -217h117l-176 295h-129z" />
<glyph unicode="&#xc3;" horiz-adv-x="1290" d="M-152 0h154l270 455h668l74 -455h145l-266 1462h-152zM342 573l449 770h4l125 -770h-578zM485 1593h84q4 18 12.5 38t21.5 37.5t29.5 28.5t35.5 11q29 0 61 -18l70 -41q37 -20 75.5 -38t79.5 -18t71 19.5t52 50.5q23 29 37 65.5t23 71.5h-82q-4 -14 -13.5 -34.5 t-21.5 -38t-26.5 -29.5t-30.5 -12q-37 0 -73 19t-71 42q-35 20 -69.5 36.5t-73.5 16.5q-43 0 -74 -18.5t-53.5 -48t-38 -66.5t-25.5 -74z" />
<glyph unicode="&#xc4;" horiz-adv-x="1290" d="M-152 0h154l270 455h668l74 -455h145l-266 1462h-152zM342 573l449 770h4l125 -770h-578zM569 1595h129l41 209h-131zM895 1595h129l41 209h-131z" />
<glyph unicode="&#xc5;" horiz-adv-x="1290" d="M-152 0h154l270 455h668l74 -455h145l-266 1462h-152zM342 573l449 770h4l125 -770h-578zM616 1745q0 -41 16.5 -79t44.5 -65.5t64.5 -44t77.5 -16.5q43 0 81 16.5t65.5 44t43 64.5t15.5 80q0 41 -16.5 78t-44 64.5t-65.5 44t-79 16.5t-77.5 -16.5t-64.5 -44t-44.5 -64.5 t-16.5 -78zM686 1745q0 53 40 93t93 40q27 0 51.5 -11.5t43 -29.5t29.5 -41.5t11 -50.5q0 -53 -41 -94t-94 -41q-27 0 -50.5 11t-41.5 29.5t-29.5 43t-11.5 51.5z" />
<glyph unicode="&#xc6;" horiz-adv-x="1820" d="M-164 0h164l338 463h522l-100 -463h895l26 119h-755l125 577h684l26 119h-686l115 528h731l27 119h-1020zM426 582l563 761h62l-166 -761h-459z" />
<glyph unicode="&#xc7;" horiz-adv-x="1441" d="M70 592q0 -123 32.5 -228.5t95 -185.5t153.5 -130t208 -64l-123 -144l33 -37q37 18 80 18.5t76.5 -19t33.5 -64.5q0 -49 -36.5 -66.5t-77.5 -17.5q-49 0 -81 8t-79 27l-29 -60q47 -23 91.5 -34t105.5 -11q37 0 76 10.5t70.5 30t52 51t20.5 74.5q0 74 -45 107.5t-106 33.5 q-29 0 -44.5 -2t-29.5 -6l-4 4l80 86q8 -2 22 -2h25q141 0 251.5 40t192.5 111t135.5 168t77.5 210h-139q-27 -94 -75 -171t-112.5 -130.5t-143.5 -82t-165 -28.5q-113 0 -203 35t-152.5 99.5t-95 154.5t-32.5 203q0 150 40 292t122 253.5t203.5 180t287.5 68.5 q184 0 294 -94t114 -281h139q-2 123 -44 215.5t-114.5 154t-172 93t-214.5 31.5q-188 0 -335.5 -75t-250 -200.5t-155.5 -287.5t-53 -338z" />
<glyph unicode="&#xc8;" horiz-adv-x="1175" d="M10 0h1000l26 119h-860l123 577h782l27 119h-784l112 528h840l27 119h-981zM629 1858l217 -295h102l-168 295h-151z" />
<glyph unicode="&#xc9;" horiz-adv-x="1175" d="M10 0h1000l26 119h-860l123 577h782l27 119h-784l112 528h840l27 119h-981zM664 1563h108l295 295h-166z" />
<glyph unicode="&#xca;" horiz-adv-x="1175" d="M10 0h1000l26 119h-860l123 577h782l27 119h-784l112 528h840l27 119h-981zM485 1563h125l207 217l135 -217h117l-176 295h-129z" />
<glyph unicode="&#xcb;" horiz-adv-x="1175" d="M10 0h1000l26 119h-860l123 577h782l27 119h-784l112 528h840l27 119h-981zM567 1595h129l41 209h-131zM893 1595h129l41 209h-131z" />
<glyph unicode="&#xcc;" horiz-adv-x="454" d="M10 0h140l309 1462h-140zM213 1858l217 -295h102l-167 295h-152z" />
<glyph unicode="&#xcd;" horiz-adv-x="454" d="M10 0h140l309 1462h-140zM248 1563h108l295 295h-166z" />
<glyph unicode="&#xce;" horiz-adv-x="454" d="M10 0h140l309 1462h-140zM70 1563h125l206 217l136 -217h116l-176 295h-129z" />
<glyph unicode="&#xcf;" horiz-adv-x="454" d="M10 0h140l309 1462h-140zM152 1595h129l41 209h-132zM477 1595h129l41 209h-131z" />
<glyph unicode="&#xd0;" horiz-adv-x="1402" d="M4 713h162l-156 -713h545q197 0 346.5 71.5t250.5 193.5t152.5 281t51.5 331q0 133 -28 240.5t-93.5 184t-172 118.5t-263.5 42h-471l-142 -657h-161zM176 119l129 594h436l21 92h-436l116 538h334q440 0 441 -440q0 -152 -39 -294t-123 -251.5t-214 -175.5 q-126 -64 -302 -63h-11h-352z" />
<glyph unicode="&#xd1;" horiz-adv-x="1441" d="M0 0h133l273 1307h4l583 -1307h154l319 1462h-135l-270 -1306h-4l-584 1306h-158zM598 1593h84q4 18 12 38t21.5 37.5t30 28.5t34.5 11q29 0 62 -18l69 -41q37 -20 76 -38t80 -18t70.5 19.5t52.5 50.5q23 29 37 65.5t22 71.5h-82q-4 -14 -13 -34.5t-21.5 -38t-26.5 -29.5 t-31 -12q-37 0 -72.5 19t-70.5 42q-35 20 -70 36.5t-74 16.5q-43 0 -73.5 -18.5t-53 -48t-38 -66.5t-25.5 -74z" />
<glyph unicode="&#xd2;" horiz-adv-x="1517" d="M70 592q0 -139 40 -254t116.5 -196t188 -126t255.5 -45q195 0 343 75t250.5 201t154.5 290.5t52 343.5q0 139 -42 251.5t-120.5 192.5t-191 124t-252.5 44q-188 0 -335.5 -75t-250 -200.5t-155.5 -287.5t-53 -338zM209 580q0 150 40 292t122 253.5t203.5 180t287.5 68.5 q121 0 209 -40t146.5 -110.5t86 -166.5t27.5 -211q0 -135 -44 -271.5t-127 -244t-200.5 -175t-267.5 -67.5q-113 0 -203 35t-152.5 99.5t-95 154.5t-32.5 203zM707 1858l217 -295h102l-168 295h-151z" />
<glyph unicode="&#xd3;" horiz-adv-x="1517" d="M70 592q0 -139 40 -254t116.5 -196t188 -126t255.5 -45q195 0 343 75t250.5 201t154.5 290.5t52 343.5q0 139 -42 251.5t-120.5 192.5t-191 124t-252.5 44q-188 0 -335.5 -75t-250 -200.5t-155.5 -287.5t-53 -338zM209 580q0 150 40 292t122 253.5t203.5 180t287.5 68.5 q121 0 209 -40t146.5 -110.5t86 -166.5t27.5 -211q0 -135 -44 -271.5t-127 -244t-200.5 -175t-267.5 -67.5q-113 0 -203 35t-152.5 99.5t-95 154.5t-32.5 203zM741 1563h109l295 295h-166z" />
<glyph unicode="&#xd4;" horiz-adv-x="1517" d="M70 592q0 -139 40 -254t116.5 -196t188 -126t255.5 -45q195 0 343 75t250.5 201t154.5 290.5t52 343.5q0 139 -42 251.5t-120.5 192.5t-191 124t-252.5 44q-188 0 -335.5 -75t-250 -200.5t-155.5 -287.5t-53 -338zM209 580q0 150 40 292t122 253.5t203.5 180t287.5 68.5 q121 0 209 -40t146.5 -110.5t86 -166.5t27.5 -211q0 -135 -44 -271.5t-127 -244t-200.5 -175t-267.5 -67.5q-113 0 -203 35t-152.5 99.5t-95 154.5t-32.5 203zM563 1563h125l207 217l135 -217h117l-176 295h-129z" />
<glyph unicode="&#xd5;" horiz-adv-x="1517" d="M70 592q0 -139 40 -254t116.5 -196t188 -126t255.5 -45q195 0 343 75t250.5 201t154.5 290.5t52 343.5q0 139 -42 251.5t-120.5 192.5t-191 124t-252.5 44q-188 0 -335.5 -75t-250 -200.5t-155.5 -287.5t-53 -338zM209 580q0 150 40 292t122 253.5t203.5 180t287.5 68.5 q121 0 209 -40t146.5 -110.5t86 -166.5t27.5 -211q0 -135 -44 -271.5t-127 -244t-200.5 -175t-267.5 -67.5q-113 0 -203 35t-152.5 99.5t-95 154.5t-32.5 203zM561 1593h84q4 18 12.5 38t21.5 37.5t29.5 28.5t34.5 11q29 0 62 -18l69 -41q37 -20 76 -38t80 -18t70.5 19.5 t52.5 50.5q23 29 37 65.5t22 71.5h-82q-4 -14 -13 -34.5t-21.5 -38t-26.5 -29.5t-31 -12q-37 0 -72.5 19t-70.5 42q-35 20 -69.5 36.5t-73.5 16.5q-43 0 -74 -18.5t-53.5 -48t-38 -66.5t-25.5 -74z" />
<glyph unicode="&#xd6;" horiz-adv-x="1517" d="M70 592q0 -139 40 -254t116.5 -196t188 -126t255.5 -45q195 0 343 75t250.5 201t154.5 290.5t52 343.5q0 139 -42 251.5t-120.5 192.5t-191 124t-252.5 44q-188 0 -335.5 -75t-250 -200.5t-155.5 -287.5t-53 -338zM209 580q0 150 40 292t122 253.5t203.5 180t287.5 68.5 q121 0 209 -40t146.5 -110.5t86 -166.5t27.5 -211q0 -135 -44 -271.5t-127 -244t-200.5 -175t-267.5 -67.5q-113 0 -203 35t-152.5 99.5t-95 154.5t-32.5 203zM645 1595h129l41 209h-131zM971 1595h129l41 209h-131z" />
<glyph unicode="&#xd7;" horiz-adv-x="1228" d="M152 127l75 -76l387 385l387 -385l76 76l-387 387l387 387l-76 76l-387 -387l-387 387l-75 -76l385 -387z" />
<glyph unicode="&#xd8;" horiz-adv-x="1517" d="M10 0l49 -53l181 184q78 -78 183 -119t247 -41q195 0 343 75t250.5 201t154.5 290.5t52 343.5q0 123 -32.5 223t-91.5 178l170 176l-52 60l-172 -181q-80 76 -186.5 116t-241.5 40q-188 0 -335.5 -75t-250 -200.5t-155.5 -287.5t-53 -338q0 -248 120 -406zM209 580 q0 150 40 292t122 253.5t203.5 180t287.5 68.5q113 0 197 -35.5t141 -97.5l-913 -954q-78 115 -78 293zM334 229l913 951q43 -68 63.5 -152t20.5 -182q0 -135 -44 -271.5t-127 -244t-200.5 -175t-267.5 -67.5q-117 0 -207 37.5t-151 103.5z" />
<glyph unicode="&#xd9;" horiz-adv-x="1441" d="M98 389q0 -115 45 -194.5t119 -129t167 -72t189 -22.5q250 0 413 117t216 375l209 999h-139l-207 -989q-39 -186 -156.5 -285.5t-316.5 -99.5q-88 0 -164 19.5t-129 59.5t-82 99q-25 52 -25 120q0 10 1 20q0 72 14 126l194 930h-139l-196 -954q-13 -70 -13 -119z M670 1858l217 -295h102l-168 295h-151z" />
<glyph unicode="&#xda;" horiz-adv-x="1441" d="M98 389q0 -115 45 -194.5t119 -129t167 -72t189 -22.5q250 0 413 117t216 375l209 999h-139l-207 -989q-39 -186 -156.5 -285.5t-316.5 -99.5q-88 0 -164 19.5t-129 59.5t-82 99q-25 52 -25 120q0 10 1 20q0 72 14 126l194 930h-139l-196 -954q-13 -70 -13 -119z M778 1563h109l295 295h-166z" />
<glyph unicode="&#xdb;" horiz-adv-x="1441" d="M98 389q0 -115 45 -194.5t119 -129t167 -72t189 -22.5q250 0 413 117t216 375l209 999h-139l-207 -989q-39 -186 -156.5 -285.5t-316.5 -99.5q-88 0 -164 19.5t-129 59.5t-82 99q-25 52 -25 120q0 10 1 20q0 72 14 126l194 930h-139l-196 -954q-13 -70 -13 -119z M600 1563h125l207 217l135 -217h117l-176 295h-129z" />
<glyph unicode="&#xdc;" horiz-adv-x="1441" d="M98 389q0 -115 45 -194.5t119 -129t167 -72t189 -22.5q250 0 413 117t216 375l209 999h-139l-207 -989q-39 -186 -156.5 -285.5t-316.5 -99.5q-88 0 -164 19.5t-129 59.5t-82 99q-25 52 -25 120q0 10 1 20q0 72 14 126l194 930h-139l-196 -954q-13 -70 -13 -119z M682 1595h129l41 209h-131zM1008 1595h129l41 209h-131z" />
<glyph unicode="&#xdd;" horiz-adv-x="1175" d="M135 1462l389 -858l-133 -604h141l130 590l733 872h-170l-613 -741l-329 741h-148zM571 1563h109l295 295h-166z" />
<glyph unicode="&#xde;" horiz-adv-x="1290" d="M10 0h140l81 387h517q111 0 202.5 32t158.5 92t104.5 149.5t37.5 201.5q0 84 -29.5 151.5t-82 114t-123 71t-154.5 24.5h-450l53 239h-139zM258 506l129 598h428q68 0 122 -13.5t93 -44t60.5 -81t21.5 -123.5q0 -80 -27.5 -142.5t-77 -105.5t-115 -65.5t-140.5 -22.5 h-494z" />
<glyph unicode="&#xdf;" horiz-adv-x="1062" d="M-20 0h126l236 1083q14 70 37.5 125.5t60.5 94t89.5 60t125.5 21.5q100 0 164 -57t64 -162q0 -82 -37 -140t-95.5 -95t-128.5 -53q-63 -15 -122 -15h-15l-24 -108q72 0 135 -10.5t111.5 -40t76 -81t27.5 -133t-31.5 -154.5t-87 -125t-128 -83t-154.5 -31q-23 0 -46.5 1 t-46.5 5l-22 -104q35 -6 67.5 -7t67.5 -1q109 0 202 41t161.5 112.5t107.5 167t39 201.5q0 119 -62.5 197.5t-179.5 103.5v4q68 8 125.5 40t99.5 79t65.5 108.5t23.5 131.5q0 84 -28 144t-77 98t-114.5 56.5t-141.5 18.5q-186 0 -289.5 -98.5t-142.5 -278.5z" />
<glyph unicode="&#xe0;" horiz-adv-x="1062" d="M-16 262q0 -78 25.5 -133t69.5 -90t105.5 -51.5t134.5 -16.5q111 0 211.5 50.5t155.5 142.5l4 -4q-2 -14 -3 -28.5t-1 -29.5q4 -113 113 -112q55 0 106 10l19 100q-14 -2 -25.5 -3t-26.5 -1q-23 0 -45 7.5t-22 35.5q0 25 4 49.5t12 63.5l22 97l31 147l20 81l21.5 94 t17.5 95t7 86q0 72 -37 117t-92 71.5t-119.5 36.5t-118.5 10q-84 0 -159.5 -20t-135 -62t-99.5 -108t-52 -156h129q10 66 40 112t75 73.5t100 40t117 12.5q37 0 77 -6t71.5 -22.5t53 -46.5t21.5 -77q0 -104 -31.5 -147t-95.5 -59q-58 -15 -136 -16h-10h-10q-81 0 -180 -15 q-72 -12 -137.5 -33.5t-116.5 -58.5t-80.5 -94.5t-29.5 -141.5zM111 268q0 84 43 130t106.5 70t136 31t131.5 11q25 2 59 4t66.5 8t62 17.5t46.5 29.5l4 -4l-41 -178q-31 -141 -127 -225t-252 -84q-45 0 -88 10t-75.5 33.5t-52 59.5t-19.5 87zM418 1493l217 -295h102 l-168 295h-151z" />
<glyph unicode="&#xe1;" horiz-adv-x="1062" d="M-16 262q0 -78 25.5 -133t69.5 -90t105.5 -51.5t134.5 -16.5q111 0 211.5 50.5t155.5 142.5l4 -4q-2 -14 -3 -28.5t-1 -29.5q4 -113 113 -112q55 0 106 10l19 100q-14 -2 -25.5 -3t-26.5 -1q-23 0 -45 7.5t-22 35.5q0 25 4 49.5t12 63.5l22 97l31 147l20 81l21.5 94 t17.5 95t7 86q0 72 -37 117t-92 71.5t-119.5 36.5t-118.5 10q-84 0 -159.5 -20t-135 -62t-99.5 -108t-52 -156h129q10 66 40 112t75 73.5t100 40t117 12.5q37 0 77 -6t71.5 -22.5t53 -46.5t21.5 -77q0 -104 -31.5 -147t-95.5 -59q-58 -15 -136 -16h-10h-10q-81 0 -180 -15 q-72 -12 -137.5 -33.5t-116.5 -58.5t-80.5 -94.5t-29.5 -141.5zM111 268q0 84 43 130t106.5 70t136 31t131.5 11q25 2 59 4t66.5 8t62 17.5t46.5 29.5l4 -4l-41 -178q-31 -141 -127 -225t-252 -84q-45 0 -88 10t-75.5 33.5t-52 59.5t-19.5 87zM514 1198h109l295 295h-166z " />
<glyph unicode="&#xe2;" horiz-adv-x="1062" d="M-16 262q0 -78 25.5 -133t69.5 -90t105.5 -51.5t134.5 -16.5q111 0 211.5 50.5t155.5 142.5l4 -4q-2 -14 -3 -28.5t-1 -29.5q4 -113 113 -112q55 0 106 10l19 100q-14 -2 -25.5 -3t-26.5 -1q-23 0 -45 7.5t-22 35.5q0 25 4 49.5t12 63.5l22 97l31 147l20 81l21.5 94 t17.5 95t7 86q0 72 -37 117t-92 71.5t-119.5 36.5t-118.5 10q-84 0 -159.5 -20t-135 -62t-99.5 -108t-52 -156h129q10 66 40 112t75 73.5t100 40t117 12.5q37 0 77 -6t71.5 -22.5t53 -46.5t21.5 -77q0 -104 -31.5 -147t-95.5 -59q-58 -15 -136 -16h-10h-10q-81 0 -180 -15 q-72 -12 -137.5 -33.5t-116.5 -58.5t-80.5 -94.5t-29.5 -141.5zM111 268q0 84 43 130t106.5 70t136 31t131.5 11q25 2 59 4t66.5 8t62 17.5t46.5 29.5l4 -4l-41 -178q-31 -141 -127 -225t-252 -84q-45 0 -88 10t-75.5 33.5t-52 59.5t-19.5 87zM336 1198h125l207 217 l135 -217h117l-177 295h-129z" />
<glyph unicode="&#xe3;" horiz-adv-x="1062" d="M-16 262q0 -78 25.5 -133t69.5 -90t105.5 -51.5t134.5 -16.5q111 0 211.5 50.5t155.5 142.5l4 -4q-2 -14 -3 -28.5t-1 -29.5q4 -113 113 -112q55 0 106 10l19 100q-14 -2 -25.5 -3t-26.5 -1q-23 0 -45 7.5t-22 35.5q0 25 4 49.5t12 63.5l22 97l31 147l20 81l21.5 94 t17.5 95t7 86q0 72 -37 117t-92 71.5t-119.5 36.5t-118.5 10q-84 0 -159.5 -20t-135 -62t-99.5 -108t-52 -156h129q10 66 40 112t75 73.5t100 40t117 12.5q37 0 77 -6t71.5 -22.5t53 -46t21.5 -77.5q0 -104 -31.5 -147t-95.5 -59q-58 -15 -136 -16h-10h-10q-81 0 -180 -15 q-72 -12 -137.5 -33.5t-116.5 -58.5t-80.5 -94.5t-29.5 -141.5zM111 268q0 84 43 130t106.5 70t136 31t131.5 11q25 2 59 4t66.5 8t62 17.5t46.5 29.5l4 -4l-41 -178q-31 -141 -127 -225t-252 -84q-45 0 -88 10t-75.5 33.5t-52 59.5t-19.5 87zM334 1229h84q4 18 12 37.5 t21.5 37t30 28.5t34.5 11q29 0 62 -18l69 -41q37 -20 76 -37.5t80 -17.5t70.5 19.5t52.5 49.5q23 29 37 66t22 72h-82q-4 -14 -13 -35t-21.5 -38t-27 -29.5t-30.5 -12.5q-37 0 -73 19.5t-70 41.5q-35 20 -70 37t-74 17q-43 0 -73.5 -18.5t-53 -48.5t-38 -66.5t-25.5 -73.5z " />
<glyph unicode="&#xe4;" horiz-adv-x="1062" d="M-16 262q0 -78 25.5 -133t69.5 -90t105.5 -51.5t134.5 -16.5q111 0 211.5 50.5t155.5 142.5l4 -4q-2 -14 -3 -28.5t-1 -29.5q4 -113 113 -112q55 0 106 10l19 100q-14 -2 -25.5 -3t-26.5 -1q-23 0 -45 7.5t-22 35.5q0 25 4 49.5t12 63.5l22 97l31 147l20 81l21.5 94 t17.5 95t7 86q0 72 -37 117t-92 71.5t-119.5 36.5t-118.5 10q-84 0 -159.5 -20t-135 -62t-99.5 -108t-52 -156h129q10 66 40 112t75 73.5t100 40t117 12.5q37 0 77 -6t71.5 -22.5t53 -46.5t21.5 -77q0 -104 -31.5 -147t-95.5 -59q-58 -15 -136 -16h-10h-10q-81 0 -180 -15 q-72 -12 -137.5 -33.5t-116.5 -58.5t-80.5 -94.5t-29.5 -141.5zM111 268q0 84 43 130t106.5 70t136 31t131.5 11q25 2 59 4t66.5 8t62 17.5t46.5 29.5l4 -4l-41 -178q-31 -141 -127 -225t-252 -84q-45 0 -88 10t-75.5 33.5t-52 59.5t-19.5 87zM418 1231h129l41 209h-131z M743 1231h129l41 209h-131z" />
<glyph unicode="&#xe5;" horiz-adv-x="1062" d="M-16 262q0 -78 25.5 -133t69.5 -90t105.5 -51.5t134.5 -16.5q111 0 211.5 50.5t155.5 142.5l4 -4q-2 -14 -3 -28.5t-1 -29.5q4 -113 113 -112q55 0 106 10l19 100q-14 -2 -25.5 -3t-26.5 -1q-23 0 -45 7.5t-22 35.5q0 25 4 49.5t12 63.5l22 97l31 147l20 81l21.5 94 t17.5 95t7 86q0 72 -37 117t-92 71.5t-119.5 36.5t-118.5 10q-84 0 -159.5 -20t-135 -62t-99.5 -108t-52 -156h129q10 66 40 112t75 73.5t100 40t117 12.5q37 0 77 -6t71.5 -22.5t53 -46.5t21.5 -77q0 -104 -31.5 -147t-95.5 -59q-58 -15 -136 -16h-10h-10q-81 0 -180 -15 q-72 -12 -137.5 -33.5t-116.5 -58.5t-80.5 -94.5t-29.5 -141.5zM111 268q0 84 43 130t106.5 70t136 31t131.5 11q25 2 59 4t66.5 8t62 17.5t46.5 29.5l4 -4l-41 -178q-31 -141 -127 -225t-252 -84q-45 0 -88 10t-75.5 33.5t-52 59.5t-19.5 87zM465 1380q0 -41 16.5 -78.5 t44 -65.5t64.5 -44t78 -16q43 0 80.5 16t65.5 44t43 64.5t15 79.5q0 41 -16 78t-44 64.5t-65.5 44t-78.5 16.5t-78 -16.5t-64.5 -44t-44 -64.5t-16.5 -78zM535 1380q0 53 39.5 93t93.5 40q27 0 51 -11t42.5 -29.5t30 -42t11.5 -50.5q0 -53 -41 -94t-94 -41q-27 0 -50.5 11.5 t-42 30t-29.5 42.5t-11 51z" />
<glyph unicode="&#xe6;" horiz-adv-x="1744" d="M-16 262q0 -78 25.5 -133t69.5 -90t105.5 -51.5t134.5 -16.5q160 0 273 67.5t164 211.5h4q8 -74 39.5 -126t79 -86t109 -50.5t128.5 -16.5q203 0 324 91.5t182 277.5h-129q-33 -123 -127 -192.5t-223 -69.5q-123 0 -205 73.5t-82 204.5q0 35 5 71t11 67h789 q10 41 15 82.5t5 80.5q0 96 -24.5 175t-72.5 135.5t-120.5 88t-169.5 31.5q-119 0 -218 -52t-161 -163q-14 66 -51 108t-85 65.5t-102 32.5t-104 9q-84 0 -159.5 -20t-135 -62t-99.5 -108t-52 -156h129q10 66 40 112t75 73.5t100 40t117 12.5q37 0 77 -6t71.5 -22.5 t53 -46.5t21.5 -77q0 -104 -31.5 -147t-95.5 -59q-58 -15 -136 -16h-10h-10q-81 0 -180 -15q-72 -12 -137.5 -33.5t-116.5 -58.5t-80.5 -94.5t-29.5 -141.5zM111 268q0 84 43 130t106.5 70t136 31t131.5 11q25 2 59 4t66.5 8t62 17.5t46.5 29.5l4 -4l-41 -178 q-31 -141 -127 -225t-252 -84q-45 0 -88 10t-76 33.5t-52 59.5t-19 87zM891 602q16 78 48 146.5t81 120t114.5 81t147.5 29.5q131 0 200.5 -81t69.5 -206v-45q0 -10 -1 -21.5t-3 -23.5h-657z" />
<glyph unicode="&#xe7;" horiz-adv-x="1062" d="M29 406q0 -180 85 -293t251 -136l-119 -137l33 -37q37 18 79.5 18.5t76.5 -19t34 -64.5q0 -49 -37 -66.5t-78 -17.5q-49 0 -80.5 8t-78.5 27l-29 -60q47 -23 91 -34t105 -11q37 0 76 10.5t71 30t52.5 51t20.5 74.5q0 74 -45 107.5t-107 33.5q-29 0 -44 -2t-30 -6l-4 4 l80 84h4q193 0 313.5 93.5t180.5 277.5h-129q-41 -117 -130 -190.5t-218 -73.5q-76 0 -131.5 24.5t-92 68.5t-54 104.5t-17.5 130.5q0 102 27.5 204.5t85 184.5t142.5 133t201 51q57 0 105.5 -17.5t82.5 -49t52 -78.5q15 -39 15 -86q0 -10 -1 -21h129q0 6 1 12q0 84 -27 148 q-29 68 -82 112.5t-127 66t-160 21.5q-135 0 -241.5 -60t-180.5 -156.5t-112.5 -219t-38.5 -245.5z" />
<glyph unicode="&#xe8;" horiz-adv-x="1062" d="M29 418q0 -209 109.5 -328t320.5 -119q190 0 309 94.5t172 274.5h-129q-37 -117 -127 -189.5t-219 -72.5q-78 0 -136.5 25.5t-96 69.5t-56 105.5t-18.5 133.5q0 45 6 82h827q6 47 8 92t2 90q0 92 -26.5 168t-78.5 130t-126 83.5t-170 29.5q-135 0 -241.5 -57 t-180.5 -151.5t-111.5 -214t-37.5 -246.5zM180 602q16 74 51 141.5t87.5 119.5t119 84t146.5 32q135 0 211.5 -80t76.5 -215q0 -20 -1 -39.5t-1 -42.5h-690zM418 1493l217 -295h102l-168 295h-151z" />
<glyph unicode="&#xe9;" horiz-adv-x="1062" d="M29 418q0 -209 109.5 -328t320.5 -119q190 0 309 94.5t172 274.5h-129q-37 -117 -127 -189.5t-219 -72.5q-78 0 -136.5 25.5t-96 69.5t-56 105.5t-18.5 133.5q0 45 6 82h827q6 47 8 92t2 90q0 92 -26.5 168t-78.5 130t-126 83.5t-170 29.5q-135 0 -241.5 -57 t-180.5 -151.5t-111.5 -214t-37.5 -246.5zM180 602q16 74 51 141.5t87.5 119.5t119 84t146.5 32q135 0 211.5 -80t76.5 -215q0 -20 -1 -39.5t-1 -42.5h-690zM514 1198h109l295 295h-166z" />
<glyph unicode="&#xea;" horiz-adv-x="1062" d="M29 418q0 -209 109.5 -328t320.5 -119q190 0 309 94.5t172 274.5h-129q-37 -117 -127 -189.5t-219 -72.5q-78 0 -136.5 25.5t-96 69.5t-56 105.5t-18.5 133.5q0 45 6 82h827q6 47 8 92t2 90q0 92 -26.5 168t-78.5 130t-126 83.5t-170 29.5q-135 0 -241.5 -57 t-180.5 -151.5t-111.5 -214t-37.5 -246.5zM180 602q16 74 51 141.5t87.5 119.5t119 84t146.5 32q135 0 211.5 -80t76.5 -215q0 -20 -1 -39.5t-1 -42.5h-690zM336 1198h125l207 217l135 -217h117l-177 295h-129z" />
<glyph unicode="&#xeb;" horiz-adv-x="1062" d="M29 418q0 -209 109.5 -328t320.5 -119q190 0 309 94.5t172 274.5h-129q-37 -117 -127 -189.5t-219 -72.5q-78 0 -136.5 25.5t-96 69.5t-56 105.5t-18.5 133.5q0 45 6 82h827q6 47 8 92t2 90q0 92 -26.5 168t-78.5 130t-126 83.5t-170 29.5q-135 0 -241.5 -57 t-180.5 -151.5t-111.5 -214t-37.5 -246.5zM180 602q16 74 51 141.5t87.5 119.5t119 84t146.5 32q135 0 211.5 -80t76.5 -215q0 -20 -1 -39.5t-1 -42.5h-690zM418 1231h129l41 209h-131zM743 1231h129l41 209h-131z" />
<glyph unicode="&#xec;" horiz-adv-x="378" d="M-20 0h126l228 1057h-129zM137 1493l217 -295h103l-168 295h-152z" />
<glyph unicode="&#xed;" horiz-adv-x="378" d="M-20 0h126l228 1057h-129zM172 1198h109l294 295h-165z" />
<glyph unicode="&#xee;" horiz-adv-x="378" d="M-20 0h126l228 1057h-129zM-4 1198h123l207 217l135 -217h117l-177 295h-129z" />
<glyph unicode="&#xef;" horiz-adv-x="378" d="M-20 0h126l228 1057h-129zM76 1231h129l41 209h-131zM401 1231h129l41 209h-131z" />
<glyph unicode="&#xf0;" d="M29 389q0 -193 108.5 -305.5t313.5 -112.5q158 0 268 62.5t181 167t104.5 237.5t37.5 275q0 13 1 25q0 160 -49 309q-52 160 -163 282l236 119l-53 63l-240 -120q-80 78 -184 129l-94 -72q92 -41 172 -113l-213 -108l53 -64l221 113q72 -72 120 -171t66 -204h-4 q-57 84 -139 109.5t-154 25.5q-141 0 -250.5 -54t-185.5 -145.5t-114.5 -208t-38.5 -239.5zM158 401q0 86 28.5 179.5t84 170t137 127t188.5 50.5q160 0 238.5 -87t78.5 -225q0 -86 -27.5 -181t-82.5 -175t-137 -131t-191 -51q-162 0 -239.5 88t-77.5 235z" />
<glyph unicode="&#xf1;" horiz-adv-x="1099" d="M-20 0h126l117 543q20 100 61.5 181t96.5 137.5t120.5 87t135.5 30.5q43 0 83 -10.5t70.5 -33t49 -58t18.5 -89.5q0 -27 -4 -54t-10 -52l-148 -682h129l146 678q16 82 16 125q0 76 -23.5 130t-66.5 88t-101.5 50t-127.5 16q-119 0 -218.5 -64.5t-158.5 -158.5h-4l37 193 h-119zM352 1229h84q4 18 12.5 37.5t21.5 37t29.5 28.5t35.5 11q29 0 61 -18l70 -41q37 -20 75.5 -37.5t79.5 -17.5t71 19.5t52 49.5q23 29 37 66t23 72h-82q-4 -14 -13.5 -35t-22 -38t-26.5 -29.5t-31 -12.5q-37 0 -72.5 19.5t-70.5 41.5q-35 20 -69.5 37t-73.5 17 q-43 0 -74 -18.5t-53.5 -48.5t-38 -66.5t-25.5 -73.5z" />
<glyph unicode="&#xf2;" d="M29 410q0 -201 108.5 -320t313.5 -119q147 0 256.5 59.5t182.5 158t109.5 225.5t36.5 260q0 98 -30.5 175t-86 130t-132 80.5t-169.5 27.5q-141 0 -250.5 -57t-185.5 -151.5t-114.5 -217t-38.5 -251.5zM158 422q0 92 28.5 191.5t84 180t137 133t188.5 52.5 q156 0 233.5 -92t77.5 -240q0 -92 -27.5 -192.5t-82 -184.5t-135 -138t-187.5 -54q-162 0 -239.5 95t-77.5 249zM457 1493l217 -295h102l-168 295h-151z" />
<glyph unicode="&#xf3;" d="M29 410q0 -201 108.5 -320t313.5 -119q147 0 256.5 59.5t182.5 158t109.5 225.5t36.5 260q0 98 -30.5 175t-86 130t-132 80.5t-169.5 27.5q-141 0 -250.5 -57t-185.5 -151.5t-114.5 -217t-38.5 -251.5zM158 422q0 92 28.5 191.5t84 180t137 133t188.5 52.5 q156 0 233.5 -92t77.5 -240q0 -92 -27.5 -192.5t-82 -184.5t-135 -138t-187.5 -54q-162 0 -239.5 95t-77.5 249zM553 1198h109l294 295h-165z" />
<glyph unicode="&#xf4;" d="M29 410q0 -201 108.5 -320t313.5 -119q147 0 256.5 59.5t182.5 158t109.5 225.5t36.5 260q0 98 -30.5 175t-86 130t-132 80.5t-169.5 27.5q-141 0 -250.5 -57t-185.5 -151.5t-114.5 -217t-38.5 -251.5zM158 422q0 92 28.5 191.5t84 180t137 133t188.5 52.5 q156 0 233.5 -92t77.5 -240q0 -92 -27.5 -192.5t-82 -184.5t-135 -138t-187.5 -54q-162 0 -239.5 95t-77.5 249zM375 1198h125l207 217l135 -217h116l-176 295h-129z" />
<glyph unicode="&#xf5;" d="M29 410q0 -201 108.5 -320t313.5 -119q147 0 256.5 59.5t182.5 158t109.5 225.5t36.5 260q0 98 -30.5 175t-86 130t-132 80.5t-169.5 27.5q-141 0 -250.5 -57t-185.5 -151.5t-114.5 -217t-38.5 -251.5zM158 422q0 92 28.5 191.5t84 180.5t137 133t188.5 52 q156 0 233.5 -92t77.5 -240q0 -92 -27.5 -192.5t-82 -184.5t-135 -138t-187.5 -54q-162 0 -239.5 95t-77.5 249zM373 1229h84q4 18 12 37.5t21.5 37t30 28.5t34.5 11q29 0 61 -18l70 -41q37 -20 76 -37.5t80 -17.5t70.5 19.5t52.5 49.5q23 29 37 66t22 72h-82 q-4 -14 -13 -35t-21.5 -38t-27 -29.5t-30.5 -12.5q-37 0 -73 19.5t-70 41.5q-35 20 -70 37t-74 17q-43 0 -73.5 -18.5t-53 -48.5t-38 -66.5t-25.5 -73.5z" />
<glyph unicode="&#xf6;" d="M29 410q0 -201 108.5 -320t313.5 -119q147 0 256.5 59.5t182.5 158t109.5 225.5t36.5 260q0 98 -30.5 175t-86 130t-132 80.5t-169.5 27.5q-141 0 -250.5 -57t-185.5 -151.5t-114.5 -217t-38.5 -251.5zM158 422q0 92 28.5 191.5t84 180t137 133t188.5 52.5 q156 0 233.5 -92t77.5 -240q0 -92 -27.5 -192.5t-82 -184.5t-135 -138t-187.5 -54q-162 0 -239.5 95t-77.5 249zM457 1231h129l41 209h-131zM782 1231h129l41 209h-131z" />
<glyph unicode="&#xf7;" horiz-adv-x="1228" d="M100 461h1030v108h-1030v-108zM500 102.5q0 -47.5 34.5 -80t81.5 -32.5q45 0 79 34.5t34 77.5q0 47 -33.5 81t-81 34t-81 -33.5t-33.5 -81zM500 928q0 -47 34.5 -81t81.5 -34q45 0 79 36t34 79q0 47 -33.5 80.5t-81 33.5t-81 -33.5t-33.5 -80.5z" />
<glyph unicode="&#xf8;" d="M-27 0l39 -43l131 129q111 -115 308 -115q147 0 256.5 59.5t182.5 158t109.5 225.5t36.5 260q0 141 -65 244l123 124l-45 43l-119 -118q-111 121 -312 120q-141 0 -250.5 -57t-185.5 -151.5t-114.5 -217t-38.5 -251.5q0 -164 75 -277zM158 422q0 92 28.5 191.5t84 180 t137 133t188.5 52.5q160 0 242 -105l-639 -645q-23 41 -32 89.5t-9 103.5zM233 178l639 641q35 -80 35 -172t-27.5 -192.5t-82 -184.5t-135 -138t-187.5 -54q-86 0 -144.5 26.5t-97.5 73.5z" />
<glyph unicode="&#xf9;" horiz-adv-x="1099" d="M41 254q0 -76 23.5 -130t66.5 -88t101.5 -49.5t127.5 -15.5q119 0 218.5 63.5t158.5 158.5h4l-36 -193h118l228 1057h-129l-117 -543q-23 -100 -64 -181t-95 -137.5t-118.5 -87t-136.5 -30.5q-43 0 -83 10t-70.5 32.5t-49 59.5t-18.5 88q0 27 4 54.5t10 52.5l148 682 h-129l-146 -678q-16 -82 -16 -125zM436 1493l217 -295h103l-168 295h-152z" />
<glyph unicode="&#xfa;" horiz-adv-x="1099" d="M41 254q0 -76 23.5 -130t66.5 -88t101.5 -49.5t127.5 -15.5q119 0 218.5 63.5t158.5 158.5h4l-36 -193h118l228 1057h-129l-117 -543q-23 -100 -64 -181t-95 -137.5t-118.5 -87t-136.5 -30.5q-43 0 -83 10t-70.5 32.5t-49 59.5t-18.5 88q0 27 4 54.5t10 52.5l148 682 h-129l-146 -678q-16 -82 -16 -125zM532 1198h109l295 295h-166z" />
<glyph unicode="&#xfb;" horiz-adv-x="1099" d="M41 254q0 -76 23.5 -130t66.5 -88t101.5 -49.5t127.5 -15.5q119 0 218.5 63.5t158.5 158.5h4l-36 -193h118l228 1057h-129l-117 -543q-23 -100 -64 -181t-95 -137.5t-118.5 -87t-136.5 -30.5q-43 0 -83 10t-70.5 32.5t-49 59.5t-18.5 88q0 27 4 54.5t10 52.5l148 682 h-129l-146 -678q-16 -82 -16 -125zM334 1198h125l207 217l135 -217h117l-177 295h-129z" />
<glyph unicode="&#xfc;" horiz-adv-x="1099" d="M41 254q0 -76 23.5 -130t66.5 -88t101.5 -49.5t127.5 -15.5q119 0 218.5 63.5t158.5 158.5h4l-36 -193h118l228 1057h-129l-117 -543q-23 -100 -64 -181t-95 -137.5t-118.5 -87t-136.5 -30.5q-43 0 -83 10t-70.5 32.5t-49 59.5t-18.5 88q0 27 4 54.5t10 52.5l148 682 h-129l-146 -678q-16 -82 -16 -125zM416 1231h129l41 209h-131zM741 1231h129l41 209h-131z" />
<glyph unicode="&#xfd;" horiz-adv-x="948" d="M-111 -379q29 -2 56.5 -6t54.5 -4q174 0 256 141l752 1305h-140l-487 -897h-4l-152 897h-135l195 -1057l-97 -166q-25 -41 -65.5 -78t-99.5 -37q-53 0 -109 7zM457 1198h108l295 295h-166z" />
<glyph unicode="&#xfe;" horiz-adv-x="1175" d="M-92 -389h127l129 600h4q10 -63 41 -109.5t76 -75t102 -42t119 -13.5q133 0 239.5 61.5t182.5 159t115.5 219t39.5 244.5q0 96 -24.5 176t-74.5 136.5t-125 88t-177 31.5q-141 0 -227 -56t-144 -161h-4l127 592h-129zM209 383q0 98 30.5 203.5t89 192.5t144.5 143.5 t197 56.5q145 0 214.5 -90t69.5 -225q0 -96 -28.5 -200t-85 -190t-141.5 -141t-195 -55q-141 0 -218 82t-77 223z" />
<glyph unicode="&#xff;" horiz-adv-x="948" d="M-111 -379q29 -2 56.5 -6t54.5 -4q174 0 256 141l752 1305h-140l-487 -897h-4l-152 897h-135l195 -1057l-97 -166q-25 -41 -65.5 -78t-99.5 -37q-53 0 -109 7zM360 1231h129l41 209h-131zM686 1231h129l41 209h-131z" />
<glyph unicode="&#x152;" horiz-adv-x="2123" d="M94 610q0 -139 34 -255.5t103.5 -201.5t178 -133.5t256.5 -48.5q53 0 107 8.5t105.5 28t95.5 51t77 76.5l4 -4l-29 -131h932l27 119h-797l121 577h716l27 119h-717l111 528h778l27 119h-910l-38 -180q-37 55 -85.5 95t-104.5 65.5t-118.5 38t-124.5 12.5 q-184 0 -327.5 -77t-243.5 -200.5t-152.5 -282.5t-52.5 -323zM233 606q0 139 42 276.5t122 247t197 177t264 67.5q68 0 137.5 -16.5t126 -50t93 -82.5t36.5 -117q0 -16 -8 -57l-131 -621q-16 -78 -57 -141.5t-99.5 -107.5t-131 -68.5t-152.5 -24.5q-113 0 -196 42 t-137 113.5t-80 166t-26 196.5z" />
<glyph unicode="&#x153;" horiz-adv-x="1857" d="M45 395q0 -193 100.5 -308.5t292.5 -115.5q141 0 250 74t166 199h4q35 -143 132 -208t241 -65q184 0 307 97.5t176 271.5h-129q-37 -123 -127 -192.5t-219 -69.5t-210 72.5t-81 203.5q0 37 3 74t14 66h792q10 43 16.5 82.5t6.5 82.5q0 86 -21.5 164t-67.5 136.5t-117 93 t-171 34.5q-143 0 -258 -71.5t-178 -196.5h-4q-8 68 -39 118t-76 84t-103.5 50t-121.5 16q-137 0 -245 -61t-181.5 -159.5t-112.5 -222.5t-39 -249zM174 399q0 92 26.5 194.5t80 188.5t134.5 141.5t189 55.5q125 0 196.5 -74t71.5 -196q0 -94 -21.5 -205t-70.5 -205 t-130 -157.5t-197 -63.5q-74 0 -126.5 25.5t-86 68.5t-50 101t-16.5 126zM985 602q16 78 48 146.5t79 120t112.5 81t147.5 29.5q72 0 123 -22.5t85 -61.5t51.5 -91t19.5 -112q0 -41 -6 -90h-660z" />
<glyph unicode="&#x178;" horiz-adv-x="1175" d="M135 1462l389 -858l-133 -604h141l130 590l733 872h-170l-613 -741l-329 741h-148zM475 1595h129l41 209h-131zM801 1595h129l41 209h-131z" />
<glyph unicode="&#x2c6;" horiz-adv-x="378" d="M-4 1198h123l207 217l135 -217h117l-177 295h-129z" />
<glyph unicode="&#x2dc;" horiz-adv-x="378" d="M-6 1229h82q4 18 12 37.5t21.5 37t30 28.5t34.5 11q29 0 62 -18l69 -41q37 -20 76 -37.5t80 -17.5t70.5 19.5t52.5 49.5q23 29 37 66t22 72h-82q-4 -14 -13 -35t-21.5 -38t-27 -29.5t-30.5 -12.5q-37 0 -73 19.5t-70 41.5q-35 20 -70 37t-74 17q-41 0 -72.5 -18.5 t-54 -48.5t-38 -66.5t-23.5 -73.5z" />
<glyph unicode="&#x2013;" horiz-adv-x="1024" d="M-47 504h1022l24 119h-1022z" />
<glyph unicode="&#x2014;" horiz-adv-x="2048" d="M217 504h1516l24 119h-1515z" />
<glyph unicode="&#x2018;" horiz-adv-x="569" d="M262 967h172l49 215h-86q8 33 17.5 64.5t25 58t39 46t60.5 29.5l16 82q-100 -25 -150.5 -69.5t-74.5 -141.5z" />
<glyph unicode="&#x2019;" horiz-adv-x="569" d="M225 965q51 12 88 28.5t63.5 41t44 58t30.5 83.5l67 286h-172l-49 -217h86q-8 -33 -18.5 -64.5t-25.5 -58t-39 -46t-58 -29.5z" />
<glyph unicode="&#x201a;" horiz-adv-x="569" d="M-23 -279q49 12 86 29t63 41.5t44 58t31 82.5l67 285h-172l-49 -217h86q-8 -31 -18.5 -62.5t-25.5 -57t-37.5 -46t-57.5 -31.5z" />
<glyph unicode="&#x201c;" horiz-adv-x="757" d="M195 967h172l49 215h-86q8 33 17 64.5t24.5 58t39 46t60.5 29.5l16 82q-100 -25 -150 -69.5t-75 -141.5zM508 967h172l49 215h-86q8 33 17.5 64.5t24.5 58t39 46t60 29.5l17 82q-100 -25 -150.5 -69.5t-75.5 -141.5z" />
<glyph unicode="&#x201d;" horiz-adv-x="757" d="M137 965q51 12 88 28.5t63.5 41t44 58t29.5 83.5l68 286h-172l-49 -217h86q-8 -33 -18.5 -64.5t-25.5 -58t-39 -46t-58 -29.5zM451 965q51 12 87.5 28.5t63.5 41t44.5 58t29.5 83.5l67 286h-172l-49 -217h86q-8 -33 -18 -64.5t-25.5 -58t-39 -46t-58.5 -29.5z" />
<glyph unicode="&#x201e;" horiz-adv-x="757" d="M-70 -279q49 12 86 29t63.5 41.5t44 58t30.5 82.5l67 285h-172l-49 -217h86q-8 -31 -18.5 -62.5t-25.5 -57t-37.5 -46t-57.5 -31.5zM242 -279q51 12 88 29t63.5 41.5t44 58t29.5 82.5l68 285h-173l-49 -217h86q-8 -31 -18 -62.5t-25.5 -57t-39 -46t-58.5 -31.5z" />
<glyph unicode="&#x2022;" horiz-adv-x="1024" d="M147 731q0 -76 29 -142.5t78 -116.5t115.5 -78.5t142.5 -28.5t142.5 28.5t116.5 78.5t79 116.5t29 142.5t-29 142.5t-79 115.5t-116.5 78t-142.5 29t-142.5 -29t-115.5 -78t-78 -115.5t-29 -142.5z" />
<glyph unicode="&#x2026;" horiz-adv-x="2048" d="M106 0h173l49 217h-174zM791 0h172l49 217h-174zM1475 0h172l49 217h-174z" />
<glyph unicode="&#x2039;" horiz-adv-x="530" d="M104 526l218 -286l24 129l-153 209l237 172l31 139l-326 -232z" />
<glyph unicode="&#x203a;" horiz-adv-x="530" d="M20 240l326 231l31 131l-217 287l-25 -129l154 -209l-238 -172z" />
<glyph unicode="&#x20ac;" d="M-4 584h160q0 -121 24.5 -231.5t80.5 -195.5t149.5 -136.5t230.5 -51.5q106 0 191.5 29t173.5 88l38 170l-92 -65q-45 -32 -92 -56t-98 -38.5t-113 -14.5q-104 0 -172.5 45t-108.5 117.5t-56.5 162t-16.5 177.5h520l55 90h-569l16 123h609l53 90h-639q25 80 61.5 159.5 t91 143t127 103.5t168.5 40q98 0 167 -36.5t135 -106.5l69 108q-86 80 -169 118t-202 38q-123 0 -220 -48t-170.5 -127t-124 -181.5t-76.5 -210.5h-95l-55 -90h129l-16 -123h-113z" />
<glyph unicode="&#x2122;" horiz-adv-x="2027" d="M168 1370h274v-752h109v752h274v92h-657v-92zM975 618h108v746h4l299 -746h62l299 746h4v-746h109v844h-174l-265 -684l-272 684h-174v-844z" />
<glyph unicode="&#xe000;" horiz-adv-x="1055" d="M0 1055h1055v-1055h-1055v1055z" />
<glyph unicode="&#xfb01;" horiz-adv-x="909" d="M37 0h129l209 948h207l24 109h-209l31 147q18 78 57 114t129 36q20 0 40 -4l40 -9l23 107q-33 10 -66 12t-67 2q-131 0 -194.5 -67.5t-88.5 -184.5l-33 -153h-182l-25 -109h185zM508 0h129l227 1057h-129zM778 1255h129l45 207h-129z" />
<glyph unicode="&#xfb02;" horiz-adv-x="909" d="M37 0h129l209 948h207l24 109h-209l31 147q18 78 57 114t129 36q20 0 40 -4l40 -9l23 107q-33 10 -66 12t-67 2q-131 0 -194.5 -67.5t-88.5 -184.5l-33 -153h-182l-25 -109h185zM508 0h129l315 1462h-129z" />
<glyph unicode="&#xfb03;" horiz-adv-x="1439" d="M37 0h129l209 948h207l24 109h-209l31 147q18 78 57 114t129 36q20 0 40 -4l40 -9l23 107q-33 10 -66 12t-67 2q-131 0 -194.5 -67.5t-88.5 -184.5l-33 -153h-182l-25 -109h185zM567 0h129l209 948h207l25 109h-209l30 147q18 78 57.5 114t129.5 36q20 0 40 -4l40 -9 l22 107q-33 10 -65.5 12t-67.5 2q-131 0 -194.5 -67.5t-88.5 -184.5l-32 -153h-183l-24 -109h184zM1040 0h127l228 1057h-129zM1309 1255h129l45 207h-129z" />
<glyph unicode="&#xfb04;" horiz-adv-x="1439" d="M37 0h129l209 948h207l24 109h-209l31 147q18 78 57 114t129 36q20 0 40 -4l40 -9l23 107q-33 10 -66 12t-67 2q-131 0 -194.5 -67.5t-88.5 -184.5l-33 -153h-182l-25 -109h185zM567 0h129l209 948h207l25 109h-209l30 147q18 78 57.5 114t129.5 36q20 0 40 -4l40 -9 l22 107q-33 10 -65.5 12t-67.5 2q-131 0 -194.5 -67.5t-88.5 -184.5l-32 -153h-183l-24 -109h184zM1040 0h127l316 1462h-129z" />
</font>
</defs>
</svg>
