<?xml version="1.0" standalone="no"?>
<!DOCTYPE svg PUBLIC "-//W3C//DTD SVG 1.1//EN" "http://www.w3.org/Graphics/SVG/1.1/DTD/svg11.dtd" >
<svg xmlns="http://www.w3.org/2000/svg">
<metadata>
This is a custom SVG webfont generated by Font Squirrel.
Copyright   : Copyright c 1981 1982 1983 1989 and 1993 Linotype Library GmbH or its affiliated LinotypeHell companies All rights reservedThe digitally encoded machine readable software for producing the Typefaces licensed to you is now the property of Heidelberger Druckmaschinen AG and its licensors and may not be reproduced used displayed modified disclosed or transferred without the express written approval of Heidelberger Druckmaschinen AGCopyright c 1988 1990 1993 Adobe Systems Incorporated All Rights Reserved
Foundry URL : httpwwwLinotypeLibrarycom
</metadata>
<defs>
<font id="HelveticaNeueUltraLight" horiz-adv-x="1024" >
<font-face units-per-em="2048" ascent="1638" descent="-410" />
<missing-glyph horiz-adv-x="569" />
<glyph unicode=" "  horiz-adv-x="569" />
<glyph unicode="&#x09;" horiz-adv-x="569" />
<glyph unicode="&#xa0;" horiz-adv-x="569" />
<glyph unicode="!" horiz-adv-x="378" d="M170 0h41v201h-41v-201zM170 373h41v1089h-41v-1089z" />
<glyph unicode="&#x22;" horiz-adv-x="569" d="M150 1001h40v461h-40v-461zM379 1001h41v461h-41v-461z" />
<glyph unicode="#" horiz-adv-x="1138" d="M72 469h256l-64 -469h41l64 469h352l-64 -469h41l64 469h248v41h-240l49 362h248v41h-238l64 480h-41l-64 -480h-350l64 480h-41l-64 -480h-268v-41h258l-49 -362h-266v-41zM379 510l49 362h350l-49 -362h-350z" />
<glyph unicode="$" horiz-adv-x="1138" d="M12 485v-13q0 -125 37 -215q39 -95 109.5 -158.5t169 -94.5t215.5 -35v-182h41v180q94 0 186 21.5t166 69.5t119 122t45 178q0 115 -40 182.5t-107.5 108.5t-158.5 66l-194 51l-16 4v684q94 -2 174 -24.5t139 -70.5t94 -123t39 -183h41q-6 119 -44 201.5t-102.5 135 t-151.5 78t-189 27.5v90h-41v-88q-86 0 -173 -18.5t-157 -62.5t-114 -116.5t-44 -179t43 -172t113 -105.5t157 -62.5l175 -43.5v-729q-109 4 -199 32t-154.5 85t-100.5 146t-36 214h-41zM96 1120q0 96 41 161t105.5 103.5t144.5 55t156 16.5v-676q-86 18 -167 40 t-143.5 57.5t-99.5 93t-37 149.5zM584 6v721l166 -39q84 -20 152.5 -58t112.5 -101.5t44 -168.5q0 -94 -42 -161.5t-109.5 -110.5t-152.5 -62.5t-171 -19.5z" />
<glyph unicode="%" horiz-adv-x="1402" d="M43 1063q0 -68 18.5 -130.5t56.5 -110.5t97 -76.5t139 -28.5q78 0 136.5 27.5t99.5 75.5t61.5 111.5t20.5 133.5q0 154 -81 253t-237 99q-74 0 -132 -26.5t-98 -73.5t-60.5 -111.5t-20.5 -142.5zM84 1063q0 135 64.5 224t206 89t209 -86t67.5 -227q0 -61 -17.5 -116.5 t-52.5 -97.5t-87 -66.5t-119.5 -24.5t-119 24.5t-85 65.5t-50 97.5t-16.5 117.5zM180 -68h47l975 1530h-47zM731 322q0 -68 18.5 -130.5t56.5 -110.5t97.5 -76t138.5 -28q78 0 136.5 28t99.5 75t61.5 109.5t20.5 134.5q0 154 -81 253t-237 99q-74 0 -132 -26.5t-98 -74 t-60.5 -111.5t-20.5 -142zM772 322q0 135 64.5 224t206 89t209 -86t67.5 -227q0 -61 -17.5 -116.5t-52.5 -97.5t-87 -67t-119.5 -25t-119 25t-85 65.5t-50 97.5t-16.5 118z" />
<glyph unicode="&#x26;" horiz-adv-x="1175" d="M90 328q0 -86 37 -152.5t95.5 -113t134 -71t151.5 -24.5q156 0 261 76t167 188l182 -231h53l-215 272q31 70 48 137q15 59 14 138v20h-41q1 -16 1 -32q0 -63 -13 -115q-16 -66 -37 -111l-385 488q49 37 106.5 75.5t104.5 85t78.5 102.5t31.5 130q0 66 -23.5 116 t-64.5 84.5t-95 53t-116 18.5q-55 0 -108.5 -16t-95.5 -49t-68.5 -84t-26.5 -123q0 -51 22.5 -101.5t56.5 -98.5t71 -94t67 -89l-135 -87q-70 -46 -127 -103.5t-94 -128t-37 -160.5zM131 328q0 86 36 151.5t91 117.5t122 95l128 82l401 -504q-57 -117 -155.5 -190.5 t-245.5 -73.5q-70 0 -138.5 20.5t-120.5 61.5t-85 101.5t-33 138.5zM307 1194q0 53 20.5 95t56.5 72t83 45t100 15q51 0 97.5 -16t82 -46t56 -73t20.5 -96q0 -63 -31.5 -116.5t-77.5 -97.5t-100 -81l-96 -68l-95 125q-40 53 -65.5 95.5t-38 77t-12.5 69.5z" />
<glyph unicode="'" horiz-adv-x="342" d="M152 1001h41v461h-41v-461z" />
<glyph unicode="(" horiz-adv-x="454" d="M139 578q0 -133 15.5 -253t45 -234t74.5 -224.5t105 -226.5h41q-119 217 -179.5 453.5t-60.5 484.5q0 242 60.5 475t177.5 444h-41q-117 -211 -177.5 -444t-60.5 -475z" />
<glyph unicode=")" horiz-adv-x="454" d="M35 1497q119 -217 179 -454.5t60 -485.5q0 -242 -60 -474.5t-177 -442.5h41q117 211 177 443t60 474q0 133 -15 253t-45 233.5t-75 225t-104 228.5h-41z" />
<glyph unicode="*" horiz-adv-x="720" d="M66 1225l266 -88l-180 -213l32 -27l172 213l170 -221l33 24l-170 224l266 88l-8 39l-270 -88v286h-41v-286l-258 88z" />
<glyph unicode="+" horiz-adv-x="1228" d="M98 498h496v-498h41v498h495v41h-495v497h-41v-497h-496v-41z" />
<glyph unicode="," horiz-adv-x="569" d="M215 -201v-41q51 35 70.5 92.5t19.5 149.5v201h-41v-201q0 -82 -11 -128t-38 -73z" />
<glyph unicode="-" horiz-adv-x="681" d="M162 528h358v41h-358v-41z" />
<glyph unicode="." horiz-adv-x="569" d="M264 0h41v201h-41v-201z" />
<glyph unicode="/" horiz-adv-x="681" d="M-12 -33h39l669 1530h-41z" />
<glyph unicode="0" horiz-adv-x="1138" d="M43 696q0 -131 25.5 -260t87 -231.5t163 -165t250.5 -62.5q152 0 252.5 62.5t161.5 165t87 231.5t26 260t-26 260t-87 231.5t-161.5 166t-252.5 63.5q-150 0 -251 -63.5t-162.5 -166t-87 -231.5t-25.5 -260zM84 696.5q0 116.5 22.5 237.5t78 219t148.5 160.5t236.5 62.5 t236.5 -62.5t148.5 -160.5t78 -219t22.5 -237.5t-22.5 -237.5t-78 -219.5t-148.5 -161t-236.5 -62.5t-236.5 62.5t-148.5 161t-78 219.5t-22.5 237.5z" />
<glyph unicode="1" horiz-adv-x="1138" d="M236 1094q104 29 205.5 93t164.5 152h4v-1339h41v1393h-45q-43 -49 -83 -88t-83 -70t-92 -55.5t-112 -44.5v-41z" />
<glyph unicode="2" horiz-adv-x="1138" d="M113 0h938v41h-897q8 90 75.5 167t162.5 149.5t204 145t202 154.5t154.5 176.5t61.5 208.5q0 94 -34 164t-91.5 117t-135 70.5t-167.5 23.5q-223 0 -335 -126t-114 -355h41q0 96 22.5 177t72 139.5t127 91t186.5 32.5q84 0 154.5 -21.5t121.5 -63.5t81 -104.5t30 -144 t-36 -152.5t-95.5 -133.5t-134.5 -119.5l-156 -113l-157 -111q-79 -56 -142.5 -119t-102 -134.5t-36.5 -159.5z" />
<glyph unicode="3" horiz-adv-x="1138" d="M82 471q-2 -23 -2 -45q0 -91 28 -166q34 -92 101 -154.5t163.5 -95.5t215.5 -33q96 0 181 27t149.5 79t102.5 128t38 174q0 90 -27.5 155.5t-74 109.5t-104.5 67.5t-120 30.5v4q129 12 214 94t85 229q0 92 -37 157.5t-98 106.5t-139 59.5t-162 18.5q-109 0 -198 -28.5 t-151.5 -86t-94.5 -142.5q-31 -80 -31 -186v-13h41v13q0 96 27 169q30 78 87.5 130t138.5 77.5t181 25.5q74 0 143.5 -15t125 -51t90 -93.5t36.5 -141.5q0 -86 -32.5 -144.5t-86 -94t-120 -51t-134.5 -15.5h-100v-41h100q86 -4 159 -24.5t127 -61.5t84 -104.5t30 -153.5 t-36 -158.5t-95.5 -116t-137 -71t-161.5 -23.5q-109 0 -199 30t-151.5 87t-92.5 142q-24 67 -24 151q0 22 2 45h-41z" />
<glyph unicode="4" horiz-adv-x="1138" d="M70 362h706v-362h41v362h252v41h-252v990h-51l-696 -981v-50zM111 403l661 932h4v-932h-665z" />
<glyph unicode="5" horiz-adv-x="1138" d="M76 446q0 -12 -1 -23q0 -98 31 -176q35 -87 99.5 -146.5t156 -91.5t197.5 -32q109 0 197 34t151.5 97.5t98 153.5t34.5 201q0 104 -34.5 193t-98 152.5t-151.5 99.5t-197 36q-123 0 -222 -45t-159 -143h-4l127 596h682v41h-715l-149 -703h51q57 104 161.5 158.5 t227.5 54.5q98 0 180 -32.5t139.5 -91t89 -139.5t31.5 -177q0 -100 -30.5 -183t-88 -141.5t-138.5 -90.5t-183 -32q-100 0 -184 29t-142.5 84t-89.5 135q-27 70 -27 159q0 12 1 23h-41z" />
<glyph unicode="6" horiz-adv-x="1138" d="M80 657q0 -135 16.5 -252.5t75.5 -209.5q27 -41 67 -80t91 -70t113.5 -49.5t134.5 -18.5q96 0 183 36t153.5 99.5t105.5 151.5t39 193q0 109 -41 196.5t-108.5 151t-154.5 98.5t-177 35q-82 0 -159 -26.5t-137.5 -75t-102.5 -111.5t-56 -137h-4v27q0 109 14 231 q16 137 68.5 256t148.5 196.5t252 77.5q53 0 112.5 -13t115 -48t99.5 -95.5t64 -154.5h41q-10 74 -45 138.5t-90 111.5t-130 74.5t-165 27.5q-154 0 -254 -69.5t-160.5 -180t-85 -246t-24.5 -264.5zM137 457q0 92 35 172t94.5 139t139 94t172 35t172 -35t139 -94t94.5 -139 t35 -172t-35 -172t-94.5 -139.5t-139 -94.5t-172 -35t-172 35t-139 94.5t-94.5 139.5t-35 172z" />
<glyph unicode="7" horiz-adv-x="1138" d="M125 1352h844q-141 -141 -257 -293t-199 -319t-127 -351t-42 -389h41q0 209 45 390t127 344t198.5 312.5t258.5 290.5v56h-889v-41z" />
<glyph unicode="8" horiz-adv-x="1138" d="M63 389q0 -109 41 -186.5t110 -127.5t161 -74t194.5 -24t194.5 24t160.5 74t109.5 128t41 186q0 160 -95 259.5t-261 115.5v4q59 8 111.5 33.5t91.5 63.5t61.5 89.5t22.5 110.5q0 94 -34 160.5t-93.5 109.5t-139.5 62.5t-170 19.5t-170 -19.5t-139 -62.5t-93 -109.5 t-34 -160.5q0 -59 22.5 -110.5t61.5 -89.5t91 -63.5t112 -33.5v-4q-166 -16 -261.5 -115.5t-95.5 -259.5zM104 389q0 100 39 168t103.5 109t148.5 58t174 17t174 -17t148.5 -58t103.5 -109t39 -168t-38 -171t-102.5 -116t-148 -65.5t-176 -20.5t-176.5 20.5t-148.5 65.5 t-102.5 116t-38 171zM174 1065q0 90 34 149.5t89 95.5t126 51t146.5 15t146 -15t126 -51t89.5 -95.5t34 -149.5q0 -74 -36 -128t-92.5 -88t-127 -50.5t-140 -16.5t-140.5 16.5t-127 50.5t-92 88t-36 128z" />
<glyph unicode="9" horiz-adv-x="1138" d="M80 936q0 -106 41 -195.5t108.5 -153t154.5 -98t177 -34.5q84 0 160 26.5t136.5 74.5t101 111.5t57.5 137.5h4q1 -20 0 -41q0 -62 -4 -128q-6 -89 -25.5 -177t-53.5 -168t-88 -141.5t-131 -97.5t-181 -36q-51 0 -111.5 13.5t-116 48.5t-99.5 95t-65 155h-41 q10 -74 45 -138.5t90.5 -111.5t130 -74t165.5 -27q154 0 255 70t161.5 179.5t85 243.5t24.5 265q0 135 -16.5 253t-77.5 210q-27 41 -67 80t-91 69.5t-113.5 50t-134.5 19.5q-96 0 -183 -35.5t-153.5 -100t-105.5 -153t-39 -192.5zM121 936q0 92 34.5 172t94 139.5t139.5 94 t172 34.5t172 -34.5t139.5 -94t94 -139.5t34.5 -172t-34.5 -172t-94 -139.5t-139.5 -94t-172 -34.5t-172 34.5t-139.5 94t-94 139.5t-34.5 172z" />
<glyph unicode=":" horiz-adv-x="569" d="M264 0h41v201h-41v-201zM264 852h41v201h-41v-201z" />
<glyph unicode=";" horiz-adv-x="569" d="M215 -201v-41q51 35 70.5 92.5t19.5 149.5v201h-41v-201q0 -82 -11 -128t-38 -73zM264 852h41v201h-41v-201z" />
<glyph unicode="&#x3c;" horiz-adv-x="1228" d="M94 494l1041 -508v41l-1004 491l1004 492v43l-1041 -510v-49z" />
<glyph unicode="=" horiz-adv-x="1228" d="M98 299h1032v41h-1032v-41zM98 696h1032v41h-1032v-41z" />
<glyph unicode="&#x3e;" horiz-adv-x="1228" d="M94 -14l1041 508v49l-1041 510v-43l1004 -492l-1004 -491v-41z" />
<glyph unicode="?" d="M72 1010h41q-1 14 -1 27q0 82 21 154q25 83 76 141.5t129 91t178 32.5q78 0 144.5 -19.5t114.5 -57.5t76 -94t28 -128q0 -78 -27 -138.5t-62.5 -103.5t-68.5 -69.5t-45 -38.5q-57 -55 -96 -104.5t-61.5 -99.5t-33 -105.5t-10.5 -124.5h41q0 74 11.5 129t35 101t62.5 90 t94 98l59 53q35 31 67 75t53.5 102t21.5 136q0 82 -32 145.5t-86 106.5t-128 65.5t-158 22.5q-106 0 -191 -36t-142.5 -100.5t-86.5 -153.5q-25 -78 -25 -171q0 -12 1 -26zM475 0h41v201h-41v-201z" />
<glyph unicode="@" horiz-adv-x="1638" d="M117 723q0 -195 64.5 -336t169 -232.5t237.5 -134.5t270 -43q94 0 187.5 26t177.5 73t155.5 114.5t120.5 149.5h-47q-47 -68 -110.5 -127t-140.5 -103t-163 -69t-180 -25q-141 0 -268 45t-223.5 134.5t-152.5 221.5t-56 306q0 145 53 271t147.5 220.5t222.5 148.5t277 54 q133 0 248 -42t197.5 -117.5t130 -182t47.5 -233.5q0 -113 -39 -210t-97.5 -168t-128 -112t-133.5 -41q-41 0 -61.5 17.5t-24.5 47.5q-1 8 -1 18q0 23 8 51q10 40 28 85l228 590h-43l-50 -135h-4q-27 82 -104.5 128t-175.5 46q-109 0 -199 -56t-153.5 -144.5t-98.5 -191.5 t-35 -200q0 -61 21.5 -115.5t58.5 -94.5t88 -63.5t111 -23.5q72 0 146.5 26t131.5 103h4q-2 -13 -2 -24q0 -41 28 -69q36 -36 95 -36q74 0 153 45t143.5 123t105.5 181.5t41 222.5q0 141 -52.5 255.5t-142.5 194.5t-211 123t-258 43q-152 0 -287 -55t-236.5 -153.5 t-159.5 -232.5t-58 -294zM438 567q0 86 32 182.5t89 178.5t138 136t177 54q39 0 81 -9t80 -30.5t66.5 -56.5t43.5 -88l-146 -377q-29 -74 -66.5 -122t-78.5 -75.5t-85 -38t-85 -10.5q-53 0 -98 19.5t-78 54.5t-51.5 81t-18.5 101z" />
<glyph unicode="A" horiz-adv-x="1177" d="M-23 0h46l194 481h746l192 -481h45l-577 1462h-54zM233 522l361 899h4l348 -899h-713z" />
<glyph unicode="B" horiz-adv-x="1251" d="M96 0h604q104 0 193.5 25.5t153 75t99.5 124t36 172.5q0 84 -29 150.5t-77 113t-112.5 72t-136.5 27.5v4q68 4 124.5 31.5t97.5 72.5t64.5 104.5t23.5 125.5q0 92 -32 159.5t-88 113.5t-131 68.5t-161 22.5h-629v-1462zM137 41v700h588q78 0 152.5 -18t133 -59 t94.5 -106.5t36 -162.5q0 -90 -33 -156.5t-89 -110.5t-133 -65.5t-167 -21.5h-582zM137 782v639h588q78 0 145.5 -19.5t117.5 -59t79 -100t29 -144.5q0 -78 -31 -137.5t-82 -99.5t-117.5 -59.5t-140.5 -19.5h-588z" />
<glyph unicode="C" horiz-adv-x="1402" d="M51 719q0 -164 49.5 -302t136.5 -237.5t208.5 -156t267.5 -56.5q139 0 249.5 45t191.5 125t132 191.5t70 244.5h-41q-16 -121 -63.5 -225t-123 -180t-180 -119t-235.5 -43q-147 0 -263 59.5t-196 158t-121 227.5t-41 268q0 115 34 244t109.5 238.5t199.5 182t304 72.5 q119 0 216.5 -38t168 -99.5t111.5 -138t47 -156.5h41q-2 68 -39 149.5t-109.5 154.5t-181 121t-254.5 48q-186 0 -317 -71.5t-213 -184.5t-120 -251t-38 -271z" />
<glyph unicode="D" horiz-adv-x="1327" d="M111 0h448q133 0 256 41t219 128t153.5 226.5t57.5 335.5q0 215 -56 356.5t-145.5 224.5t-201 116.5t-219.5 33.5h-512v-1462zM152 41v1380h460q111 0 216.5 -30.5t189.5 -109.5t135 -212t51 -338q0 -176 -50 -306t-137 -215t-203 -127t-245 -42h-417z" />
<glyph unicode="E" horiz-adv-x="1099" d="M111 0h979v41h-938v700h874v41h-874v639h929v41h-970v-1462z" />
<glyph unicode="F" horiz-adv-x="985" d="M111 0h41v741h778v41h-778v639h860v41h-901v-1462z" />
<glyph unicode="G" horiz-adv-x="1478" d="M66 731q0 -158 44 -297t130 -242.5t215 -164t297 -60.5q217 0 370.5 104.5t212.5 290.5h4v-362h41v684h-608v-41h567v-76q0 -121 -45 -224t-123.5 -178t-185 -117t-227.5 -42q-162 0 -284 57.5t-204 155.5t-123 230.5t-41 282t43.5 281.5t126 230t202.5 155.5t274 57.5 q115 0 210 -31.5t167.5 -91t120.5 -142.5t67 -185h41q-18 113 -68.5 202.5t-129.5 154t-182.5 99.5t-225.5 35q-162 0 -289 -59.5t-215 -163t-135 -243.5t-47 -300z" />
<glyph unicode="H" horiz-adv-x="1327" d="M111 0h41v741h1024v-741h41v1462h-41v-680h-1024v680h-41v-1462z" />
<glyph unicode="I" horiz-adv-x="262" d="M111 0h41v1462h-41v-1462z" />
<glyph unicode="J" horiz-adv-x="948" d="M37 365q0 -86 21.5 -159t68.5 -126t121 -83t178 -30q111 0 187.5 30t123.5 85t68.5 131t21.5 168v1081h-41v-1050q0 -115 -23.5 -193t-69.5 -125t-112.5 -67.5t-154.5 -20.5q-172 0 -260 89t-88 270v88h-41v-88z" />
<glyph unicode="K" horiz-adv-x="1214" d="M111 0h41v518l335 297l725 -815h56l-748 840l707 622h-62l-1013 -889v889h-41v-1462z" />
<glyph unicode="L" horiz-adv-x="985" d="M111 0h895v41h-854v1421h-41v-1462z" />
<glyph unicode="M" horiz-adv-x="1597" d="M111 0h41v1411h4l620 -1411h45l621 1411h4v-1411h41v1462h-68l-618 -1409h-4l-619 1409h-67v-1462z" />
<glyph unicode="N" horiz-adv-x="1327" d="M111 0h41v1411h4l999 -1411h62v1462h-41v-1411h-5l-999 1411h-61v-1462z" />
<glyph unicode="O" horiz-adv-x="1476" d="M66 731q0 -156 44 -295t129 -243.5t210.5 -165t289.5 -60.5t290 60.5t211 165t129 243.5t44 295t-44 295t-129 243.5t-211 166t-290 61.5t-289.5 -61.5t-210.5 -166t-129 -243.5t-44 -295zM106 731q2 158 46.5 291t125 229.5t197.5 150.5t264.5 54t264 -54t197.5 -150.5 t125 -229.5t46 -291q-2 -158 -46 -291t-125 -229t-197.5 -150.5t-264 -54.5t-264.5 54.5t-197.5 150.5t-125 229t-46.5 291z" />
<glyph unicode="P" horiz-adv-x="1175" d="M111 0h41v666h530q102 0 187 25.5t146.5 75.5t96.5 125t35 171q0 199 -117 299t-328 100h-591v-1462zM152 707v714h550q205 0 304.5 -92t99.5 -266q0 -86 -31 -151.5t-85 -111.5t-128 -69.5t-160 -23.5h-550z" />
<glyph unicode="Q" horiz-adv-x="1476" d="M66 731q0 -156 44 -295t129 -243.5t210.5 -165t289.5 -60.5q135 0 241.5 40t188.5 112l242 -162l21 29l-236 159q111 106 164 259t53 327q0 156 -44 295t-129 243.5t-211 166t-290 61.5t-289.5 -61.5t-210.5 -166t-129 -243.5t-44 -295zM107 731q2 158 46 291 t124.5 229.5t197.5 150.5t264.5 54t264 -54t197.5 -150.5t125 -229.5t46 -291q-2 -180 -56 -321.5t-155 -239.5l-264 182l-23 -33l259 -176q-78 -66 -176.5 -101.5t-217.5 -35.5q-147 0 -264 54.5t-197.5 150.5t-124.5 229t-46 291z" />
<glyph unicode="R" horiz-adv-x="1251" d="M111 0h41v686h550q127 0 203 -25.5t117 -73.5t54.5 -119t13.5 -161q0 -35 1 -79t4 -87t9 -80.5t16 -60.5h45q-10 14 -16 51t-10 82t-6.5 91t-2.5 77q0 88 -10 157.5t-40.5 121t-88 83t-149.5 44.5v4q154 35 235 132q78 93 78 231v13q-4 193 -110.5 284t-335.5 91h-598 v-1462zM152 727v694h567q209 0 301 -87t94 -242q0 -96 -35 -165t-92 -114t-132 -65.5t-157 -20.5h-546z" />
<glyph unicode="S" horiz-adv-x="1251" d="M70 485v-12q0 -131 40 -225q42 -98 118.5 -160.5t182 -91.5t230.5 -29q94 0 186.5 21.5t166 69.5t118.5 122t45 178q0 115 -40 182.5t-107.5 108.5t-158.5 66l-194 51l-184 43q-90 20 -160.5 57t-114.5 96.5t-44 158t43 163t109.5 103t148.5 54t157 15.5 q98 0 184.5 -20.5t149 -68.5t100 -125t41.5 -189h41q-6 123 -47 208t-109.5 137t-159.5 75.5t-200 23.5q-88 0 -177 -18.5t-160.5 -61.5t-116.5 -115.5t-45 -181.5q0 -106 43 -172.5t113.5 -106.5t158.5 -63l176 -43q84 -20 175 -39.5t166 -57.5t123 -102.5t48 -175.5 q0 -94 -42 -161.5t-109.5 -110.5t-152.5 -62.5t-171 -19.5q-117 0 -214 25.5t-168 83t-109.5 148.5t-38.5 222h-41z" />
<glyph unicode="T" d="M-33 1421h525v-1421h40v1421h527v41h-1092v-41z" />
<glyph unicode="U" horiz-adv-x="1294" d="M111 545q0 -295 137 -436.5t399 -141.5t399.5 141.5t137.5 436.5v917h-41v-917q0 -264 -121 -401.5t-375 -137.5t-374.5 137.5t-120.5 401.5v917h-41v-917z" />
<glyph unicode="V" horiz-adv-x="1101" d="M-35 1462l572 -1462h45l557 1462h-41l-537 -1409h-4l-553 1409h-39z" />
<glyph unicode="W" horiz-adv-x="1781" d="M-18 1462l430 -1462h55l422 1411h4l430 -1411h55l424 1462h-41l-407 -1411h-4l-428 1411h-60l-422 -1411h-4l-413 1411h-41z" />
<glyph unicode="X" horiz-adv-x="1064" d="M-53 0h51l537 719l534 -719h51l-557 752l533 710h-52l-509 -678l-506 678h-52l531 -710z" />
<glyph unicode="Y" horiz-adv-x="1101" d="M-59 1462l589 -846v-616h41v616l592 846h-49l-563 -803l-559 803h-51z" />
<glyph unicode="Z" d="M-37 0h1077v41h-1038l1022 1366v55h-1006v-41h965l-1020 -1366v-55z" />
<glyph unicode="[" horiz-adv-x="454" d="M197 -360h231v41h-190v1775h190v41h-231v-1857z" />
<glyph unicode="\" horiz-adv-x="681" d="M-12 1497l667 -1530h41l-669 1530h-39z" />
<glyph unicode="]" horiz-adv-x="454" d="M27 -319v-41h231v1857h-231v-41h190v-1775h-190z" />
<glyph unicode="^" horiz-adv-x="1228" d="M121 465h41l452 887l453 -887h41l-473 928h-41z" />
<glyph unicode="_" d="M0 -180h1024v-41h-1024v41z" />
<glyph unicode="`" horiz-adv-x="266" d="M-76 1497l283 -295h31l-254 295h-60z" />
<glyph unicode="a" horiz-adv-x="985" d="M45 260q0 -141 96.5 -212t255.5 -71q82 0 151.5 21.5t124 58.5t90.5 84t52 99h4v-138q0 -59 34 -80.5t79 -21.5h61v41q-20 -2 -43.5 -3t-44 4t-33 19.5t-12.5 44.5v670q-2 86 -30.5 143.5t-75.5 93.5t-109.5 50t-132.5 14q-98 0 -171 -26.5t-123 -73.5t-76.5 -111.5 t-30.5 -138.5h41q10 147 102 228t258 81q104 0 165.5 -27.5t93.5 -70.5t40 -94t8 -99q0 -59 -23.5 -90.5t-73.5 -47t-128 -20.5l-186 -12q-66 -4 -131.5 -17t-116.5 -47t-83 -93.5t-32 -157.5zM86 260q0 84 26.5 136t71.5 82t103.5 41t120 15.5t126 6.5t120 10t98.5 23.5 t63 43.5h4v-194q0 -78 -27.5 -151.5t-82 -130t-134 -91.5t-182.5 -35q-86 0 -144.5 21.5t-95 55.5t-52 78t-15.5 89z" />
<glyph unicode="b" horiz-adv-x="1099" d="M113 0h41v295h4q41 -141 150.5 -229.5t271.5 -88.5q104 0 187 41t141.5 114t89 173.5t30.5 218.5q0 111 -29.5 211.5t-86 176t-140.5 120.5t-192 45q-168 0 -276.5 -88t-145.5 -231h-4v704h-41v-1462zM154 524q0 248 116.5 380t309.5 132q109 0 185.5 -46t125.5 -118.5 t72.5 -164t23.5 -183.5q0 -100 -25.5 -192t-75.5 -163t-127 -112t-179 -41q-100 0 -180.5 41t-134.5 111t-82.5 162t-28.5 194z" />
<glyph unicode="c" d="M63 504q0 -109 31 -204t90.5 -167t146.5 -114t199 -42q90 0 165 27t131.5 76t91 119.5t43.5 158.5h-41q-6 -80 -39 -142t-85.5 -107.5t-120 -69t-145.5 -23.5q-104 0 -184 40t-133 107.5t-81 156t-28 184.5q0 92 24 187t76 172t139 125t212 48q66 0 125 -18.5t106.5 -56 t80 -94t44.5 -134.5h41q-10 84 -46 148.5t-89 107.5t-120.5 65.5t-141.5 22.5q-125 0 -218 -47t-153.5 -126t-90.5 -182t-30 -218z" />
<glyph unicode="d" horiz-adv-x="1099" d="M57 524q0 -119 31 -219t89.5 -173t141 -114t187.5 -41q162 0 271.5 88.5t150.5 229.5h4v-295h41v1462h-41v-704h-4q-37 143 -145.5 231t-276.5 88q-109 0 -193 -45t-140 -120.5t-86 -176t-30 -211.5zM98 524q0 92 23.5 183.5t73 164t127 118.5t184.5 46q193 0 309.5 -132 t116.5 -380q0 -102 -29 -194t-83 -162t-133 -111t-181.5 -41t-179 41t-127 112t-76 163t-25.5 192z" />
<glyph unicode="e" d="M51 526q0 -117 26.5 -218t82 -176t142.5 -116q83 -39 198 -39h12q180 0 303 101.5t146 286.5h-41q-27 -174 -136.5 -261.5t-275.5 -87.5q-113 0 -190.5 39t-127 106.5t-73 159t-25.5 197.5h881q1 15 0 30q0 93 -22 179q-26 100 -82 178t-145 125t-212 47 q-88 0 -172 -36.5t-147.5 -107.5t-102.5 -173.5t-39 -233.5zM92 559q6 111 41 199t91.5 150.5t131 95t160.5 32.5q102 0 180 -37.5t130.5 -103.5t79 -153t26.5 -183h-840z" />
<glyph unicode="f" horiz-adv-x="417" d="M0 1012h178v-1012h41v1012h227v41h-227v219q0 78 30 113.5t128 35.5q23 0 45 -2t51 -6v41q-16 2 -37.5 5t-50.5 3q-33 0 -69.5 -4t-67.5 -21.5t-50.5 -52t-19.5 -98.5v-233h-178v-41z" />
<glyph unicode="g" horiz-adv-x="1062" d="M57 561q0 -100 28 -192.5t82 -161t136 -109.5t193 -41q68 0 134 19.5t122.5 57.5t98.5 93.5t58 124.5h4v-317q0 -197 -103 -288t-296 -91q-70 0 -134.5 16.5t-113.5 51t-78.5 90t-31.5 133.5h-41q2 -90 34.5 -152.5t88 -102.5t127 -58.5t151.5 -18.5q209 0 323.5 101.5 t114.5 318.5v1018h-41v-281h-4q-16 66 -52 121t-88 96t-117.5 64.5t-141.5 23.5q-111 0 -196 -41t-142 -111.5t-86 -164t-29 -199.5zM98 561q0 96 26 182t78 152t129 103.5t179 37.5q98 0 174 -40t126 -106.5t75.5 -152.5t25.5 -176q0 -94 -27.5 -179t-79.5 -147.5 t-130 -99.5t-180 -37q-96 0 -170 36t-124 98.5t-76 146.5t-26 182z" />
<glyph unicode="h" d="M113 0h41v596q0 88 24.5 168t72.5 140.5t119.5 96t166.5 35.5q68 0 128 -19.5t106 -61.5t72.5 -106.5t26.5 -156.5v-692h41v698q0 92 -27.5 163t-77.5 119t-119 72.5t-150 24.5q-78 0 -141.5 -21.5t-111.5 -60.5t-80 -90t-46 -112h-4v669h-41v-1462z" />
<glyph unicode="i" horiz-adv-x="266" d="M113 0h41v1053h-41v-1053zM113 1255h41v207h-41v-207z" />
<glyph unicode="j" horiz-adv-x="266" d="M-98 -319v-41q59 0 106 5t80 26.5t49.5 63.5t16.5 113v1205h-41v-1190q0 -66 -11.5 -102.5t-36 -54t-65.5 -21.5t-98 -4zM113 1255h41v207h-41v-207z" />
<glyph unicode="k" horiz-adv-x="909" d="M113 0h41v397l272 226l494 -623h55l-518 651l483 402h-59l-727 -604v1013h-41v-1462z" />
<glyph unicode="l" horiz-adv-x="266" d="M113 0h41v1462h-41v-1462z" />
<glyph unicode="m" horiz-adv-x="1593" d="M113 1053v-1053h41v596q0 88 23.5 168t67.5 140.5t107.5 96t141.5 35.5q88 0 143 -28.5t86 -77.5t42 -114.5t11 -139.5v-676h41v668q0 74 22.5 140t65.5 117.5t104.5 81t137.5 29.5q86 0 142.5 -24.5t90 -69.5t47 -108.5t13.5 -141.5v-692h41v692q0 86 -16.5 157 t-55.5 121t-102.5 78.5t-159.5 28.5q-123 0 -213 -67.5t-121 -178.5h-4q-27 117 -110 183.5t-205 62.5q-61 0 -115.5 -21.5t-100 -60.5t-76 -90t-44.5 -112h-4v260h-41z" />
<glyph unicode="n" d="M113 0h41v596q0 88 24.5 168t72.5 140.5t119.5 96t166.5 35.5q68 0 128 -19.5t106 -61.5t72.5 -106.5t26.5 -156.5v-692h41v698q0 92 -27.5 163t-77.5 119t-119 72.5t-150 24.5q-78 0 -141.5 -21.5t-111.5 -60.5t-80 -90t-46 -112h-4v260h-41v-1053z" />
<glyph unicode="o" horiz-adv-x="1062" d="M57 526.5q0 -108.5 31 -208t91.5 -175t148.5 -121t202 -45.5q117 0 205 45.5t148.5 121t91.5 175t31 208t-31 208t-91.5 175t-148.5 121.5t-203 46q-117 0 -204.5 -46t-148 -121.5t-91.5 -175t-31 -208zM98 526q0 98 28 190.5t83 163t136 113.5t187 43q104 0 185.5 -43 t136.5 -113.5t83 -162.5t28 -191q0 -100 -28 -192t-83 -163t-136 -113t-186 -42q-106 0 -187 42t-136 113t-83 163t-28 192z" />
<glyph unicode="p" horiz-adv-x="1099" d="M113 -360h41v655h4q37 -143 145.5 -230.5t276.5 -87.5q109 0 192.5 44.5t140 120t86 176t29.5 210.5q0 119 -30.5 219.5t-89 174t-141.5 114.5t-187 41q-80 0 -149 -23.5t-122 -66.5t-92 -101.5t-59 -127.5h-4v295h-41v-1413zM154 528q0 102 28.5 194.5t82.5 162 t134 110.5t181 41q102 0 179 -41t127 -111.5t75.5 -161.5t25.5 -194q0 -92 -23.5 -183t-72.5 -163.5t-126 -119t-185 -46.5q-193 0 -309.5 132t-116.5 380z" />
<glyph unicode="q" horiz-adv-x="1099" d="M57 528q0 -111 30 -211t86 -175.5t140 -120t193 -44.5q168 0 276.5 87.5t145.5 230.5h4v-655h41v1413h-41v-295h-4q-20 70 -58.5 128t-92.5 101t-122.5 66.5t-148.5 23.5q-104 0 -187 -41t-141.5 -114.5t-89.5 -174t-31 -219.5zM98 528q0 102 26 193.5t76 162 t126.5 111.5t179 41t181.5 -41t133 -110.5t83 -161.5t29 -195q0 -248 -117 -380t-309 -132q-106 0 -184 46.5t-127.5 119t-73 163.5t-23.5 183z" />
<glyph unicode="r" horiz-adv-x="530" d="M113 0h41v596q0 86 24.5 168t75.5 144.5t130 98.5q67 31 156 30q15 0 31 -1v41h-15q-85 0 -149 -20q-71 -23 -122.5 -62t-82 -91t-44.5 -111h-4v260h-41v-1053z" />
<glyph unicode="s" horiz-adv-x="948" d="M61 360q0 -199 107.5 -291t318.5 -92q68 0 136.5 15.5t123 50.5t88 90t33.5 135q0 76 -29.5 123t-77.5 78t-109 48l-122 34l-150 39q-65 16 -120 39q-53 23 -85 64.5t-32 119.5q0 14 8.5 51t39 75t94 67.5t174.5 29.5q76 0 138 -16t107.5 -52t70 -91.5t24.5 -135.5h41 q0 176 -102.5 256t-278.5 80q-98 0 -166 -24.5t-111 -63.5t-61.5 -86t-18.5 -90q0 -86 31 -137t96 -80q45 -20 102.5 -36.5t133.5 -35.5l133 -32q66 -16 116 -44t81.5 -71t31.5 -113q0 -68 -31.5 -115t-80.5 -76.5t-109.5 -43t-118.5 -13.5q-186 0 -285.5 83t-99.5 261h-41z " />
<glyph unicode="t" horiz-adv-x="493" d="M-8 1012h192v-815q0 -113 50.5 -155t121.5 -42q47 0 65 2l36 4v41q-10 -4 -35 -5t-55 -1q-25 0 -49.5 3t-45 19.5t-34 49t-13.5 92.5v807h238v41h-238v331h-41v-331h-192v-41z" />
<glyph unicode="u" d="M113 354q0 -92 27.5 -162.5t77.5 -118.5t119 -72t150 -24q156 0 253.5 80t125.5 203h4v-260h41v1053h-41v-596q0 -88 -24.5 -168t-72.5 -140.5t-119.5 -96.5t-166.5 -36q-68 0 -128 19.5t-106 61.5t-72.5 106.5t-26.5 156.5v693h-41v-699z" />
<glyph unicode="v" horiz-adv-x="833" d="M-23 1053l433 -1053h51l397 1053h-45l-377 -1012h-4l-407 1012h-48z" />
<glyph unicode="w" horiz-adv-x="1402" d="M-14 1053l325 -1053h58l329 1012h4l328 -1012h53l336 1053h-41l-319 -1012h-4l-324 1012h-63l-326 -1012h-4l-313 1012h-39z" />
<glyph unicode="x" horiz-adv-x="833" d="M-29 0h49l396 514l397 -514h51l-422 545l385 508h-49l-362 -478l-355 478h-53l383 -508z" />
<glyph unicode="y" horiz-adv-x="833" d="M-23 1053l439 -1043l-76 -194q-18 -47 -39.5 -75t-49.5 -41t-66 -16t-91 -3v-41q47 0 89 3t77 17t63.5 44t49.5 83l485 1266h-43l-377 -998l-418 998h-43z" />
<glyph unicode="z" horiz-adv-x="833" d="M10 0h813v41h-770l738 960v52h-725v-41h682l-738 -961v-51z" />
<glyph unicode="{" horiz-adv-x="681" d="M174 553q90 -59 119 -144t29 -210v-332q0 -117 31.5 -172t117.5 -55h102v41h-98q-29 0 -50.5 9t-34.5 33.5t-20.5 68.5t-7.5 112v329q0 117 -39.5 210.5t-107.5 125.5q39 16 66.5 53t46 84.5t26.5 98.5t8 96v336q0 127 26 173t87 46h98v41h-102q-86 0 -117.5 -53 t-31.5 -170v-338q0 -61 -10.5 -120.5t-30 -106.5t-46 -78t-61.5 -37v-41z" />
<glyph unicode="|" horiz-adv-x="454" d="M207 -436h41v2046h-41v-2046z" />
<glyph unicode="}" horiz-adv-x="681" d="M109 -319v-41h102q86 0 117.5 53t31.5 170v336q0 61 10.5 120.5t30 106.5t47 78t60.5 37v41q-90 57 -119 143t-29 211v334q0 117 -31.5 172t-117.5 55h-102v-41h98q29 0 50.5 -9t34.5 -33.5t20 -69t7 -111.5v-332q0 -117 40 -210t108 -126q-39 -16 -66.5 -53t-46 -84 t-27 -98t-8.5 -97v-333q0 -127 -25.5 -173t-86.5 -46h-98z" />
<glyph unicode="~" horiz-adv-x="1228" d="M158 432l41 -12q37 66 84 107.5t116 41.5q80 0 139 -25l111 -50l101 -44q47 -22 98 -22q41 0 72.5 15.5t58.5 40t49.5 56t42.5 64.5l-41 12l-37 -53q-18 -27 -39.5 -47t-47 -33.5t-56.5 -13.5q-41 0 -95 23l-116 49q-59 29 -122 51q-53 19 -100 19q-9 0 -18 -1 q-86 0 -144 -53t-97 -125z" />
<glyph unicode="&#xa1;" horiz-adv-x="378" d="M170 -360h41v1097h-41v-1097zM170 909h41v201h-41v-201z" />
<glyph unicode="&#xa2;" horiz-adv-x="1138" d="M121 528q0 -106 26.5 -203.5t81 -173t136 -122.5t192.5 -52v-223h41v223q170 2 283.5 101.5t136.5 279.5h-41q-8 -74 -39 -136t-79 -108t-111.5 -72t-139.5 -26h-10v1018q72 -2 134.5 -21.5t110.5 -56t79.5 -93t44.5 -130.5h41q-10 84 -45 146.5t-89.5 105.5t-125 65.5 t-150.5 24.5v180h-41v-180q-109 -4 -190.5 -52t-136 -124t-82 -172.5t-27.5 -198.5zM162 528q0 92 23.5 181.5t72.5 160t124 115.5t175 49v-1018q-100 4 -175 49.5t-124 117t-72.5 161.5t-23.5 184z" />
<glyph unicode="&#xa3;" horiz-adv-x="1138" d="M80 6l37 -39q59 45 121.5 73t134.5 28q47 0 95 -17.5l99 -34.5q51 -18 102.5 -33.5t102.5 -15.5q94 0 172 39t168 141l-27 29l-73 -67q-35 -31 -72 -54.5t-78 -36t-90 -12.5q-47 0 -96 16.5t-101 36.5l-100 33q-51 16 -102 17q-63 0 -116.5 -24t-92.5 -52l-4 4 q94 80 148 177t54 214q0 72 -13 143.5t-48 135.5h305v41h-323q-20 41 -46 86t-49.5 92t-39 95t-15.5 95q0 90 36 154.5t95.5 105.5t135 60.5t155.5 19.5q102 0 186 -30.5t141.5 -91t85.5 -148.5q20 -64 20 -143q0 -29 -3 -60h41q4 37 4 71q0 77 -19 143q-28 95 -90.5 161.5 t-155.5 102.5t-210 36q-88 0 -172 -22.5t-148.5 -69.5t-103.5 -119t-39 -170q0 -47 15.5 -96t37 -96t45.5 -93l46 -83h-136v-41h156q31 -53 48.5 -127t17.5 -152q0 -123 -71 -229.5t-171 -192.5z" />
<glyph unicode="&#xa4;" horiz-adv-x="1138" d="M61 696q0 -92 34 -181t102 -163l-117 -116l29 -29l116 117q74 -68 163 -102t181 -34q94 2 183.5 36t160.5 100l117 -117l29 29l-117 116q68 74 101.5 163t33.5 181q0 94 -33.5 183.5t-101.5 160.5l117 117l-29 29l-117 -117q-72 68 -160.5 101.5t-183.5 33.5 q-92 0 -181 -33.5t-163 -101.5l-116 117l-29 -29l117 -117q-66 -72 -100 -161t-36 -183zM102 696.5q0 96.5 37 181.5t100.5 148.5t148.5 100t181.5 36.5t181.5 -36.5t148.5 -100t100 -148.5t36.5 -181.5t-36.5 -181.5t-100 -148.5t-148.5 -100.5t-181.5 -37t-181.5 37 t-148.5 100.5t-100.5 148.5t-37 181.5z" />
<glyph unicode="&#xa5;" horiz-adv-x="1138" d="M43 1462l485 -796h-282v-41h301v-209h-301v-41h301v-375h41v375h301v41h-301v209h301v41h-279l486 796h-45l-480 -784h-4l-479 784h-45z" />
<glyph unicode="&#xa6;" horiz-adv-x="454" d="M207 -180h41v510h-41v-510zM207 842h41v512h-41v-512z" />
<glyph unicode="&#xa7;" horiz-adv-x="1138" d="M117 717q0 -43 7 -82t30.5 -79t66.5 -82t117 -91l191 -122q99 -60 169 -109q55 -39 87 -70t49.5 -59.5t22.5 -60.5t5 -73q0 -35 -16.5 -75.5t-51 -75.5t-90 -58.5t-135.5 -23.5q-172 2 -245.5 100.5t-71.5 253.5h-41v-16q0 -181 90 -278q94 -101 268 -101q63 0 121 16.5 t103 50t74.5 85t35.5 122.5q1 9 1 19q0 52 -19 104q-23 61 -103 127q31 8 73 33t79 60.5t62.5 82.5t25.5 103q0 61 -14.5 109t-54.5 97.5t-108.5 103.5t-178.5 124q-43 27 -77 45l-67 37l-64 38q-32 19 -69 46q-47 35 -80 80t-37 123q-1 9 0 17q0 58 25 97q29 45 72 72 t93 38t89 11q154 0 231.5 -89t81.5 -249h41q0 86 -24.5 155.5t-69.5 119t-110.5 77t-145.5 27.5q-41 0 -96.5 -10t-106.5 -40t-86 -83t-35 -139t34 -137.5t75 -86.5q-43 -16 -83 -43.5t-70.5 -64.5t-50 -82t-19.5 -94zM158 700q0 66 25.5 114t61.5 81t72.5 52.5t59.5 25.5 l55 -32l74 -41l75.5 -44t61.5 -39q104 -68 170 -119t103.5 -96t51 -88t13.5 -94q0 -53 -25.5 -97t-62.5 -76t-78 -52.5t-72 -26.5l-81 55l-99 65l-103 66l-98 62q-72 45 -112.5 87t-61 77.5t-25.5 66t-5 53.5z" />
<glyph unicode="&#xa8;" horiz-adv-x="266" d="M-45 1208h41v166h-41v-166zM272 1208h41v166h-41v-166z" />
<glyph unicode="&#xa9;" horiz-adv-x="1638" d="M53 731q0 -160 60.5 -299t164 -242.5t242.5 -163t299 -59.5t299 59.5t242.5 163t164 242.5t60.5 299t-60.5 299t-164 242.5t-242.5 164t-299 60.5t-299 -60.5t-242.5 -164t-164 -242.5t-60.5 -299zM94 731q0 150 56.5 282t154.5 230t230.5 155.5t283.5 57.5 q150 0 282 -57.5t230.5 -155.5t155.5 -230t57 -282q0 -152 -57 -284t-155.5 -230t-230.5 -154.5t-282 -56.5q-152 0 -284 56.5t-230 154.5t-154.5 230t-56.5 284zM391 719q0 -100 32 -186.5t90 -150t142 -100t187 -36.5q141 0 240.5 89t131.5 230h-40 q-33 -135 -126.5 -206.5t-205.5 -71.5q-96 0 -172 33.5t-129.5 93t-81 138.5t-27.5 169t26.5 168t79 134t127 89t171.5 33q61 0 117.5 -16.5t102.5 -50.5t76.5 -84t41.5 -117h40q-10 74 -42.5 132t-84 97t-116 59.5t-135.5 20.5q-104 0 -187.5 -35t-139.5 -97.5t-87 -147.5 t-31 -187z" />
<glyph unicode="&#xaa;" horiz-adv-x="614" d="M0 924q0 -45 19.5 -78t51 -54.5t72.5 -30.5t86 -9q111 0 179.5 39.5t91.5 107.5v14h4v-84q0 -35 21.5 -49t49.5 -14h39v41q-27 -4 -48 0t-21 39v389q-4 102 -71.5 142t-168.5 40q-123 0 -187.5 -56t-74.5 -157h41q10 80 63.5 126t158 46t151.5 -36.5t47 -129.5 q0 -37 -21.5 -55t-57.5 -25.5t-81 -8.5t-92 -3q-47 -4 -92 -11t-81 -27.5t-57.5 -57.5t-21.5 -98zM41 924q2 59 31.5 91t76 46t101.5 17l106 6q51 3 90 12.5t54 33.5h4v-98q0 -100 -69.5 -169.5t-205.5 -69.5q-35 0 -68.5 7t-60 22.5t-43 40t-16.5 61.5z" />
<glyph unicode="&#xab;" horiz-adv-x="720" d="M135 532l211 -284v71l-170 230l170 229v72l-211 -285v-33zM326 532l211 -284v71l-170 230l170 229v72l-211 -285v-33z" />
<glyph unicode="&#xac;" horiz-adv-x="1228" d="M98 696h992v-506h40v547h-1032v-41z" />
<glyph unicode="&#xad;" horiz-adv-x="681" d="M162 528v41h358v-41h-358z" />
<glyph unicode="&#xae;" horiz-adv-x="1638" d="M53 731q0 -160 60.5 -299t164 -242.5t242.5 -163t299 -59.5t299 59.5t242.5 163t164 242.5t60.5 299t-60.5 299t-164 242.5t-242.5 164t-299 60.5t-299 -60.5t-242.5 -164t-164 -242.5t-60.5 -299zM94 731q0 150 56.5 282t154.5 230t230.5 155.5t283.5 57.5 q150 0 282 -57.5t230.5 -155.5t155.5 -230t57 -282q0 -152 -57 -284t-155.5 -230t-230.5 -154.5t-282 -56.5q-152 0 -284 56.5t-230 154.5t-154.5 230t-56.5 284zM561 1157v-881h41v408h201h31h16q8 0 16 2l264 -410h52l-271 414q47 4 88 19.5t73 43t50.5 69.5t18.5 98 q0 113 -71 175t-220 62h-289zM602 725v391h244q49 0 95 -8t81 -29.5t56.5 -59.5t21.5 -99q0 -66 -28 -105t-69.5 -58.5t-92 -25.5t-95.5 -6h-213z" />
<glyph unicode="&#xaf;" horiz-adv-x="266" d="M-102 1286h473v41h-473v-41z" />
<glyph unicode="&#xb0;" horiz-adv-x="819" d="M117 1124q0 -63 22.5 -117.5t62.5 -94.5t93 -62.5t114.5 -22.5t116 23.5t93 63.5t61 94.5t22.5 115.5q0 59 -22.5 112.5t-62 93.5t-93 63.5t-115 23.5t-114.5 -23.5t-93 -63.5t-62.5 -93.5t-22.5 -112.5zM158 1124q0 49 20.5 94.5t55 81t79.5 56t97 20.5q55 0 101 -20.5 t80 -55t52.5 -79.5t18.5 -97q0 -53 -19.5 -100t-53.5 -82t-80 -54.5t-99 -19.5q-51 0 -96.5 19.5t-80 53.5t-55 81t-20.5 102z" />
<glyph unicode="&#xb1;" horiz-adv-x="1228" d="M98 0h1032v41h-1032v-41zM98 590h496v-406h41v406h495v41h-495v405h-41v-405h-496v-41z" />
<glyph unicode="&#xb2;" horiz-adv-x="681" d="M37 567h610v41h-563q2 31 25.5 62.5t60.5 64.5t84 65l98 64q84 55 137.5 99.5t83 84t40 76.5t10.5 80q0 55 -21.5 96t-59.5 67t-88.5 38t-109.5 12q-158 0 -222.5 -74.5t-68.5 -214.5h41q-2 117 56.5 182.5t193.5 65.5q104 0 171 -42t67 -130q0 -51 -21.5 -94t-57.5 -81 t-83 -71.5t-98 -66.5l-103 -68q-51 -33 -91 -69.5t-65.5 -82t-25.5 -104.5z" />
<glyph unicode="&#xb3;" horiz-adv-x="681" d="M23 850q-1 -12 -1 -23q0 -126 83 -197q91 -77 249 -77q61 0 116.5 16.5t97.5 48t66.5 77.5t24.5 104q0 53 -18 92t-49 65.5t-72 40t-86 17.5v4q92 0 150.5 54t58.5 140q0 61 -25.5 100.5t-66.5 63t-91 32.5t-102 9q-68 0 -125 -17.5t-99 -52t-64 -84.5q-21 -46 -21 -107 v-11h41q0 123 68.5 177t197.5 54q47 0 91.5 -6t78 -24.5t55 -50t21.5 -83.5q0 -49 -20.5 -82.5t-55 -53t-77.5 -29t-91 -9.5h-53v-43h49q49 0 97.5 -9t85 -31.5t59 -60.5t22.5 -95q0 -51 -22.5 -89t-59 -63.5t-85 -39t-99.5 -13.5q-135 0 -217 63q-73 56 -73 165q0 14 1 28 h-40z" />
<glyph unicode="&#xb4;" horiz-adv-x="266" d="M20 1202h31l299 295h-59z" />
<glyph unicode="&#xb5;" horiz-adv-x="1138" d="M170 -360h41v526h4q47 -104 135 -146.5t193 -42.5q156 0 253 80t126 203h4v-260h41v1053h-41v-596q0 -88 -24.5 -168t-73 -140.5t-120 -96.5t-165.5 -36q-68 0 -128.5 19.5t-106.5 61.5t-72.5 106.5t-26.5 156.5v693h-39v-1413z" />
<glyph unicode="&#xb6;" horiz-adv-x="1228" d="M135 1061q0 -80 33 -150.5t93.5 -124t144 -84t184.5 -30.5v-957h41v1706h334v-1706h41v1747h-414q-217 0 -337 -102t-120 -299z" />
<glyph unicode="&#xb7;" horiz-adv-x="569" d="M219 696.5q0 -28.5 18.5 -47t47 -18.5t47 18.5t18.5 47t-18.5 47t-47 18.5t-47 -18.5t-18.5 -47z" />
<glyph unicode="&#xb8;" horiz-adv-x="266" d="M-49 -338q29 -10 70.5 -22.5t95.5 -12.5q41 0 76.5 6.5t63.5 23.5t44 46t16 74q0 68 -47 95.5t-106 27.5q-29 0 -41 -5.5t-27 -7.5l84 113h-41l-116 -147l30 -21q45 27 111 27q16 0 35.5 -5.5t36 -14.5t28.5 -25.5t12 -36.5q0 -31 -14 -52.5t-36.5 -34t-51.5 -17.5 t-57 -5q-41 0 -78 10.5t-70 22.5z" />
<glyph unicode="&#xb9;" horiz-adv-x="681" d="M127 1208q66 18 134.5 56.5t105.5 91.5h4v-789h41v836h-45q-55 -59 -106.5 -95t-133.5 -61v-39z" />
<glyph unicode="&#xba;" horiz-adv-x="614" d="M0 1087.5q0 -65.5 20.5 -126t59.5 -107.5t96 -74.5t131 -27.5q78 0 135.5 27.5t96.5 74.5t58 107.5t19 126t-19 125t-58 104.5t-96.5 72.5t-133.5 27.5t-133 -27.5t-96 -72.5t-59.5 -104.5t-20.5 -125zM41 1087q0 53 18.5 105.5t52 93.5t84 65.5t114 24.5t112.5 -24.5 t83 -65.5t52 -93t18 -106q0 -55 -18 -108t-52 -94t-83 -66.5t-112.5 -25.5t-114 25.5t-84 66.5t-52 94t-18.5 108z" />
<glyph unicode="&#xbb;" horiz-adv-x="720" d="M184 248l211 284v33l-211 285v-72l170 -229l-170 -230v-71zM375 248l211 284v33l-211 285v-72l170 -229l-170 -230v-71z" />
<glyph unicode="&#xbc;" horiz-adv-x="1708" d="M209 1208q66 18 134.5 56.5t105.5 91.5h4v-789h41v836h-45q-55 -59 -106.5 -95t-133.5 -61v-39zM295 -68h47l975 1530h-47zM848 209h452v-209h41v209h156v41h-156v586h-51l-442 -576v-51zM891 250l405 526l4 4v-530h-409z" />
<glyph unicode="&#xbd;" horiz-adv-x="1708" d="M133 1208q66 18 134.5 56.5t105.5 91.5h4v-789h41v836h-45q-55 -59 -106.5 -95t-133.5 -61v-39zM199 -68h47l975 1530h-47zM967 0h610v41h-563q2 31 25.5 62.5t60.5 64.5t84 64l98 65q84 55 137.5 99t83 84t39.5 77t10 80q0 55 -21.5 96t-59 66.5t-88 38t-109.5 12.5 q-158 0 -222.5 -75t-68.5 -214h41q-2 117 56.5 182.5t193.5 65.5q104 0 170.5 -42t66.5 -130q0 -51 -21.5 -94t-57 -81t-82.5 -72t-99 -66l-102 -68q-51 -33 -91 -69.5t-65.5 -82t-25.5 -104.5z" />
<glyph unicode="&#xbe;" horiz-adv-x="1708" d="M113 850q-1 -12 -1 -23q0 -126 84 -197q91 -77 248 -77q61 0 116.5 16.5t97.5 48t67 77.5t25 104q0 53 -18.5 92t-49.5 65.5t-72 40t-86 17.5v4q92 0 150.5 54t58.5 140q0 61 -25.5 100.5t-66.5 63t-91 32.5t-101 9q-68 0 -125.5 -17.5t-99.5 -52t-64 -84.5 q-21 -46 -21 -107v-11h41q0 123 68.5 177t197.5 54q47 0 91.5 -6t78 -24.5t55 -50t21.5 -83.5q0 -49 -20.5 -82.5t-55 -53t-77.5 -29t-90 -9.5h-54v-43q8 2 25 2h24q49 0 97.5 -9t85.5 -32.5t59.5 -61.5t22.5 -95q0 -51 -22.5 -89t-59.5 -63.5t-85 -39t-100 -13.5 q-135 0 -217 63q-73 56 -73 165q0 14 2 28h-41zM406 -68h47l974 1530h-47zM946 209h453v-209h41v209h155v41h-155v586h-51l-443 -576v-51zM989 250l406 526l4 4v-530h-410z" />
<glyph unicode="&#xbf;" d="M104 -45q0 -82 32 -145.5t86 -106.5t128 -65.5t158 -22.5q109 0 192.5 36t141 100.5t86.5 153.5q25 78 25 169q0 13 -1 26h-41q1 -14 1 -27q0 -82 -21 -153q-25 -82 -76 -140.5t-128 -91t-179 -32.5q-78 0 -144.5 19.5t-114.5 57.5t-76 94t-28 128q0 78 27 137.5 t61.5 102.5t67.5 69.5t45 38.5q57 55 96 104.5t61.5 99.5t33 105.5t10.5 124.5h-41q0 -74 -11.5 -129t-35 -101t-62.5 -90t-94 -98l-58 -54q-34 -32 -66 -75t-53.5 -101t-21.5 -134zM508 909h41v201h-41v-201z" />
<glyph unicode="&#xc0;" horiz-adv-x="1177" d="M-23 0h46l194 481h746l192 -481h45l-577 1462h-54zM233 522l361 899h4l348 -899h-713zM379 1862l285 -295h30l-256 295h-59z" />
<glyph unicode="&#xc1;" horiz-adv-x="1177" d="M-23 0h46l194 481h746l192 -481h45l-577 1462h-54zM233 522l361 899h4l348 -899h-713zM477 1567h31l299 295h-59z" />
<glyph unicode="&#xc2;" horiz-adv-x="1177" d="M-23 0h46l194 481h746l192 -481h45l-577 1462h-54zM233 522l361 899h4l348 -899h-713zM342 1577h41l203 252l211 -252h41l-234 285h-31z" />
<glyph unicode="&#xc3;" horiz-adv-x="1177" d="M-23 0h46l194 481h746l192 -481h45l-577 1462h-54zM233 522l361 899h4l348 -899h-713zM319 1597h41q0 18 7.5 40t20.5 40.5t31.5 29.5t39.5 11q33 0 63.5 -18.5t61 -41t63.5 -41t72 -18.5q72 0 106.5 47.5t34.5 106.5h-41q0 -43 -26.5 -78t-73.5 -35q-31 0 -61.5 18.5 t-63.5 41t-66.5 41t-68.5 18.5q-27 0 -52.5 -14t-45 -38t-31 -52.5t-11.5 -57.5z" />
<glyph unicode="&#xc4;" horiz-adv-x="1177" d="M-23 0h46l194 481h746l192 -481h45l-577 1462h-54zM233 522l361 899h4l348 -899h-713zM410 1573h41v166h-41v-166zM729 1573h41v166h-41v-166z" />
<glyph unicode="&#xc5;" horiz-adv-x="1177" d="M-23 0h46l194 481h746l192 -481h45l-577 1462h-54zM233 522l361 899h4l348 -899h-713zM410 1687.5q0 -36.5 14 -69.5t38.5 -57.5t57.5 -39t70 -14.5t69.5 14.5t57 39t39 57.5t14.5 69.5t-14.5 69.5t-39 57.5t-57 39t-69.5 14.5t-70 -14.5t-57.5 -39t-38.5 -57.5 t-14 -69.5zM451 1687.5q0 57.5 40.5 98.5t98 41t98.5 -41t41 -98.5t-41 -98.5t-98.5 -41t-98 41t-40.5 98.5z" />
<glyph unicode="&#xc6;" horiz-adv-x="1744" d="M-23 0h43l297 561h549v-561h844v41h-803v700h738v41h-738v639h803v41h-960zM338 602l432 823h96v-823h-528z" />
<glyph unicode="&#xc7;" horiz-adv-x="1402" d="M51 719q0 -160 46 -295t129 -234.5t199 -157t255 -63.5l-90 -116l31 -21q45 27 110 27q16 0 35.5 -5.5t36 -14.5t29 -25.5t12.5 -36.5q0 -31 -14.5 -52.5t-37 -34t-51 -17.5t-57.5 -5q-41 0 -78 10.5t-71 22.5l-19 -39q29 -10 72 -22.5t96 -12.5q41 0 77 6.5t63.5 23.5 t44 46t16.5 74q0 68 -47 95.5t-107 27.5q-29 0 -41 -5.5t-26 -7.5l59 80q135 2 244.5 47t189.5 125t130 190.5t69 243.5h-41q-16 -121 -63.5 -225t-123 -180t-180 -119t-235.5 -43q-147 0 -263 59.5t-196 158t-121 227.5t-41 268q0 115 34 244t109.5 238.5t199.5 182 t304 72.5q119 0 216.5 -38t168 -99.5t111.5 -138t47 -156.5h41q-2 68 -39 149.5t-109.5 154.5t-181 121t-254.5 48q-186 0 -317 -71.5t-213 -184.5t-120 -251t-38 -271z" />
<glyph unicode="&#xc8;" horiz-adv-x="1099" d="M111 0h979v41h-938v700h874v41h-874v639h929v41h-970v-1462zM340 1862l285 -295h30l-256 295h-59z" />
<glyph unicode="&#xc9;" horiz-adv-x="1099" d="M111 0h979v41h-938v700h874v41h-874v639h929v41h-970v-1462zM438 1567h31l299 295h-59z" />
<glyph unicode="&#xca;" horiz-adv-x="1099" d="M111 0h979v41h-938v700h874v41h-874v639h929v41h-970v-1462zM303 1577h41l203 252l211 -252h41l-234 285h-30z" />
<glyph unicode="&#xcb;" horiz-adv-x="1099" d="M111 0h979v41h-938v700h874v41h-874v639h929v41h-970v-1462zM371 1573h41v166h-41v-166zM690 1573h41v166h-41v-166z" />
<glyph unicode="&#xcc;" horiz-adv-x="262" d="M-78 1862l283 -295h31l-254 295h-60zM111 0h41v1462h-41v-1462z" />
<glyph unicode="&#xcd;" horiz-adv-x="262" d="M18 1567h31l299 295h-59zM111 0h41v1462h-41v-1462z" />
<glyph unicode="&#xce;" horiz-adv-x="262" d="M-115 1577h41l201 252l211 -252h41l-234 285h-30zM111 0h41v1462h-41v-1462z" />
<glyph unicode="&#xcf;" horiz-adv-x="262" d="M-47 1573h41v166h-41v-166zM111 0h41v1462h-41v-1462zM270 1573h41v166h-41v-166z" />
<glyph unicode="&#xd0;" horiz-adv-x="1327" d="M-18 741h129v-741h448q133 0 256 41t219 128t153.5 226.5t57.5 335.5q0 215 -56 356.5t-145.5 224.5t-201 116.5t-219.5 33.5h-512v-680h-129v-41zM152 41v700h608v41h-608v639h460q111 0 216.5 -30.5t189.5 -109.5t135 -212t51 -338q0 -176 -50 -306t-137 -215 t-203 -127t-245 -42h-417z" />
<glyph unicode="&#xd1;" horiz-adv-x="1327" d="M111 0h41v1411h4l999 -1411h62v1462h-41v-1411h-5l-999 1411h-61v-1462zM393 1597h41q0 18 7.5 40t20.5 40.5t31.5 29.5t38.5 11q33 0 64 -18.5t61.5 -41t63.5 -41t72 -18.5q72 0 106.5 47.5t34.5 106.5h-41q0 -43 -26.5 -78t-73.5 -35q-31 0 -62 18.5t-63.5 41t-66.5 41 t-69 18.5q-27 0 -52 -14t-44.5 -38t-31 -52.5t-11.5 -57.5z" />
<glyph unicode="&#xd2;" horiz-adv-x="1476" d="M66 731q0 -156 44 -295t129 -243.5t210.5 -165t289.5 -60.5t290 60.5t211 165t129 243.5t44 295t-44 295t-129 243.5t-211 166t-290 61.5t-289.5 -61.5t-210.5 -166t-129 -243.5t-44 -295zM106 731q2 158 46.5 291t125 229.5t197.5 150.5t264.5 54t264 -54t197.5 -150.5 t125 -229.5t46 -291q-2 -158 -46 -291t-125 -229t-197.5 -150.5t-264 -54.5t-264.5 54.5t-197.5 150.5t-125 229t-46.5 291zM528 1862l285 -295h31l-256 295h-60z" />
<glyph unicode="&#xd3;" horiz-adv-x="1476" d="M66 731q0 -156 44 -295t129 -243.5t210.5 -165t289.5 -60.5t290 60.5t211 165t129 243.5t44 295t-44 295t-129 243.5t-211 166t-290 61.5t-289.5 -61.5t-210.5 -166t-129 -243.5t-44 -295zM106 731q2 158 46.5 291t125 229.5t197.5 150.5t264.5 54t264 -54t197.5 -150.5 t125 -229.5t46 -291q-2 -158 -46 -291t-125 -229t-197.5 -150.5t-264 -54.5t-264.5 54.5t-197.5 150.5t-125 229t-46.5 291zM627 1567h30l299 295h-59z" />
<glyph unicode="&#xd4;" horiz-adv-x="1476" d="M66 731q0 -156 44 -295t129 -243.5t210.5 -165t289.5 -60.5t290 60.5t211 165t129 243.5t44 295t-44 295t-129 243.5t-211 166t-290 61.5t-289.5 -61.5t-210.5 -166t-129 -243.5t-44 -295zM106 731q2 158 46.5 291t125 229.5t197.5 150.5t264.5 54t264 -54t197.5 -150.5 t125 -229.5t46 -291q-2 -158 -46 -291t-125 -229t-197.5 -150.5t-264 -54.5t-264.5 54.5t-197.5 150.5t-125 229t-46.5 291zM492 1577h40l203 252l211 -252h41l-233 285h-31z" />
<glyph unicode="&#xd5;" horiz-adv-x="1476" d="M66 731q0 -156 44 -295t129 -243.5t210.5 -165t289.5 -60.5t290 60.5t211 165t129 243.5t44 295t-44 295t-129 243.5t-211 166t-290 61.5t-289.5 -61.5t-210.5 -166t-129 -243.5t-44 -295zM106 731q2 158 46.5 291t125 229.5t197.5 150.5t264.5 54t264 -54t197.5 -150.5 t125 -229.5t46 -291q-2 -158 -46 -291t-125 -229t-197.5 -150.5t-264 -54.5t-264.5 54.5t-197.5 150.5t-125 229t-46.5 291zM469 1597h41q0 18 7 40t20.5 40.5t32 29.5t38.5 11q33 0 63.5 -18.5t61.5 -41t63.5 -41t71.5 -18.5q72 0 107 47.5t35 106.5h-41q0 -43 -27 -78 t-74 -35q-31 0 -61.5 18.5t-63 41t-66.5 41t-69 18.5q-27 0 -52.5 -14t-44.5 -38t-30.5 -52.5t-11.5 -57.5z" />
<glyph unicode="&#xd6;" horiz-adv-x="1476" d="M66 731q0 -156 44 -295t129 -243.5t210.5 -165t289.5 -60.5t290 60.5t211 165t129 243.5t44 295t-44 295t-129 243.5t-211 166t-290 61.5t-289.5 -61.5t-210.5 -166t-129 -243.5t-44 -295zM106 731q2 158 46.5 291t125 229.5t197.5 150.5t264.5 54t264 -54t197.5 -150.5 t125 -229.5t46 -291q-2 -158 -46 -291t-125 -229t-197.5 -150.5t-264 -54.5t-264.5 54.5t-197.5 150.5t-125 229t-46.5 291zM559 1573h41v166h-41v-166zM879 1573h41v166h-41v-166z" />
<glyph unicode="&#xd7;" horiz-adv-x="1228" d="M197 129l28 -29l387 392l392 -392l28 29l-391 389l391 389l-28 27l-392 -391l-387 391l-28 -27l389 -389z" />
<glyph unicode="&#xd8;" horiz-adv-x="1476" d="M66 731q0 -154 42 -290t123 -240l-149 -166l31 -25l145 162q86 -98 206 -151.5t275 -53.5q164 0 290 60.5t211 165t129 243.5t44 295t-41 292t-127 241l125 139l-31 24l-120 -133q-86 94 -206 148.5t-274 54.5q-164 0 -289.5 -61.5t-210.5 -166t-129 -243.5t-44 -295z M106 731q2 158 46.5 291t125 229.5t197.5 150.5t264 54q143 0 256 -50t195 -142l-930 -1031q-150 191 -154 498zM287 203l930 1028q152 -190 155 -500q-2 -158 -46 -291t-125 -229t-197.5 -150.5t-264 -54.5t-260 51.5t-192.5 145.5z" />
<glyph unicode="&#xd9;" horiz-adv-x="1294" d="M111 545q0 -295 137 -436.5t399 -141.5t399.5 141.5t137.5 436.5v917h-41v-917q0 -264 -121 -401.5t-375 -137.5t-374.5 137.5t-120.5 401.5v917h-41v-917zM436 1862l285 -295h31l-256 295h-60z" />
<glyph unicode="&#xda;" horiz-adv-x="1294" d="M111 545q0 -295 137 -436.5t399 -141.5t399.5 141.5t137.5 436.5v917h-41v-917q0 -264 -121 -401.5t-375 -137.5t-374.5 137.5t-120.5 401.5v917h-41v-917zM535 1567h30l299 295h-59z" />
<glyph unicode="&#xdb;" horiz-adv-x="1294" d="M111 545q0 -295 137 -436.5t399 -141.5t399.5 141.5t137.5 436.5v917h-41v-917q0 -264 -121 -401.5t-375 -137.5t-374.5 137.5t-120.5 401.5v917h-41v-917zM399 1577h41l203 252l211 -252h41l-233 285h-31z" />
<glyph unicode="&#xdc;" horiz-adv-x="1294" d="M111 545q0 -295 137 -436.5t399 -141.5t399.5 141.5t137.5 436.5v917h-41v-917q0 -264 -121 -401.5t-375 -137.5t-374.5 137.5t-120.5 401.5v917h-41v-917zM467 1573h41v166h-41v-166zM786 1573h41v166h-41v-166z" />
<glyph unicode="&#xdd;" horiz-adv-x="1101" d="M-59 1462l589 -846v-616h41v616l592 846h-49l-563 -803l-559 803h-51zM438 1612h31l299 295h-59z" />
<glyph unicode="&#xde;" horiz-adv-x="1175" d="M111 0h41v412h530q102 0 187 25.5t146.5 75.5t96.5 125t35 171q0 199 -117 299t-328 100h-550v254h-41v-1462zM152 453v714h550q205 0 304.5 -92t99.5 -266q0 -86 -31 -151.5t-85 -111.5t-128 -69.5t-160 -23.5h-550z" />
<glyph unicode="&#xdf;" horiz-adv-x="985" d="M113 0h41v1133q0 106 34.5 168.5t85 94t105.5 41t94 9.5q70 0 131.5 -20.5t106.5 -58.5t71.5 -93t26.5 -125q0 -90 -33 -151.5t-87 -98.5t-126 -52q-63 -14 -131 -14q-9 0 -18 1v-41q102 0 189 -14.5t149.5 -54.5t97.5 -110.5t35 -183.5q0 -117 -35 -194.5t-97.5 -122.5 t-148.5 -62q-63 -12 -135 -12q-27 0 -55 2v-41h34q123 0 209 26q98 30 157.5 86t85.5 137t26 181q0 162 -79 265.5t-257 119.5v4q131 23 195.5 112t64.5 218q0 80 -32 142.5t-84 106.5t-119.5 66.5t-141.5 22.5q-66 0 -130 -17.5t-115.5 -58.5t-83 -107.5t-31.5 -164.5 v-1139z" />
<glyph unicode="&#xe0;" horiz-adv-x="985" d="M45 260q0 -141 96.5 -212t255.5 -71q82 0 151.5 21.5t124 58.5t90.5 84t52 99h4v-138q0 -59 34 -80.5t79 -21.5h61v41q-20 -2 -43.5 -3t-44 4t-33 19.5t-12.5 44.5v670q-2 86 -30.5 143.5t-75.5 93.5t-109.5 50t-132.5 14q-98 0 -171 -26.5t-123 -73.5t-76.5 -111.5 t-30.5 -138.5h41q10 147 102 228t258 81q104 0 165.5 -27.5t93.5 -70.5t40 -94t8 -99q0 -59 -23.5 -90.5t-73.5 -47t-128 -20.5l-186 -12q-66 -4 -131.5 -17t-116.5 -47t-83 -93.5t-32 -157.5zM86 260q0 84 26.5 136t71.5 82t103.5 41t120 15.5t126 6.5t120 10t98.5 23.5 t63 43.5h4v-194q0 -78 -27.5 -151.5t-82 -130t-134 -91.5t-182.5 -35q-86 0 -144.5 21.5t-95 55.5t-52 78t-15.5 89zM283 1452l284 -295h31l-256 295h-59z" />
<glyph unicode="&#xe1;" horiz-adv-x="985" d="M45 260q0 -141 96.5 -212t255.5 -71q82 0 151.5 21.5t124 58.5t90.5 84t52 99h4v-138q0 -59 34 -80.5t79 -21.5h61v41q-20 -2 -43.5 -3t-44 4t-33 19.5t-12.5 44.5v670q-2 86 -30.5 143.5t-75.5 93.5t-109.5 50t-132.5 14q-98 0 -171 -26.5t-123 -73.5t-76.5 -111.5 t-30.5 -138.5h41q10 147 102 228t258 81q104 0 165.5 -27.5t93.5 -70.5t40 -94t8 -99q0 -59 -23.5 -90.5t-73.5 -47t-128 -20.5l-186 -12q-66 -4 -131.5 -17t-116.5 -47t-83 -93.5t-32 -157.5zM86 260q0 84 26.5 136t71.5 82t103.5 41t120 15.5t126 6.5t120 10t98.5 23.5 t63 43.5h4v-194q0 -78 -27.5 -151.5t-82 -130t-134 -91.5t-182.5 -35q-86 0 -144.5 21.5t-95 55.5t-52 78t-15.5 89zM381 1157h31l299 295h-60z" />
<glyph unicode="&#xe2;" horiz-adv-x="985" d="M45 260q0 -141 96.5 -212t255.5 -71q82 0 151.5 21.5t124 58.5t90.5 84t52 99h4v-138q0 -59 34 -80.5t79 -21.5h61v41q-20 -2 -43.5 -3t-44 4t-33 19.5t-12.5 44.5v670q-2 86 -30.5 143.5t-75.5 93.5t-109.5 50t-132.5 14q-98 0 -171 -26.5t-123 -73.5t-76.5 -111.5 t-30.5 -138.5h41q10 147 102 228t258 81q104 0 165.5 -27.5t93.5 -70.5t40 -94t8 -99q0 -59 -23.5 -90.5t-73.5 -47t-128 -20.5l-186 -12q-66 -4 -131.5 -17t-116.5 -47t-83 -93.5t-32 -157.5zM86 260q0 84 26.5 136t71.5 82t103.5 41t120 15.5t126 6.5t120 10t98.5 23.5 t63 43.5h4v-194q0 -78 -27.5 -151.5t-82 -130t-134 -91.5t-182.5 -35q-86 0 -144.5 21.5t-95 55.5t-52 78t-15.5 89zM246 1167h41l202 252l211 -252h41l-233 285h-31z" />
<glyph unicode="&#xe3;" horiz-adv-x="985" d="M45 260q0 -141 96.5 -212t255.5 -71q82 0 151.5 21.5t124 58.5t90.5 84t52 99h4v-138q0 -59 34 -80.5t79 -21.5h61v41q-20 -2 -43.5 -3t-44 4t-33 19.5t-12.5 44.5v670q-2 86 -30.5 143.5t-75.5 93.5t-109.5 50t-132.5 14q-98 0 -171 -26.5t-123 -73.5t-76.5 -111.5 t-30.5 -138.5h41q10 147 102 228t258 81q104 0 165.5 -27.5t93.5 -70.5t40 -94t8 -99q0 -59 -23.5 -90.5t-73.5 -47t-128 -20.5l-186 -12q-66 -4 -131.5 -17t-116.5 -47t-83 -93.5t-32 -157.5zM86 260q0 84 26.5 136t71.5 82t103.5 41t120 15.5t126 6.5t120 10t98.5 23.5 t63 43.5h4v-194q0 -78 -27.5 -151.5t-82 -130t-134 -91.5t-182.5 -35q-86 0 -144.5 21.5t-95 55.5t-52 78t-15.5 89zM223 1188h41q0 18 7.5 39.5t20.5 40t31.5 30t38.5 11.5q33 0 64 -18.5t61.5 -41t63.5 -41t72 -18.5q72 0 106.5 47t34.5 106h-41q0 -43 -26.5 -77.5 t-73.5 -34.5q-31 0 -62 18.5t-63.5 41t-66.5 41t-69 18.5q-27 0 -52 -14.5t-44.5 -38t-31 -52t-11.5 -57.5z" />
<glyph unicode="&#xe4;" horiz-adv-x="985" d="M45 260q0 -141 96.5 -212t255.5 -71q82 0 151.5 21.5t124 58.5t90.5 84t52 99h4v-138q0 -59 34 -80.5t79 -21.5h61v41q-20 -2 -43.5 -3t-44 4t-33 19.5t-12.5 44.5v670q-2 86 -30.5 143.5t-75.5 93.5t-109.5 50t-132.5 14q-98 0 -171 -26.5t-123 -73.5t-76.5 -111.5 t-30.5 -138.5h41q10 147 102 228t258 81q104 0 165.5 -27.5t93.5 -70.5t40 -94t8 -99q0 -59 -23.5 -90.5t-73.5 -47t-128 -20.5l-186 -12q-66 -4 -131.5 -17t-116.5 -47t-83 -93.5t-32 -157.5zM86 260q0 84 26.5 136t71.5 82t103.5 41t120 15.5t126 6.5t120 10t98.5 23.5 t63 43.5h4v-194q0 -78 -27.5 -151.5t-82 -130t-134 -91.5t-182.5 -35q-86 0 -144.5 21.5t-95 55.5t-52 78t-15.5 89zM313 1163h41v166h-41v-166zM633 1163h41v166h-41v-166z" />
<glyph unicode="&#xe5;" horiz-adv-x="985" d="M45 260q0 -141 96.5 -212t255.5 -71q82 0 151.5 21.5t124 58.5t90.5 84t52 99h4v-138q0 -59 34 -80.5t79 -21.5h61v41q-20 -2 -43.5 -3t-44 4t-33 19.5t-12.5 44.5v670q-2 86 -30.5 143.5t-75.5 93.5t-109.5 50t-132.5 14q-98 0 -171 -26.5t-123 -73.5t-76.5 -111.5 t-30.5 -138.5h41q10 147 102 228t258 81q104 0 165.5 -27.5t93.5 -70.5t40 -94t8 -99q0 -59 -23.5 -90.5t-73.5 -47t-128 -20.5l-186 -12q-66 -4 -131.5 -17t-116.5 -47t-83 -93.5t-32 -157.5zM86 260q0 84 26.5 136t71.5 82t103.5 41t120 15.5t126 6.5t120 10t98.5 23.5 t63 43.5h4v-194q0 -78 -27.5 -151.5t-82 -130t-134 -91.5t-182.5 -35q-86 0 -144.5 21.5t-95 55.5t-52 78t-15.5 89zM313 1380q0 -37 14.5 -69.5t39 -57t57.5 -39t69.5 -14.5t69.5 14.5t57.5 39t39 57t14.5 69.5t-14.5 70t-39 57.5t-57.5 39t-69.5 14.5t-69.5 -14.5 t-57.5 -39t-39 -57.5t-14.5 -70zM354 1380.5q0 57.5 41 98.5t98.5 41t98.5 -41t41 -98.5t-41 -98.5t-98.5 -41t-98.5 41t-41 98.5z" />
<glyph unicode="&#xe6;" horiz-adv-x="1820" d="M66 260q0 -141 96 -212t256 -71q84 0 157.5 23t132 67t98.5 107.5t56 142.5h4q41 -166 152 -254q108 -86 275 -86h7q92 0 171 28t137.5 79t95.5 123t45 158h-41q-10 -86 -46 -150.5t-90 -109t-124 -67t-148 -22.5q-113 0 -191.5 39t-127.5 107.5t-72.5 160t-27.5 195.5 h874q1 15 1 30q0 94 -22 182q-26 101 -81.5 178t-141.5 123t-206 46q-82 0 -151 -23.5t-122 -64.5t-90 -97t-57 -122h-4q-2 88 -31 147.5t-76 94.5t-109.5 50t-132.5 15q-98 0 -170.5 -26.5t-123 -73.5t-77 -111.5t-30.5 -138.5h41q10 147 102.5 228t257.5 81 q104 0 166 -27.5t93.5 -70.5t40 -94t8.5 -99q0 -59 -23.5 -90.5t-74 -47t-128 -20.5l-186.5 -12q-66 -4 -131.5 -17t-116.5 -47t-82.5 -93.5t-31.5 -157.5zM106 260q0 84 27 136.5t72 82t103.5 40.5t119.5 15.5t125.5 6.5t120 10t98.5 23.5t64 43.5h4v-194q0 -78 -28 -151.5 t-82 -130t-134 -91.5t-182 -35q-86 0 -144.5 21.5t-95.5 55.5t-52.5 78t-15.5 89zM881 559q8 109 38.5 197t84 150.5t129 96t172.5 33.5q104 0 181 -37.5t127 -102.5t75.5 -152t25.5 -185h-833z" />
<glyph unicode="&#xe7;" d="M63 504q0 -104 29 -197.5t85 -164t138 -113.5t187 -47l-101 -129l31 -21q45 27 111 27q16 0 35.5 -5.5t36 -14.5t28.5 -25.5t12 -36.5q0 -31 -14 -52.5t-36.5 -34t-51.5 -17.5t-57 -5q-41 0 -78 10.5t-72 22.5l-18 -39q29 -10 71.5 -22.5t96.5 -12.5q41 0 76.5 6.5 t63.5 23.5t44 46t16 74q0 68 -47 95.5t-106 27.5q-29 0 -41.5 -5.5t-26.5 -7.5l68 93q174 4 287.5 102t130.5 276h-41q-6 -80 -39 -142t-85.5 -107.5t-120 -69t-145.5 -23.5q-104 0 -184 40t-133 107.5t-81 156t-28 184.5q0 92 24 187t76 172t139 125t212 48q66 0 125 -18.5 t106.5 -56t80 -94t44.5 -134.5h41q-10 84 -46 148.5t-89 107.5t-120.5 65.5t-141.5 22.5q-125 0 -218 -47t-153.5 -126t-90.5 -182t-30 -218z" />
<glyph unicode="&#xe8;" d="M51 526q0 -117 26.5 -218t82 -176t142.5 -116q83 -39 198 -39h12q180 0 303 101.5t146 286.5h-41q-27 -174 -136.5 -261.5t-275.5 -87.5q-113 0 -190.5 39t-127 106.5t-73 159t-25.5 197.5h881q1 15 0 30q0 93 -22 179q-26 100 -82 178t-145 125t-212 47 q-88 0 -172 -36.5t-147.5 -107.5t-102.5 -173.5t-39 -233.5zM92 559q6 111 41 199t91.5 150.5t131 95t160.5 32.5q102 0 180 -37.5t130.5 -103.5t79 -153t26.5 -183h-840zM301 1452l285 -295h30l-256 295h-59z" />
<glyph unicode="&#xe9;" d="M51 526q0 -117 26.5 -218t82 -176t142.5 -116q83 -39 198 -39h12q180 0 303 101.5t146 286.5h-41q-27 -174 -136.5 -261.5t-275.5 -87.5q-113 0 -190.5 39t-127 106.5t-73 159t-25.5 197.5h881q1 15 0 30q0 93 -22 179q-26 100 -82 178t-145 125t-212 47 q-88 0 -172 -36.5t-147.5 -107.5t-102.5 -173.5t-39 -233.5zM92 559q6 111 41 199t91.5 150.5t131 95t160.5 32.5q102 0 180 -37.5t130.5 -103.5t79 -153t26.5 -183h-840zM399 1157h31l299 295h-59z" />
<glyph unicode="&#xea;" d="M51 526q0 -117 26.5 -218t82 -176t142.5 -116q83 -39 198 -39h12q180 0 303 101.5t146 286.5h-41q-27 -174 -136.5 -261.5t-275.5 -87.5q-113 0 -190.5 39t-127 106.5t-73 159t-25.5 197.5h881q1 15 0 30q0 93 -22 179q-26 100 -82 178t-145 125t-212 47 q-88 0 -172 -36.5t-147.5 -107.5t-102.5 -173.5t-39 -233.5zM92 559q6 111 41 199t91.5 150.5t131 95t160.5 32.5q102 0 180 -37.5t130.5 -103.5t79 -153t26.5 -183h-840zM264 1167h41l203 252l211 -252h41l-234 285h-30z" />
<glyph unicode="&#xeb;" d="M51 526q0 -117 26.5 -218t82 -176t142.5 -116q83 -39 198 -39h12q180 0 303 101.5t146 286.5h-41q-27 -174 -136.5 -261.5t-275.5 -87.5q-113 0 -190.5 39t-127 106.5t-73 159t-25.5 197.5h881q1 15 0 30q0 93 -22 179q-26 100 -82 178t-145 125t-212 47 q-88 0 -172 -36.5t-147.5 -107.5t-102.5 -173.5t-39 -233.5zM92 559q6 111 41 199t91.5 150.5t131 95t160.5 32.5q102 0 180 -37.5t130.5 -103.5t79 -153t26.5 -183h-840zM332 1163h41v166h-41v-166zM651 1163h41v166h-41v-166z" />
<glyph unicode="&#xec;" horiz-adv-x="266" d="M-76 1452l283 -295h31l-254 295h-60zM113 0h41v1053h-41v-1053z" />
<glyph unicode="&#xed;" horiz-adv-x="266" d="M20 1157h31l299 295h-59zM113 0h41v1053h-41v-1053z" />
<glyph unicode="&#xee;" horiz-adv-x="266" d="M-113 1167h41l201 252l211 -252h41l-234 285h-30zM113 0h41v1053h-41v-1053z" />
<glyph unicode="&#xef;" horiz-adv-x="266" d="M-45 1163h41v166h-41v-166zM113 0h41v1053h-41v-1053zM272 1163h41v166h-41v-166z" />
<glyph unicode="&#xf0;" horiz-adv-x="1062" d="M57 507.5q0 -104.5 31 -200.5t91.5 -168.5t148.5 -115.5t202 -43q117 0 205 43t148.5 115.5t91.5 168.5t31 201q0 113 -25 215t-76 200.5t-131 196t-188 197.5l245 137l-30 33l-252 -139q-37 31 -87 65.5t-110 65.5l-33 -29q59 -31 106.5 -62.5t84.5 -60.5l-248 -137 l31 -31l250 139q37 -31 81 -74.5t89 -98t87 -114t72 -120.5h-8q-59 78 -148 112.5t-184 34.5q-117 0 -204.5 -44t-148 -117.5t-91.5 -169t-31 -200zM98 508q0 94 28 182t83 156.5t136 109.5t187 41q104 0 185.5 -41t136.5 -109.5t83 -156.5t28 -182t-28 -183t-83 -157 t-136 -109t-186 -41q-106 0 -187 41t-136 109t-83 157t-28 183z" />
<glyph unicode="&#xf1;" d="M113 0h41v596q0 88 24.5 168t72.5 140.5t119.5 96t166.5 35.5q68 0 128 -19.5t106 -61.5t72.5 -106.5t26.5 -156.5v-692h41v698q0 92 -27.5 163t-77.5 119t-119 72.5t-150 24.5q-78 0 -141.5 -21.5t-111.5 -60.5t-80 -90t-46 -112h-4v260h-41v-1053zM242 1188h41 q0 18 7 39.5t20.5 40t31.5 30t39 11.5q33 0 63.5 -18.5t61.5 -41t63.5 -41t71.5 -18.5q72 0 106.5 47t34.5 106h-41q0 -43 -26.5 -77.5t-73.5 -34.5q-31 0 -61.5 18.5t-63.5 41t-66.5 41t-68.5 18.5q-27 0 -52.5 -14.5t-45 -38t-30.5 -52t-11 -57.5z" />
<glyph unicode="&#xf2;" horiz-adv-x="1062" d="M57 526.5q0 -108.5 31 -208t91.5 -175t148.5 -121t202 -45.5q117 0 205 45.5t148.5 121t91.5 175t31 208t-31 208t-91.5 175t-148.5 121.5t-203 46q-117 0 -204.5 -46t-148 -121.5t-91.5 -175t-31 -208zM98 526q0 98 28 190.5t83 163t136 113.5t187 43q104 0 185.5 -43 t136.5 -113.5t83 -162.5t28 -191q0 -100 -28 -192t-83 -163t-136 -113t-186 -42q-106 0 -187 42t-136 113t-83 163t-28 192zM322 1452l284 -295h31l-256 295h-59z" />
<glyph unicode="&#xf3;" horiz-adv-x="1062" d="M57 526.5q0 -108.5 31 -208t91.5 -175t148.5 -121t202 -45.5q117 0 205 45.5t148.5 121t91.5 175t31 208t-31 208t-91.5 175t-148.5 121.5t-203 46q-117 0 -204.5 -46t-148 -121.5t-91.5 -175t-31 -208zM98 526q0 98 28 190.5t83 163t136 113.5t187 43q104 0 185.5 -43 t136.5 -113.5t83 -162.5t28 -191q0 -100 -28 -192t-83 -163t-136 -113t-186 -42q-106 0 -187 42t-136 113t-83 163t-28 192zM420 1157h31l299 295h-60z" />
<glyph unicode="&#xf4;" horiz-adv-x="1062" d="M57 526.5q0 -108.5 31 -208t91.5 -175t148.5 -121t202 -45.5q117 0 205 45.5t148.5 121t91.5 175t31 208t-31 208t-91.5 175t-148.5 121.5t-203 46q-117 0 -204.5 -46t-148 -121.5t-91.5 -175t-31 -208zM98 526q0 98 28 190.5t83 163t136 113.5t187 43q104 0 185.5 -43 t136.5 -113.5t83 -162.5t28 -191q0 -100 -28 -192t-83 -163t-136 -113t-186 -42q-106 0 -187 42t-136 113t-83 163t-28 192zM285 1167h41l202 252l211 -252h41l-233 285h-31z" />
<glyph unicode="&#xf5;" horiz-adv-x="1062" d="M57 526.5q0 -108.5 31 -208t91.5 -175t148.5 -121t202 -45.5q117 0 205 45.5t148.5 121t91.5 175t31 208t-31 208t-91.5 175t-148.5 121.5t-203 46q-117 0 -204.5 -46t-148 -121.5t-91.5 -175t-31 -208zM98 526q0 98 28 190.5t83 163t136 113.5t187 43q104 0 185.5 -43 t136.5 -113.5t83 -162.5t28 -191q0 -100 -28 -192t-83 -163t-136 -113t-186 -42q-106 0 -187 42t-136 113t-83 163t-28 192zM262 1188h41q0 18 7 39.5t20.5 40t32 30t38.5 11.5q33 0 64 -18.5t61.5 -41t63.5 -41t72 -18.5q72 0 106.5 47t34.5 106h-41q0 -43 -26.5 -77.5 t-73.5 -34.5q-31 0 -62 18.5t-63.5 41t-66.5 41t-69 18.5q-27 0 -52 -14.5t-44.5 -38t-31 -52t-11.5 -57.5z" />
<glyph unicode="&#xf6;" horiz-adv-x="1062" d="M57 526.5q0 -108.5 31 -208t91.5 -175t148.5 -121t202 -45.5q117 0 205 45.5t148.5 121t91.5 175t31 208t-31 208t-91.5 175t-148.5 121.5t-203 46q-117 0 -204.5 -46t-148 -121.5t-91.5 -175t-31 -208zM98 526q0 98 28 190.5t83 163t136 113.5t187 43q104 0 185.5 -43 t136.5 -113.5t83 -162.5t28 -191q0 -100 -28 -192t-83 -163t-136 -113t-186 -42q-106 0 -187 42t-136 113t-83 163t-28 192zM352 1163h41v166h-41v-166zM672 1163h41v166h-41v-166z" />
<glyph unicode="&#xf7;" horiz-adv-x="1228" d="M98 498h1032v41h-1032v-41zM530 84q0 -35 19.5 -59.5t64.5 -24.5q47 0 65.5 24.5t18.5 59.5t-24.5 59.5t-59 24.5t-59.5 -23.5t-25 -60.5zM530 952q0 -35 19.5 -59.5t64.5 -24.5q47 0 65.5 25t18.5 59.5t-24.5 59t-59 24.5t-59.5 -23.5t-25 -60.5z" />
<glyph unicode="&#xf8;" horiz-adv-x="1062" d="M37 45l29 -29l116 121q59 -74 145.5 -117t203 -43t204.5 45.5t148.5 121t91.5 175t31 207.5q0 104 -27 196.5t-80 164.5l96 100l-28 29l-93 -96q-59 74 -145 115.5t-197 41.5q-117 0 -204.5 -46t-148 -121.5t-91.5 -175t-31 -208.5q0 -98 26 -190t77 -164zM98 526 q0 98 28 190.5t83 163t136 113.5t187 43q104 0 181.5 -40t130.5 -107l-656 -686q-90 137 -90 323zM213 170l655 686q47 -70 72 -154t25 -176q0 -100 -28 -192t-83 -163t-136 -113t-186 -42q-106 0 -186 41t-133 113z" />
<glyph unicode="&#xf9;" d="M113 354q0 -92 27.5 -162.5t77.5 -118.5t119 -72t150 -24q156 0 253.5 80t125.5 203h4v-260h41v1053h-41v-596q0 -88 -24.5 -168t-72.5 -140.5t-119.5 -96.5t-166.5 -36q-68 0 -128 19.5t-106 61.5t-72.5 106.5t-26.5 156.5v693h-41v-699zM301 1452l285 -295h30l-256 295 h-59z" />
<glyph unicode="&#xfa;" d="M113 354q0 -92 27.5 -162.5t77.5 -118.5t119 -72t150 -24q156 0 253.5 80t125.5 203h4v-260h41v1053h-41v-596q0 -88 -24.5 -168t-72.5 -140.5t-119.5 -96.5t-166.5 -36q-68 0 -128 19.5t-106 61.5t-72.5 106.5t-26.5 156.5v693h-41v-699zM399 1157h31l299 295h-59z" />
<glyph unicode="&#xfb;" d="M113 354q0 -92 27.5 -162.5t77.5 -118.5t119 -72t150 -24q156 0 253.5 80t125.5 203h4v-260h41v1053h-41v-596q0 -88 -24.5 -168t-72.5 -140.5t-119.5 -96.5t-166.5 -36q-68 0 -128 19.5t-106 61.5t-72.5 106.5t-26.5 156.5v693h-41v-699zM264 1167h41l203 252l211 -252 h41l-234 285h-30z" />
<glyph unicode="&#xfc;" d="M113 354q0 -92 27.5 -162.5t77.5 -118.5t119 -72t150 -24q156 0 253.5 80t125.5 203h4v-260h41v1053h-41v-596q0 -88 -24.5 -168t-72.5 -140.5t-119.5 -96.5t-166.5 -36q-68 0 -128 19.5t-106 61.5t-72.5 106.5t-26.5 156.5v693h-41v-699zM332 1163h41v166h-41v-166z M651 1163h41v166h-41v-166z" />
<glyph unicode="&#xfd;" horiz-adv-x="833" d="M-23 1053l439 -1043l-76 -194q-18 -47 -39.5 -75t-49.5 -41t-66 -16t-91 -3v-41q47 0 89 3t77 17t63.5 44t49.5 83l485 1266h-43l-377 -998l-418 998h-43zM305 1202h31l299 295h-60z" />
<glyph unicode="&#xfe;" horiz-adv-x="1099" d="M113 -360h41v655h4q37 -143 148.5 -230.5t273.5 -87.5q117 0 201.5 44.5t140 120t81 176t25.5 210.5q0 119 -28.5 219.5t-85 174t-140.5 114.5t-194 41q-174 0 -277.5 -90t-144.5 -229h-4v704h-41v-1822zM154 528q0 102 26.5 194.5t78.5 162t133 110.5t188 41 q109 0 185.5 -41t125.5 -111.5t72.5 -161.5t23.5 -194q0 -92 -19.5 -183t-67.5 -163.5t-126 -119t-194 -46.5q-92 0 -171 34t-135.5 99.5t-88 160.5t-31.5 218z" />
<glyph unicode="&#xff;" horiz-adv-x="833" d="M-23 1053l439 -1043l-76 -194q-18 -47 -39.5 -75t-49.5 -41t-66 -16t-91 -3v-41q47 0 89 3t77 17t63.5 44t49.5 83l485 1266h-43l-377 -998l-418 998h-43zM238 1208h41v166h-41v-166zM557 1208h41v166h-41v-166z" />
<glyph unicode="&#x152;" horiz-adv-x="2086" d="M66 723q0 -154 44 -291t129 -240.5t210.5 -164t291.5 -60.5q106 0 211 39t191 127v-133h889v41h-848v700h749v41h-749v639h848v41h-889v-133q-80 92 -179.5 130t-222.5 38q-168 0 -295 -63.5t-210.5 -170t-126.5 -246.5t-43 -294zM106 723q2 166 47.5 301t127.5 231.5 t198.5 148.5t261.5 52q66 0 119 -10t100.5 -31.5t91.5 -55.5t91 -83v-1083q-88 -102 -196.5 -144.5t-205.5 -42.5q-147 0 -264 54.5t-198.5 149.5t-126 226t-46.5 287z" />
<glyph unicode="&#x153;" horiz-adv-x="1822" d="M66 526q0 -104 23.5 -202.5t75.5 -175t134 -124t199 -47.5q178 0 276 92.5t133 252.5h4q25 -166 131.5 -255.5t280.5 -89.5q180 0 283.5 101.5t132.5 275.5h-41q-12 -68 -39 -129t-71 -107t-109.5 -74t-155.5 -28q-205 0 -300 128q-93 125 -93 364v10h823v31 q0 104 -24.5 200.5t-77 170t-132.5 116.5q-77 41 -186 41h-10q-94 -2 -166 -29.5t-122 -75.5t-80.5 -112.5t-45.5 -142.5h-4q-25 160 -130 260t-277 100q-119 0 -202 -48t-134 -126t-73.5 -176.5t-22.5 -200.5zM106 526q0 98 21.5 189.5t68 163t121 114.5t181.5 43 q111 0 185.5 -43t120.5 -113.5t65.5 -162.5t19.5 -191q0 -100 -19.5 -192t-64.5 -163t-120 -113t-187 -42q-106 0 -181 44t-121.5 116t-68 164t-21.5 186zM930 559q4 102 26.5 189.5t68.5 151t120 100t180 36.5q102 0 175 -37.5t119 -103.5t68.5 -153t24.5 -183h-782z" />
<glyph unicode="&#x178;" horiz-adv-x="1101" d="M-59 1462l589 -846v-616h41v616l592 846h-49l-563 -803l-559 803h-51zM371 1573h41v166h-41v-166zM690 1573h41v166h-41v-166z" />
<glyph unicode="&#x2c6;" horiz-adv-x="266" d="M-113 1212h41l201 252l211 -252h41l-234 285h-30z" />
<glyph unicode="&#x2dc;" horiz-adv-x="266" d="M-135 1233h41q0 18 7 39.5t20.5 40t31 30t37.5 11.5q33 0 63.5 -18.5t61.5 -41t63.5 -41t71.5 -18.5q72 0 106.5 47t34.5 107h-41q0 -43 -26.5 -78t-73.5 -35q-31 0 -61.5 18.5t-63.5 41t-66.5 41t-68.5 18.5q-27 0 -51.5 -14.5t-44 -38t-30.5 -52t-11 -57.5z" />
<glyph unicode="&#x2013;" d="M0 528h1024v41h-1024v-41z" />
<glyph unicode="&#x2014;" horiz-adv-x="2048" d="M266 528h1516v41h-1516v-41z" />
<glyph unicode="&#x2018;" horiz-adv-x="342" d="M150 1001h40v242q0 78 10.5 118t41.5 60v41q-27 -14 -44.5 -29.5t-28.5 -40t-15 -59.5t-4 -90v-242z" />
<glyph unicode="&#x2019;" horiz-adv-x="342" d="M100 1001q27 14 44.5 30t28.5 40.5t15.5 59t4.5 90.5v241h-41v-241q0 -78 -10.5 -118t-41.5 -61v-41z" />
<glyph unicode="&#x201a;" horiz-adv-x="342" d="M98 -201v-41q53 35 72.5 92.5t19.5 149.5v201h-40v-201q0 -82 -11.5 -128t-40.5 -73z" />
<glyph unicode="&#x201c;" horiz-adv-x="569" d="M170 1001h41v242q0 78 10 118t41 60v41q-27 -14 -44 -29.5t-28.5 -40t-15.5 -59.5t-4 -90v-242zM375 1001h41v242q0 78 10 118t41 60v41q-27 -14 -44 -29.5t-28.5 -40t-15.5 -59.5t-4 -90v-242z" />
<glyph unicode="&#x201d;" horiz-adv-x="569" d="M102 1001q27 14 44.5 30t28.5 40.5t15.5 59t4.5 90.5v241h-41v-241q0 -78 -10.5 -118t-41.5 -61v-41zM307 1001q27 14 44.5 30t28.5 40.5t15 59t4 90.5v241h-41v-241q0 -78 -10 -118t-41 -61v-41z" />
<glyph unicode="&#x201e;" horiz-adv-x="569" d="M102 -201v-41q53 35 73 92.5t20 149.5v201h-41v-201q0 -82 -11.5 -128t-40.5 -73zM307 -201v-41q53 35 72.5 92.5t19.5 149.5v201h-41v-201q0 -82 -11 -128t-40 -73z" />
<glyph unicode="&#x2022;" d="M147 731q0 -76 29 -142.5t78 -116.5t115.5 -78.5t142.5 -28.5t142.5 28.5t116.5 78.5t79 116.5t29 142.5t-29 142.5t-79 115.5t-116.5 78t-142.5 29t-142.5 -29t-115.5 -78t-78 -115.5t-29 -142.5z" />
<glyph unicode="&#x2026;" horiz-adv-x="2048" d="M322 0h40v201h-40v-201zM1004 0h40v201h-40v-201zM1686 0h40v201h-40v-201z" />
<glyph unicode="&#x2039;" horiz-adv-x="530" d="M135 532l211 -284v71l-170 230l170 229v72l-211 -285v-33z" />
<glyph unicode="&#x203a;" horiz-adv-x="530" d="M184 248l211 284v33l-211 285v-72l170 -229l-170 -230v-71z" />
<glyph unicode="&#x20ac;" horiz-adv-x="1138" d="M0 551h125q18 -121 67.5 -226.5t126 -184.5t180 -124t232.5 -45q252 0 430 179v55q-168 -199 -424 -199q-119 0 -216 43t-168.5 118t-118 174t-64.5 210h752l18 35h-774q-6 53 -6 106q0 25 1 49.5t3 49.5h819l18 34h-833q14 117 59 219.5t119 178t174.5 119.5t222.5 44 q111 0 195 -32.5t170 -98.5l18 33q-86 68 -178 101.5t-203 33.5q-133 0 -240.5 -46t-186 -127t-127 -189.5t-64.5 -235.5h-113l-14 -34h123q-2 -29 -3 -60t-1 -59v-43q0 -10 1 -21.5t3 -21.5h-109z" />
<glyph unicode="&#x2122;" horiz-adv-x="2027" d="M168 1421h307v-803h41v803h307v41h-655v-41zM1016 618h41v803h4l336 -803h41l336 803h4v-803h41v844h-70l-332 -786l-332 786h-69v-844z" />
<glyph unicode="&#xe000;" horiz-adv-x="1055" d="M0 1055h1055v-1055h-1055v1055z" />
<glyph unicode="&#xfb01;" horiz-adv-x="681" d="M0 1012h178v-1012h41v1012h227v41h-227v219q0 78 30 113.5t128 35.5q23 0 45 -2t51 -6v41q-16 2 -37.5 5t-50.5 3q-33 0 -69.5 -4t-67.5 -21.5t-50.5 -52t-19.5 -98.5v-233h-178v-41zM528 0h41v1053h-41v-1053zM528 1255h41v207h-41v-207z" />
<glyph unicode="&#xfb02;" horiz-adv-x="681" d="M0 1012h178v-1012h41v1012h227v41h-227v219q0 78 30 113.5t128 35.5q23 0 45 -2t51 -6v41q-16 2 -37.5 5t-50.5 3q-33 0 -69.5 -4t-67.5 -21.5t-50.5 -52t-19.5 -98.5v-233h-178v-41zM528 0h41v1462h-41v-1462z" />
<glyph unicode="&#xfb03;" horiz-adv-x="1101" d="M0 1012h178v-1012h41v1012h227v41h-227v219q0 78 30 113.5t128 35.5q23 0 45 -2t51 -6v41q-16 2 -37.5 5t-50.5 3q-33 0 -69.5 -4t-67.5 -21.5t-50.5 -52t-19.5 -98.5v-233h-178v-41zM418 1012h178v-1012h41v1012h227v41h-227v219q0 78 29.5 113.5t128.5 35.5q23 0 45 -2 t51 -6v41l-38 5t-50 3q-33 0 -70 -4t-67.5 -21.5t-50 -52t-19.5 -98.5v-233h-178v-41zM948 0h41v1053h-41v-1053zM948 1255h41v207h-41v-207z" />
<glyph unicode="&#xfb04;" horiz-adv-x="1101" d="M0 1012h178v-1012h41v1012h227v41h-227v219q0 78 30 113.5t128 35.5q23 0 45 -2t51 -6v41q-16 2 -37.5 5t-50.5 3q-33 0 -69.5 -4t-67.5 -21.5t-50.5 -52t-19.5 -98.5v-233h-178v-41zM418 1012h178v-1012h41v1012h227v41h-227v219q0 78 29.5 113.5t128.5 35.5q23 0 45 -2 t51 -6v41l-38 5t-50 3q-33 0 -70 -4t-67.5 -21.5t-50 -52t-19.5 -98.5v-233h-178v-41zM948 0h41v1462h-41v-1462z" />
</font>
</defs>
</svg>
